<svg id="Layer_1" data-name="Layer 1" xmlns="http://www.w3.org/2000/svg" viewBox="0 0 186.09 113.39"><defs><style>.cls-1{fill:#fff;}</style></defs><title>Ae</title><path class="cls-1" d="M651.81,711.44q-19.38,0-38.61,0a1.07,1.07,0,0,0-1.25.9c-2.49,7.85-5,15.7-7.56,23.54-.57,1.79-.92,2-2.79,2H583c-1.94,0-2.32-.52-1.67-2.39L589,713.27q13-37.26,26-74.53a31.06,31.06,0,0,0,1.85-10.35c0-1.16.3-1.45,1.43-1.45,8.86,0,17.72,0,26.58,0a1.73,1.73,0,0,1,1.84,1.36q18.09,50.61,36.2,101.2c.72,2,1.46,4,2.15,6.07.51,1.48.17,1.94-1.4,1.94H662.53c-1.57,0-1.89-.22-2.39-1.68l-8.06-23.61C652,712,651.91,711.74,651.81,711.44Zm-6.62-21.11q-6.86-22.12-13.6-43.91c-3.66,14.72-8.68,29.19-13,43.91Z" transform="translate(-581 -626.92)"/><path class="cls-1" d="M714.13,701.91c.73,7.79,5.12,13.47,11.17,15.91A36.72,36.72,0,0,0,743.58,720a62.62,62.62,0,0,0,14.27-2.87c.56-.2,1.11-.42,1.81-.68a7.75,7.75,0,0,1,.2,1.24c0,5.3,0,10.59,0,15.89a2.42,2.42,0,0,1-1.67,2.5,54.72,54.72,0,0,1-15.16,3.66,72.11,72.11,0,0,1-18.68-.15c-16.8-2.45-27.76-11.83-32.32-28.17a51.3,51.3,0,0,1,3.71-38.24,37.71,37.71,0,0,1,19.93-18.4c5-2,10.29-2.3,15.6-2.35a37.19,37.19,0,0,1,20,5.22c6.61,4,10.63,10.06,13.28,17.15A44.7,44.7,0,0,1,767,693.58c-.13,2.18-.35,4.36-.51,6.54a1.63,1.63,0,0,1-1.66,1.7c-5,.34-9.92.84-14.89.18a18,18,0,0,0-2.44-.08H714.13Zm0-15.53a1.87,1.87,0,0,0,.4.07c9,0,17.93,0,26.89-.06a12.43,12.43,0,0,0,2.68-.51c.56-.13.73-.51.73-1.1a13.65,13.65,0,0,0-4.41-10.19c-3.79-3.61-8.42-4.34-13.38-3.6C720.07,672,713.94,679.36,714.15,686.38Z" transform="translate(-581 -626.92)"/></svg>