<svg id="Layer_1" data-name="Layer 1" xmlns="http://www.w3.org/2000/svg" viewBox="0 0 112.6 110.23"><defs><style>.cls-1{fill:#fff;}</style></defs><title>Ai</title><path class="cls-1" d="M668,768.42l4.81-14.8q4-14.77,8.06-29.55l7.45-26.38L698,668.36l2.46-.41,9.51,0c7.48.24,9.77,5.17,11.05,11.55.86,4.24,2.68,8.28,4.06,12.41l2,3.86c.1,1.17.2,2.34.29,3.51.72,2,1.43,4.05,2.15,6.07a.87.87,0,0,0,.16,1.31q4.56,16.18,9.14,32.37l8.65,29.38-.57,4.5c-7.18-.44-16.2,4.26-19.47-7-3.76-22-5.18-22.76-36.16-18.48-2.16,8.36-4.4,17-6.63,25.61C678.09,775.07,670.09,782.33,668,768.42ZM718.21,728l-10.32-37.57-2.31.48c-3,12.06-5.9,24.11-9.07,37.09Z" transform="translate(-668 -666.52)"/><path class="cls-1" d="M770.53,695.38c6.68.36,10,3.22,8.76,10.49-.59,3.46.15,7.14.29,10.71v56.3c-7.27-1.71-16.34,6.83-18.11-6.91q0-19.74,0-39.5c.14-6.8.92-13.67.24-20.39C761,698.91,763.65,695.71,770.53,695.38Z" transform="translate(-668 -666.52)"/><path class="cls-1" d="M774.26,666.57c9,9.29,8.58,12.92-2.48,19.2-3.51-3.48-9.51-6.63-10-10.49C760.72,667.1,767.75,666.27,774.26,666.57Z" transform="translate(-668 -666.52)"/></svg>