<svg id="Layer_1" data-name="Layer 1" xmlns="http://www.w3.org/2000/svg" viewBox="0 0 137.09 87.27"><title>be</title><path d="M682.3,740.25a23.42,23.42,0,0,0,15.65-11,24.89,24.89,0,0,0,3.79-13.58,22.58,22.58,0,0,0-3.31-12.47,19,19,0,0,0-9.84-7.51,20.47,20.47,0,0,0,6.5-4.85q3.93-4.74,3.94-12.54a21.68,21.68,0,0,0-3.91-13q-6.5-8.83-22.06-9.07H631.91v85.14h38.36A59,59,0,0,0,682.3,740.25Zm-33.41-69.19h18.52a31.91,31.91,0,0,1,10.06,1.33q4.57,1.9,4.58,7.85c0,3.58-1.16,6.08-3.46,7.48a17.1,17.1,0,0,1-9,2.11H648.89Zm0,55.56V703.93h21a21.27,21.27,0,0,1,8.51,1.44q5.43,2.48,5.43,9.12,0,7.86-5.6,10.63a20.09,20.09,0,0,1-8.62,1.5Z" transform="translate(-631.91 -656.27)"/><path d="M716.16,735.8a34.28,34.28,0,0,0,22.17,7.75q15.24,0,23.69-9.19,5.44-5.77,6.1-11.38h-16.8a12.8,12.8,0,0,1-12.53,7.22,16.67,16.67,0,0,1-9.07-2.37q-6.21-3.81-6.59-13.29H769a81.1,81.1,0,0,0-.54-12.49,30.86,30.86,0,0,0-5-13,25.54,25.54,0,0,0-10.88-9.32,35.88,35.88,0,0,0-14.8-2.94q-13.85,0-22.51,8.73t-8.68,25.08Q706.55,728.05,716.16,735.8ZM727.92,694q3.5-3.6,9.82-3.6a14.44,14.44,0,0,1,9.77,3.39q3.94,3.39,4.39,10H723.53A17.09,17.09,0,0,1,727.92,694Z" transform="translate(-631.91 -656.27)"/><rect x="86.26" y="4.89" width="37" height="8.59"/></svg>