<svg id="Layer_1" data-name="Layer 1" xmlns="http://www.w3.org/2000/svg" viewBox="0 0 653.06 429"><defs><style>.cls-1{fill:#f5f5f5;}.cls-2{fill:#ebebeb;}.cls-3{fill:#e0e0e0;}.cls-4{fill:#fff;}.cls-5{fill:#455a64;}.cls-6{fill:#383d45;}.cls-7{fill:#263238;}.cls-8{fill:#fafafa;}.cls-9{fill:#9aabbd;}.cls-10{fill:none;stroke:#fff;stroke-miterlimit:10;stroke-width:0.05px;}.cls-11{fill:#ffbe9d;}.cls-12{fill:#eb996e;}.cls-13{opacity:0.3;}</style></defs><title>creative</title><path class="cls-1" d="M499.44,728.29a7.51,7.51,0,1,1-7.51-7.51A7.52,7.52,0,0,1,499.44,728.29Z" transform="translate(-274.57 -386.72)"/><path class="cls-2" d="M831.56,426.83c-3.4,4.69-6,2.25-15.15,7.63-5,2.92-7.4,9.72-6.23,15.39s6.2,10.7,12,10.63c3.74,0,7.13-2.05,10.65-3.3s7.95-1.59,10.54,1.1c3.65,3.77,1.12,10.43-.73,14.69a12.72,12.72,0,0,0-1.12,5.59c.42,8.58,9.2,8.64,14,4.94,3.63-2.81,5.74-7.1,8.42-10.84s6.59-7.23,11.19-7c4.94.2,8.57,4.45,12.22,7.78s9.41,6,13.28,2.92c2.91-2.3,3.08-6.66,2.3-10.28s-2.24-7.24-1.7-10.91c.68-4.61,4.17-7.83,8.35-10.25a6.12,6.12,0,0,0-1-11.05l-.12,0c-3.7-1.25-7.7-1.49-11.32-3s-7-4.8-6.65-8.69c.38-4.62,5.69-8,3.68-13.15a7.87,7.87,0,0,0-7.15-4.85c-7-.23-11.66,4.83-16.79,8.65-4.15,3.1-9.67,5.54-14.38,3.4-5.31-2.41-7-9.37-11.74-12.72a10.6,10.6,0,0,0-13.38,16.38A4.78,4.78,0,0,1,831.56,426.83Z" transform="translate(-274.57 -386.72)"/><rect class="cls-3" x="896.95" y="569.38" width="4.81" height="104.28" transform="translate(159.45 -754.43) rotate(30.16)"/><path class="cls-2" d="M862.76,541l-51.52,88.66a.08.08,0,0,0,0,.1l59.53,34.59a.07.07,0,0,0,.1,0l51.51-88.66a.07.07,0,0,0,0-.09l-59.53-34.59A.06.06,0,0,0,862.76,541Z" transform="translate(-274.57 -386.72)"/><path class="cls-3" d="M871.08,665.39,810.17,630a.08.08,0,0,1,0-.1l52.33-90a.08.08,0,0,1,.09,0l60.91,35.4a.06.06,0,0,1,0,.09l-52.32,90A.08.08,0,0,1,871.08,665.39Zm-58.73-36,58.15,33.79a.08.08,0,0,0,.1,0l50.71-87.28a.07.07,0,0,0,0-.09L863.14,542a.08.08,0,0,0-.1,0l-50.71,87.28A.08.08,0,0,0,812.35,629.42Z" transform="translate(-274.57 -386.72)"/><path class="cls-4" d="M865.58,549.92l-45.12,77.65a.07.07,0,0,0,0,.09l47.63,27.67a.07.07,0,0,0,.09,0l45.12-77.65a.07.07,0,0,0,0-.09l-47.63-27.68A.07.07,0,0,0,865.58,549.92Z" transform="translate(-274.57 -386.72)"/><path class="cls-2" d="M871.71,624.92,845,609.41a.07.07,0,0,1,0-.09L863.19,578a.05.05,0,0,1,.08,0L890,593.5a.07.07,0,0,1,0,.09L871.8,624.9A.07.07,0,0,1,871.71,624.92Z" transform="translate(-274.57 -386.72)"/><path class="cls-3" d="M871.88,619.88c0,.12-1.68-.07-4-1.83a10.67,10.67,0,0,1-3.28-4.2,10,10,0,0,1-.29-7.16A8.72,8.72,0,0,1,871,601a7.76,7.76,0,0,1,2.59,0,5.87,5.87,0,0,1,2.57,1.12,4.88,4.88,0,0,1,1.8,2.45,3.62,3.62,0,0,1-.68,3.36,5.3,5.3,0,0,1-2.73,1.65,9.86,9.86,0,0,1-2.88.31,12.85,12.85,0,0,1-5.62-1.42,11.1,11.1,0,0,1-4.45-4.16,10.66,10.66,0,0,1-1.5-6.11,9.26,9.26,0,0,1,2.51-5.88,9.44,9.44,0,0,1,5.51-2.84,8.32,8.32,0,0,1,3.14.19,7,7,0,0,1,2.78,1.5,5.12,5.12,0,0,1,1.66,2.84,4.75,4.75,0,0,1-.57,3.21,5.78,5.78,0,0,1-2.11,2.14,7.54,7.54,0,0,1-2.59,1,11.81,11.81,0,0,1-5-.19,11.2,11.2,0,0,1-4.18-2,9.44,9.44,0,0,1-2.7-3.35,8.7,8.7,0,0,1-.27-7.19,7.39,7.39,0,0,1,3.85-3.8,6.26,6.26,0,0,1,3.34-.49c.76.12,1.11.34,1.09.41s-.41.06-1.11.1a7,7,0,0,0-2.88.87,6.53,6.53,0,0,0-3,3.44,7.29,7.29,0,0,0,.55,5.85,8.44,8.44,0,0,0,5.75,4.12,9.86,9.86,0,0,0,4.05,0,4.27,4.27,0,0,0,3.08-2,2.37,2.37,0,0,0-.65-3.09,4.63,4.63,0,0,0-1.8-.94,6,6,0,0,0-2.16-.09,7,7,0,0,0-4,2.11,6.75,6.75,0,0,0-1.8,4.28,8.4,8.4,0,0,0,1.14,4.68,8.69,8.69,0,0,0,3.44,3.23,10.61,10.61,0,0,0,4.52,1.2,7.67,7.67,0,0,0,2.19-.2,2.94,2.94,0,0,0,1.54-.83,1.3,1.3,0,0,0,.28-1.22,2.68,2.68,0,0,0-1-1.32,3.7,3.7,0,0,0-1.59-.75,5.87,5.87,0,0,0-1.87,0,6.83,6.83,0,0,0-3.32,1.47,6.72,6.72,0,0,0-2,2.75,8.73,8.73,0,0,0-.08,6,10.32,10.32,0,0,0,2.61,4C870.46,619.15,872,619.68,871.88,619.88Z" transform="translate(-274.57 -386.72)"/><path class="cls-3" d="M514.45,434s2,2.55,1.3,4.27-9.22,14.08-5.52,22.2,10.82,16.86,10.82,16.86l21-.83s9.7-16.73,9.27-22.16c-.71-9-7.67-18.11-7.67-18.11l1.56-3.44S525.49,427.9,514.45,434Z" transform="translate(-274.57 -386.72)"/><path class="cls-3" d="M581.24,388l1,11.7s-12.46,4-14.74,15.76-1.45,37.33-1.45,37.33l17.56,5.82s19.3-28.87,20.82-34.17-2.61-18-2.61-18l7.43-9.14S596.75,382.43,581.24,388Z" transform="translate(-274.57 -386.72)"/><path class="cls-3" d="M569.18,421.31c-2.38-4.18-5.34-9.39-5-15,.15-2.64,1.14-4.71,2.78-5.82a6.49,6.49,0,0,1,5.84-.47,16.7,16.7,0,0,1,4.5,2.82l-1.52,1.9a14.32,14.32,0,0,0-3.81-2.44,4.09,4.09,0,0,0-3.65.2c-1.35.91-1.65,2.87-1.72,3.95-.28,4.93,2.49,9.79,4.71,13.69Z" transform="translate(-274.57 -386.72)"/><path class="cls-3" d="M599.59,433l-1.2-2.11a29.12,29.12,0,0,0,7.66-6.32,12.28,12.28,0,0,0,2.33-3.64,5.31,5.31,0,0,0,.08-3.78,4.65,4.65,0,0,0-3.29-2.6,7,7,0,0,0-4.55.7l-1.09-2.17a9.37,9.37,0,0,1,6.16-.9,7.12,7.12,0,0,1,5,4,7.6,7.6,0,0,1-.05,5.55,14.58,14.58,0,0,1-2.76,4.38A31.48,31.48,0,0,1,599.59,433Z" transform="translate(-274.57 -386.72)"/><path class="cls-2" d="M609.22,397.33a17,17,0,0,1-4.37-.33,63.73,63.73,0,0,1-10.29-2.41,64.71,64.71,0,0,1-9.77-4,17,17,0,0,1-3.74-2.29,27.43,27.43,0,0,1,4,1.72,92.44,92.44,0,0,0,19.9,6.41A27.3,27.3,0,0,1,609.22,397.33Z" transform="translate(-274.57 -386.72)"/><circle class="cls-3" cx="497.9" cy="344.05" r="2.49"/><circle class="cls-3" cx="506.63" cy="353.4" r="2.49"/><circle class="cls-3" cx="493.21" cy="357.26" r="2.49"/><circle class="cls-3" cx="503.05" cy="365.66" r="2.49"/><path class="cls-3" d="M788.83,761.73a2.49,2.49,0,1,1-2.48-2.49A2.48,2.48,0,0,1,788.83,761.73Z" transform="translate(-274.57 -386.72)"/><circle class="cls-3" cx="498.36" cy="378.87" r="2.49"/><circle class="cls-3" cx="517.17" cy="328.79" r="2.49"/><circle class="cls-3" cx="525.9" cy="338.14" r="2.49"/><circle class="cls-3" cx="512.48" cy="342.01" r="2.49"/><circle class="cls-3" cx="522.32" cy="350.4" r="2.49"/><circle class="cls-3" cx="531.05" cy="359.75" r="2.49"/><circle class="cls-3" cx="517.63" cy="363.61" r="2.49"/><path class="cls-3" d="M802.24,760a2.49,2.49,0,1,1-2.48-2.48A2.48,2.48,0,0,1,802.24,760Z" transform="translate(-274.57 -386.72)"/><circle class="cls-3" cx="533.93" cy="382.67" r="2.49"/><path class="cls-3" d="M797.55,773.26a2.49,2.49,0,1,1-2.49-2.49A2.48,2.48,0,0,1,797.55,773.26Z" transform="translate(-274.57 -386.72)"/><path class="cls-3" d="M807.39,781.65a2.49,2.49,0,1,1-2.48-2.49A2.48,2.48,0,0,1,807.39,781.65Z" transform="translate(-274.57 -386.72)"/><circle class="cls-3" cx="539.08" cy="404.28" r="2.49"/><circle class="cls-3" cx="525.65" cy="408.14" r="2.49"/><circle class="cls-3" cx="544.46" cy="358.07" r="2.49"/><circle class="cls-3" cx="553.2" cy="367.42" r="2.49"/><circle class="cls-3" cx="539.77" cy="371.28" r="2.49"/><circle class="cls-3" cx="549.61" cy="379.67" r="2.49"/><circle class="cls-3" cx="558.35" cy="389.02" r="2.49"/><circle class="cls-3" cx="544.92" cy="392.88" r="2.49"/><path class="cls-3" d="M810.92,699.82a2.49,2.49,0,1,1-2.48-2.49A2.48,2.48,0,0,1,810.92,699.82Z" transform="translate(-274.57 -386.72)"/><circle class="cls-3" cx="542.6" cy="322.45" r="2.49"/><circle class="cls-3" cx="529.17" cy="326.31" r="2.49"/><path class="cls-3" d="M816.07,721.42a2.49,2.49,0,1,1-2.48-2.48A2.49,2.49,0,0,1,816.07,721.42Z" transform="translate(-274.57 -386.72)"/><circle class="cls-3" cx="547.75" cy="344.05" r="2.49"/><path class="cls-3" d="M811.38,734.63a2.49,2.49,0,1,1-2.49-2.48A2.49,2.49,0,0,1,811.38,734.63Z" transform="translate(-274.57 -386.72)"/><circle class="cls-3" cx="553.14" cy="297.84" r="2.49"/><circle class="cls-3" cx="561.87" cy="307.19" r="2.49"/><path class="cls-3" d="M825.5,697.77a2.49,2.49,0,1,1-2.49-2.48A2.5,2.5,0,0,1,825.5,697.77Z" transform="translate(-274.57 -386.72)"/><circle class="cls-3" cx="558.29" cy="319.44" r="2.49"/><circle class="cls-3" cx="567.02" cy="328.79" r="2.49"/><circle class="cls-3" cx="553.6" cy="332.66" r="2.49"/><circle class="cls-3" cx="561.16" cy="342.37" r="2.49"/><circle class="cls-3" cx="569.89" cy="351.72" r="2.49"/><circle class="cls-3" cx="556.47" cy="355.58" r="2.49"/><path class="cls-3" d="M843.36,750.69a2.49,2.49,0,1,1-2.48-2.48A2.48,2.48,0,0,1,843.36,750.69Z" transform="translate(-274.57 -386.72)"/><path class="cls-3" d="M852.1,760a2.49,2.49,0,1,1-2.49-2.48A2.49,2.49,0,0,1,852.1,760Z" transform="translate(-274.57 -386.72)"/><circle class="cls-3" cx="561.62" cy="377.18" r="2.49"/><circle class="cls-3" cx="580.43" cy="327.11" r="2.49"/><circle class="cls-3" cx="589.17" cy="336.46" r="2.49"/><circle class="cls-3" cx="575.74" cy="340.32" r="2.49"/><circle class="cls-3" cx="585.58" cy="348.71" r="2.49"/><path class="cls-3" d="M871.37,744.79a2.49,2.49,0,1,1-2.49-2.49A2.49,2.49,0,0,1,871.37,744.79Z" transform="translate(-274.57 -386.72)"/><circle class="cls-3" cx="580.89" cy="361.93" r="2.49"/><path class="cls-2" d="M650.09,744.48c3.62-4.53,6.06-2,15.49-6.92,5.13-2.69,7.84-9.37,6.93-15.09s-5.7-11-11.49-11.17c-3.74-.13-7.22,1.72-10.79,2.81s-8,1.22-10.48-1.58c-3.47-3.95-.64-10.48,1.41-14.65a12.59,12.59,0,0,0,1.37-5.53c0-8.59-8.79-9.05-13.73-5.58-3.76,2.65-6.07,6.83-8.91,10.44s-6.92,6.92-11.5,6.52c-4.93-.43-8.36-4.84-11.86-8.34s-9.12-6.41-13.13-3.52c-3,2.17-3.38,6.51-2.77,10.16s1.91,7.34,1.2,11c-.89,4.58-4.53,7.64-8.81,9.86a6.13,6.13,0,0,0,.46,11.09l.11,0c3.64,1.42,7.63,1.85,11.18,3.49s6.74,5.12,6.24,9c-.59,4.6-6,7.7-4.28,13a7.86,7.86,0,0,0,6.92,5.17c7,.55,11.87-4.29,17.17-7.88,4.28-2.9,9.91-5.08,14.52-2.73,5.2,2.65,6.53,9.68,11.14,13.25A10.6,10.6,0,0,0,650.6,751.5,4.79,4.79,0,0,1,650.09,744.48Z" transform="translate(-274.57 -386.72)"/><path class="cls-2" d="M298.73,647.83c-.79,5.73-4.19,4.79-9.75,13.87-3,4.94-1.93,12.06,1.78,16.51s10.52,6.51,15.59,3.71c3.27-1.81,5.31-5.17,7.82-7.95s6.25-5.15,9.81-4c5,1.6,5.92,8.67,6.3,13.3a12.73,12.73,0,0,0,1.65,5.45c4.42,7.36,12.19,3.27,14.66-2.25,1.87-4.2,1.7-9,2.3-13.53s2.4-9.48,6.53-11.49c4.45-2.15,9.66-.12,14.46,1.09s11.12.83,13.08-3.71c1.47-3.4-.44-7.32-2.83-10.14s-5.39-5.33-6.65-8.81c-1.58-4.38,0-8.87,2.51-13a6.11,6.11,0,0,0-6.07-9.28l-.12,0c-3.85.64-7.5,2.32-11.38,2.73s-8.42-.94-10-4.52c-1.85-4.26,1.25-9.72-3-13.34a7.86,7.86,0,0,0-8.59-.89c-6.28,3.1-8,9.76-10.71,15.56-2.19,4.68-5.91,9.44-11.07,9.79-5.82.38-10.56-5-16.35-5.68a10.61,10.61,0,0,0-4.07,20.76A4.79,4.79,0,0,1,298.73,647.83Z" transform="translate(-274.57 -386.72)"/><circle class="cls-2" cx="727.38" cy="770.26" r="12.37" transform="translate(-345.33 1080.21) rotate(-87.76)"/><path class="cls-4" d="M723.27,769.5a2,2,0,1,1,1.55-2.4A2,2,0,0,1,723.27,769.5Z" transform="translate(-274.57 -386.72)"/><path class="cls-4" d="M728.37,765.48a1.18,1.18,0,1,1,.9-1.39A1.18,1.18,0,0,1,728.37,765.48Z" transform="translate(-274.57 -386.72)"/><path class="cls-2" d="M721.93,759.16c-.2.1-12.41-8.17-14-5s6.32,13.25,16.15,21.2,21.14,14.72,23.12,11.78-8-13.37-8-13.37l-.61,1.63s6.22,6.27,4.9,9S733.76,782,725,774.17s-15.39-15.72-13.83-17.51,9.12,3.44,9.12,3.44Z" transform="translate(-274.57 -386.72)"/><path class="cls-4" d="M734.48,761.77c-.1.12-1-.55-2.57-1.18A11.38,11.38,0,0,0,719.63,763c-1.25,1.18-1.8,2.12-1.94,2s.26-1.14,1.45-2.52a10.78,10.78,0,0,1,2.44-2.06,11.21,11.21,0,0,1,3.66-1.44,11,11,0,0,1,3.92,0,10.36,10.36,0,0,1,3,1C733.82,760.81,734.55,761.69,734.48,761.77Z" transform="translate(-274.57 -386.72)"/><path class="cls-3" d="M441.78,424.57l-15.75,4-.76,4.81a9.85,9.85,0,0,0,0,3.82,3.08,3.08,0,0,0,2.21,2.38,13.12,13.12,0,0,0,4.58-.33l.31,1.21-14.83,3.8-.31-1.22a6.83,6.83,0,0,0,3.44-3c.75-1.35,1.45-3.91,2.09-7.7l6.85-39.64.62-.16L455.66,425q3.63,4.61,5.45,5.58a5.38,5.38,0,0,0,3.46.37l.31,1.22-21.56,5.51-.31-1.21.88-.23a6.91,6.91,0,0,0,3.47-1.66,1.8,1.8,0,0,0,.33-1.69,4.26,4.26,0,0,0-.5-1.17c-.1-.18-.64-.92-1.62-2.21ZM440,422.42l-10.57-13.65-2.91,17.1Z" transform="translate(-274.57 -386.72)"/><path class="cls-5" d="M847.53,636.06h0a3,3,0,0,1-3.68-2l-48.07-161,9.07-2.51,44.77,161.81A3,3,0,0,1,847.53,636.06Z" transform="translate(-274.57 -386.72)"/><path class="cls-3" d="M795.78,473.06c-.31-1.11-3.83-26-3.83-26l2.83-.78,10.07,24.26Z" transform="translate(-274.57 -386.72)"/><polyline class="cls-6" points="520.21 59.57 518.41 39.05 511.34 40.74 514.59 52.47 510.11 41.08 508.8 41.44 517.39 60.35 519.19 59.85"/><path class="cls-6" d="M737,454.05a4.69,4.69,0,0,0-1.79,3.81,40,40,0,0,0,.42,4.35,21.05,21.05,0,0,0,.44,4.13c.73,2.44,2.88,4.15,4.91,5.69a19.71,19.71,0,0,0,2.35-3.53,6.56,6.56,0,0,0,.62-4.12,23.76,23.76,0,0,0-1.26-3.17c-.5-1.33-.66-2.77-1.23-4.07a7.18,7.18,0,0,0-4.17-3.88" transform="translate(-274.57 -386.72)"/><path class="cls-7" d="M740.19,471.22c-.2,0,0-4.11-.81-9.07s-2.33-8.78-2.14-8.86a9.09,9.09,0,0,1,1.13,2.45A35.69,35.69,0,0,1,740,462a35.2,35.2,0,0,1,.46,6.5A9.24,9.24,0,0,1,740.19,471.22Z" transform="translate(-274.57 -386.72)"/><path class="cls-6" d="M737.94,454.15a4.65,4.65,0,0,0,3.72,2,35.45,35.45,0,0,0,4.36-.21,21.24,21.24,0,0,0,4.15-.23c2.48-.61,4.29-2.67,5.93-4.63a19.7,19.7,0,0,0-3.41-2.51,6.54,6.54,0,0,0-4.09-.83,22.24,22.24,0,0,0-3.22,1.1c-1.36.44-2.81.53-4.14,1a7.18,7.18,0,0,0-4.07,4" transform="translate(-274.57 -386.72)"/><path class="cls-7" d="M755.25,451.76c0,.2-4.11-.22-9.1.37s-8.89,1.89-8.95,1.7a8.83,8.83,0,0,1,2.5-1,35.73,35.73,0,0,1,12.88-1.48A9.1,9.1,0,0,1,755.25,451.76Z" transform="translate(-274.57 -386.72)"/><path class="cls-7" d="M736.54,453a4.69,4.69,0,0,0-.76-4.15,37.14,37.14,0,0,0-2.86-3.3,20.39,20.39,0,0,0-2.76-3.1c-2-1.57-4.75-1.72-7.3-1.79a19.93,19.93,0,0,0,.14,4.23,6.58,6.58,0,0,0,1.88,3.72,22.53,22.53,0,0,0,2.86,1.85c1.18.79,2.16,1.87,3.37,2.61a7.22,7.22,0,0,0,5.65.73" transform="translate(-274.57 -386.72)"/><path class="cls-7" d="M723.93,440.92c.17-.11,2.38,3.36,5.93,6.92s7,5.8,6.88,6a9.11,9.11,0,0,1-2.34-1.34,35.27,35.27,0,0,1-5-4.18,34.66,34.66,0,0,1-4.14-5A9.17,9.17,0,0,1,723.93,440.92Z" transform="translate(-274.57 -386.72)"/><path class="cls-6" d="M735.87,453.84a4.68,4.68,0,0,0-4.2.12,36.56,36.56,0,0,0-3.7,2.34,19.78,19.78,0,0,0-3.48,2.26c-1.86,1.75-2.41,4.44-2.87,6.95a20.61,20.61,0,0,0,4.21.5,6.52,6.52,0,0,0,4-1.31,21.94,21.94,0,0,0,2.25-2.55c1-1,2.18-1.84,3.09-2.94a7.16,7.16,0,0,0,1.57-5.47" transform="translate(-274.57 -386.72)"/><path class="cls-7" d="M722,464.48c-.08-.18,3.68-1.84,7.73-4.82s6.79-6,6.94-5.9a9.14,9.14,0,0,1-1.68,2.11,33.92,33.92,0,0,1-4.88,4.31,35.56,35.56,0,0,1-5.59,3.35A8.69,8.69,0,0,1,722,464.48Z" transform="translate(-274.57 -386.72)"/><path class="cls-7" d="M738.09,452.5a4.68,4.68,0,0,0,3.33-2.57,36.46,36.46,0,0,0,1.61-4.06,20.87,20.87,0,0,0,1.5-3.88c.46-2.51-.67-5-1.78-7.31a19.66,19.66,0,0,0-3.69,2.08,6.56,6.56,0,0,0-2.44,3.38,23.87,23.87,0,0,0-.32,3.39c-.16,1.41-.67,2.77-.77,4.19a7.23,7.23,0,0,0,2,5.36" transform="translate(-274.57 -386.72)"/><path class="cls-7" d="M743,435.74c.18.1-1.89,3.66-3.41,8.45s-1.94,8.87-2.14,8.85a9,9,0,0,1,.11-2.69A36,36,0,0,1,739,444a35.17,35.17,0,0,1,2.55-6A9.15,9.15,0,0,1,743,435.74Z" transform="translate(-274.57 -386.72)"/><path class="cls-8" d="M739,454.7a1.75,1.75,0,1,1-.38-2.45A1.76,1.76,0,0,1,739,454.7Z" transform="translate(-274.57 -386.72)"/><path class="cls-6" d="M509.27,720c-.63,2.66.63,5.46,2.44,7.51s4.11,3.59,6.15,5.42,3.65,3.78,5.9,5.09c4.13,2.42,9.26,2,14,1.5a36.41,36.41,0,0,0-1.32-7.84,12.26,12.26,0,0,0-4.43-6.45c-1.75-1.21-3.86-1.77-5.78-2.71-2.39-1.18-4.47-3-6.92-4a13.55,13.55,0,0,0-10.69,0" transform="translate(-274.57 -386.72)"/><path class="cls-7" d="M535.73,739.34c-.29.25-5.25-5.65-12.75-11.37s-14.45-9-14.28-9.38c.06-.14,1.89.5,4.69,1.9a66.62,66.62,0,0,1,19.29,14.81C534.76,737.65,535.85,739.25,535.73,739.34Z" transform="translate(-274.57 -386.72)"/><path class="cls-6" d="M510.75,718.87c2.63.76,5.48-.37,7.62-2.07s3.79-3.93,5.72-5.87,3.95-3.47,5.37-5.65c2.62-4,2.45-9.15,2.19-13.93a36.69,36.69,0,0,0-7.9.93,12.25,12.25,0,0,0-6.65,4.11c-1.3,1.69-2,3.78-3,5.64-1.3,2.33-3.16,4.32-4.34,6.71a13.5,13.5,0,0,0-.48,10.68" transform="translate(-274.57 -386.72)"/><path class="cls-7" d="M531.38,693.39c.24.3-5.91,5-12,12.18s-9.74,14-10.07,13.8c-.14-.07.59-1.86,2.12-4.59a67.21,67.21,0,0,1,7-10,66,66,0,0,1,8.73-8.54C529.64,694.28,531.29,693.27,531.38,693.39Z" transform="translate(-274.57 -386.72)"/><path class="cls-6" d="M507.39,719.13c-1-2.54-3.69-4.07-6.35-4.7s-5.44-.54-8.15-.85-5.17-1-7.76-.72c-4.77.43-8.7,3.75-12.29,6.92a36.42,36.42,0,0,0,5.62,5.62,12.36,12.36,0,0,0,7.35,2.68c2.13,0,4.18-.8,6.29-1.15,2.63-.43,5.34-.19,7.95-.75a13.52,13.52,0,0,0,8.68-6.24" transform="translate(-274.57 -386.72)"/><path class="cls-7" d="M474.6,718.72c.09-.37,7.56,1.56,17,1.86s17-1,17.07-.64c0,.15-1.83.69-4.92,1.17a66.26,66.26,0,0,1-24.31-.87C476.38,719.54,474.57,718.87,474.6,718.72Z" transform="translate(-274.57 -386.72)"/><path class="cls-6" d="M507.53,721.09c-2.66.64-4.58,3-5.61,5.57s-1.34,5.3-2.06,7.94-1.72,5-1.88,7.56c-.29,4.77,2.4,9.17,5,13.19a36.8,36.8,0,0,0,6.4-4.71,12.36,12.36,0,0,0,3.76-6.86c.29-2.12-.16-4.26-.19-6.39,0-2.67.62-5.32.46-8a13.5,13.5,0,0,0-4.87-9.52" transform="translate(-274.57 -386.72)"/><path class="cls-7" d="M502.19,753.44c-.35-.14,2.68-7.23,4.4-16.51s1.55-17,1.93-17c.15,0,.4,1.91.42,5a67,67,0,0,1-1.16,12.16,65.31,65.31,0,0,1-3.36,11.74C503.27,751.81,502.33,753.5,502.19,753.44Z" transform="translate(-274.57 -386.72)"/><path class="cls-6" d="M508.85,716.42c1.77-2.09,1.92-5.15,1.25-7.8s-2-5.08-3-7.63-1.53-5-2.93-7.22c-2.58-4-7.34-6-11.8-7.73a37.1,37.1,0,0,0-2.4,7.58,12.32,12.32,0,0,0,1,7.76c1,1.88,2.63,3.34,3.91,5,1.59,2.14,2.64,4.66,4.33,6.72a13.47,13.47,0,0,0,9.54,4.83" transform="translate(-274.57 -386.72)"/><path class="cls-7" d="M494.12,687.12c.37-.09,2.1,7.43,6.16,15.94s8.74,14.63,8.44,14.86c-.12.1-1.46-1.31-3.31-3.83a66.7,66.7,0,0,1-10.42-22C494.22,689.08,494,687.16,494.12,687.12Z" transform="translate(-274.57 -386.72)"/><path class="cls-8" d="M512.94,718.22a3.3,3.3,0,1,1-3.68-2.85A3.3,3.3,0,0,1,512.94,718.22Z" transform="translate(-274.57 -386.72)"/><rect class="cls-6" x="452.48" y="475.61" width="372.12" height="242.74" rx="28.83" transform="translate(-187.38 -468.07) rotate(7.82)"/><rect class="cls-2" x="492.7" y="495.71" width="310.98" height="205.35" transform="translate(-187.1 -469.37) rotate(7.82)"/><path class="cls-5" d="M788.69,721.84l-.49-.07L479.61,679.38l.07-.5,28-203.94.49.07L816.78,517.4l-.07.5Zm-308-43.32,307.1,42.19,27.81-202.45-307.1-42.19Z" transform="translate(-274.57 -386.72)"/><path class="cls-5" d="M835.74,520.51c0,.15-82.08-11-183.26-24.91s-183.24-25.29-183.22-25.43,82.07,11,183.29,24.91S835.76,520.37,835.74,520.51Z" transform="translate(-274.57 -386.72)"/><path class="cls-5" d="M807.8,724c0,.15-82.08-11-183.27-24.91S441.3,673.75,441.32,673.61s82.06,11,183.28,24.92S807.82,723.81,807.8,724Z" transform="translate(-274.57 -386.72)"/><path class="cls-5" d="M487.65,572.52a24.43,24.43,0,0,0-.07-3.31,13.45,13.45,0,0,0-3.88-7.92,13.3,13.3,0,0,0-12.21-3.56,12.2,12.2,0,0,0-3.56,1.33,12.62,12.62,0,0,0-3.16,2.41A13.18,13.18,0,0,0,462.64,577a13.35,13.35,0,0,0,5.46,5.42,13.38,13.38,0,0,0,18.59-6.72,23.15,23.15,0,0,0,1-3.17,5,5,0,0,1-.11.86,5.57,5.57,0,0,1-.22,1,9.28,9.28,0,0,1-.44,1.37A13.6,13.6,0,0,1,475,584.38a13.76,13.76,0,0,1-7.07-1.54,13.26,13.26,0,0,1-3.2-2.32,13.09,13.09,0,0,1-2.49-3.29,13.67,13.67,0,0,1,2.21-16.11,12.7,12.7,0,0,1,3.29-2.49,13,13,0,0,1,3.7-1.37,13.69,13.69,0,0,1,7.23.42,13.57,13.57,0,0,1,9.16,11.51,9,9,0,0,1,.06,1.43,6.32,6.32,0,0,1-.06,1A5.33,5.33,0,0,1,487.65,572.52Z" transform="translate(-274.57 -386.72)"/><path class="cls-5" d="M478.75,571.3c-.05,0,0-.41-.09-1.1a4.43,4.43,0,0,0-1.32-2.57,4.3,4.3,0,1,0-.94,6.83,4.53,4.53,0,0,0,2-2.12c.28-.65.33-1.05.38-1s0,.1,0,.29a3.16,3.16,0,0,1-.19.82,4.56,4.56,0,0,1-2,2.37,4.71,4.71,0,0,1-4.53.11,4.74,4.74,0,0,1,1.22-8.86,4.67,4.67,0,0,1,4.32,1.34,4.42,4.42,0,0,1,1.26,2.8,3.1,3.1,0,0,1,0,.85C478.8,571.2,478.77,571.3,478.75,571.3Z" transform="translate(-274.57 -386.72)"/><path class="cls-5" d="M486.56,565.07a19.58,19.58,0,0,1-4,2.09,19.86,19.86,0,0,1-4.2,1.61,19.32,19.32,0,0,1,4-2.09A19.83,19.83,0,0,1,486.56,565.07Z" transform="translate(-274.57 -386.72)"/><path class="cls-5" d="M479.52,542.84a9,9,0,0,0,1.71-.15,5.18,5.18,0,0,0,3.5-2.74,9.14,9.14,0,0,0,.68-3.11c.07-.58.18-1.2.21-1.79a5,5,0,0,0-2.84-4.68,6.06,6.06,0,0,0-2-.52l-2.24-.3a5,5,0,0,0-3.93,1.17,5.08,5.08,0,0,0-1.75,3.45c-.09.65-.18,1.29-.27,1.91a6.18,6.18,0,0,0-.09,1.75,5,5,0,0,0,3.39,4.27,13,13,0,0,0,2,.41,12.34,12.34,0,0,1,1.71.33,10,10,0,0,1-1.73-.13,11.81,11.81,0,0,1-2-.33,5.38,5.38,0,0,1-3.72-4.5,6.45,6.45,0,0,1,.07-1.86c.08-.63.16-1.26.25-1.92a5.5,5.5,0,0,1,6.23-5.07l2.23.31a6.51,6.51,0,0,1,2.19.57,5.5,5.5,0,0,1,2.79,3.18,5.44,5.44,0,0,1,.29,2c-.05.67-.16,1.24-.24,1.83a9.18,9.18,0,0,1-.78,3.22,5.33,5.33,0,0,1-3.79,2.77A3.74,3.74,0,0,1,479.52,542.84Z" transform="translate(-274.57 -386.72)"/><path class="cls-5" d="M482.29,522.69a10,10,0,0,0,1.7-.15,5.17,5.17,0,0,0,3.51-2.74,9.19,9.19,0,0,0,.68-3.11c.07-.58.18-1.2.21-1.79a4.93,4.93,0,0,0-.28-1.81,5.06,5.06,0,0,0-2.56-2.87,5.9,5.9,0,0,0-2-.52l-2.24-.3a5,5,0,0,0-3.93,1.16,5.13,5.13,0,0,0-1.75,3.45c-.09.66-.18,1.29-.27,1.91a5.89,5.89,0,0,0-.09,1.76,5,5,0,0,0,1.24,2.83,5.07,5.07,0,0,0,2.14,1.44,12.06,12.06,0,0,0,2,.4,11.64,11.64,0,0,1,1.71.34,9.73,9.73,0,0,1-1.74-.14,11.58,11.58,0,0,1-2-.32,5.38,5.38,0,0,1-3.72-4.5,6.91,6.91,0,0,1,.06-1.87c.09-.62.17-1.26.26-1.91a5.56,5.56,0,0,1,1.88-3.77,5.47,5.47,0,0,1,4.34-1.3l2.24.31a6.51,6.51,0,0,1,2.19.57,5.51,5.51,0,0,1,2.79,3.17,5.75,5.75,0,0,1,.29,2c-.05.66-.16,1.24-.24,1.83a9.58,9.58,0,0,1-.78,3.21,5.27,5.27,0,0,1-3.8,2.77A3.64,3.64,0,0,1,482.29,522.69Z" transform="translate(-274.57 -386.72)"/><path class="cls-5" d="M467.61,629.55a10,10,0,0,0,1.7-.15,5.2,5.2,0,0,0,3.51-2.74,9.19,9.19,0,0,0,.68-3.11c.07-.58.18-1.2.21-1.79a4.93,4.93,0,0,0-.28-1.81,5.06,5.06,0,0,0-2.56-2.87,5.9,5.9,0,0,0-2-.52l-2.24-.31a5,5,0,0,0-3.93,1.17,5.13,5.13,0,0,0-1.75,3.45c-.09.66-.18,1.29-.27,1.91a5.89,5.89,0,0,0-.09,1.76,5,5,0,0,0,1.24,2.83,5.07,5.07,0,0,0,2.14,1.44,12.06,12.06,0,0,0,2,.4,11.25,11.25,0,0,1,1.71.34,12.93,12.93,0,0,1-1.74-.14,11.58,11.58,0,0,1-2-.32,5.38,5.38,0,0,1-3.72-4.5,6.91,6.91,0,0,1,.06-1.87c.09-.62.17-1.26.26-1.91a5.56,5.56,0,0,1,1.88-3.77,5.47,5.47,0,0,1,4.34-1.3l2.24.31a6.51,6.51,0,0,1,2.19.57,5.51,5.51,0,0,1,2.79,3.17,5.75,5.75,0,0,1,.29,2c-.05.66-.16,1.24-.24,1.83a9.58,9.58,0,0,1-.78,3.21,5.27,5.27,0,0,1-3.8,2.77A3.64,3.64,0,0,1,467.61,629.55Z" transform="translate(-274.57 -386.72)"/><path class="cls-5" d="M470.38,609.4a10.93,10.93,0,0,0,1.7-.16,5.19,5.19,0,0,0,3.51-2.74,9.09,9.09,0,0,0,.68-3.11c.07-.57.18-1.2.21-1.78a5.15,5.15,0,0,0-.28-1.81,5,5,0,0,0-2.57-2.87,5.78,5.78,0,0,0-2-.52l-2.24-.31a5,5,0,0,0-3.93,1.17,5.08,5.08,0,0,0-1.75,3.45c-.09.65-.18,1.29-.27,1.91a6.25,6.25,0,0,0-.1,1.76,5.15,5.15,0,0,0,1.25,2.83,5.27,5.27,0,0,0,2.14,1.44,14.64,14.64,0,0,0,2,.4,10.18,10.18,0,0,1,1.71.34,12.83,12.83,0,0,1-1.74-.14,11.72,11.72,0,0,1-2-.33,5.32,5.32,0,0,1-2.32-1.46,5.43,5.43,0,0,1-1.41-3,6.89,6.89,0,0,1,.07-1.87c.08-.62.17-1.26.26-1.92a5.58,5.58,0,0,1,1.88-3.77,5.5,5.5,0,0,1,4.34-1.29l2.24.3a6.53,6.53,0,0,1,2.19.58,5.51,5.51,0,0,1,2.79,3.17,5.66,5.66,0,0,1,.29,2c-.05.67-.16,1.24-.24,1.83a9.64,9.64,0,0,1-.78,3.22,5.29,5.29,0,0,1-3.8,2.77A3.81,3.81,0,0,1,470.38,609.4Z" transform="translate(-274.57 -386.72)"/><path class="cls-3" d="M586.85,685.47a13.45,13.45,0,0,0-14.69-18.89,14.43,14.43,0,0,0-20.5-15.27,10,10,0,1,0-18.87,6.88,9.38,9.38,0,0,0-11.42,13.73c-7.09-4.38-17.95.92-18.85,9.2l91.72,12.56C593.76,692.37,592.28,686.46,586.85,685.47Z" transform="translate(-274.57 -386.72)"/><path class="cls-3" d="M752.37,708.63a13.44,13.44,0,0,0-14.68-18.89,14.44,14.44,0,0,0-20.51-15.27,10,10,0,1,0-18.87,6.88,9.38,9.38,0,0,0-11.42,13.73c-7.09-4.38-17.95.92-18.85,9.2l91.72,12.56C759.28,715.53,757.8,709.62,752.37,708.63Z" transform="translate(-274.57 -386.72)"/><path class="cls-4" d="M661.47,703.09a23.11,23.11,0,0,0,1.93-15.25,15.25,15.25,0,0,0-4.74-8.5,9.13,9.13,0,0,0-9.26-1.68,13.33,13.33,0,0,0-14.56-15.13,10.27,10.27,0,0,0-11.27-12.94c2.33-5-1.43-10.86-6.64-12.68l-1.78-.25s-11.21-1.85-12.63-1.77c-5.51.32-10.73,4.92-9.87,10.37a10.28,10.28,0,0,0-14.39,9.35,13.34,13.34,0,0,0-18.15,10.56,9.12,9.12,0,0,0-9.36-.93,15.18,15.18,0,0,0-6.89,6.87,23.05,23.05,0,0,0-2.33,15.2Z" transform="translate(-274.57 -386.72)"/><path class="cls-4" d="M719.63,711.23A23.05,23.05,0,0,0,721.56,696a15.13,15.13,0,0,0-4.74-8.5,9.13,9.13,0,0,0-9.26-1.68A13.33,13.33,0,0,0,693,670.67a10.29,10.29,0,0,0-11.27-12.95c2.32-5-1.44-10.86-6.64-12.67l-1.78-.25S662.1,643,660.68,643c-5.5.32-10.73,4.92-9.86,10.37a10.28,10.28,0,0,0-14.39,9.35,13.33,13.33,0,0,0-18.15,10.56,9.14,9.14,0,0,0-9.37-.93,15.18,15.18,0,0,0-6.89,6.87,23.11,23.11,0,0,0-2.33,15.2Z" transform="translate(-274.57 -386.72)"/><polygon class="cls-9" points="341.51 245.93 329.34 244.56 332.49 222.02 344.67 223.38 341.51 245.93"/><path class="cls-9" d="M618.88,617.5l-13.31-1.87a.87.87,0,0,1-.75-1h0a.89.89,0,0,1,1-.76l13.31,1.87a.87.87,0,0,1,.75,1h0A.89.89,0,0,1,618.88,617.5Z" transform="translate(-274.57 -386.72)"/><path class="cls-9" d="M618.39,621l-13.31-1.86a.88.88,0,0,1-.75-1h0a.88.88,0,0,1,1-.75l13.3,1.86a.89.89,0,0,1,.76,1h0A.89.89,0,0,1,618.39,621Z" transform="translate(-274.57 -386.72)"/><path class="cls-9" d="M617.9,624.53l-13.31-1.86a.89.89,0,0,1-.75-1h0a.87.87,0,0,1,1-.75l13.31,1.86a.89.89,0,0,1,.76,1h0A.89.89,0,0,1,617.9,624.53Z" transform="translate(-274.57 -386.72)"/><path class="cls-9" d="M617.41,628.05l-13.31-1.87a.88.88,0,0,1-.76-1h0a.89.89,0,0,1,1-.75l13.31,1.86a.89.89,0,0,1,.75,1h0A.88.88,0,0,1,617.41,628.05Z" transform="translate(-274.57 -386.72)"/><path class="cls-9" d="M616.91,631.56l-13.3-1.86a.89.89,0,0,1-.76-1h0a.89.89,0,0,1,1-.75l13.31,1.86a.88.88,0,0,1,.75,1h0A.88.88,0,0,1,616.91,631.56Z" transform="translate(-274.57 -386.72)"/><polygon class="cls-9" points="326.6 248.11 329.39 244.23 341.51 245.93 343.58 250.49 326.6 248.11"/><path class="cls-7" d="M619.4,615.78a67.61,67.61,0,0,1-6.94-.8c-3.82-.53-6.9-1-6.89-1.13s3.12.27,6.94.8S619.42,615.69,619.4,615.78Z" transform="translate(-274.57 -386.72)"/><path class="cls-7" d="M618.87,617.5c0,.09-3.09-.27-6.86-.8s-6.84-1-6.83-1.12,3.09.26,6.87.79A67.69,67.69,0,0,1,618.87,617.5Z" transform="translate(-274.57 -386.72)"/><path class="cls-7" d="M619,619.31c0,.09-3.15-.27-7-.81s-7-1-7-1.14,3.15.27,7,.81S619,619.22,619,619.31Z" transform="translate(-274.57 -386.72)"/><path class="cls-7" d="M618.08,621c0,.09-3-.25-6.66-.76s-6.62-1-6.6-1.1a66.55,66.55,0,0,1,6.65.77C615.13,620.39,618.09,620.88,618.08,621Z" transform="translate(-274.57 -386.72)"/><path class="cls-7" d="M618.31,622.84c0,.09-3.06-.27-6.81-.79a67.45,67.45,0,0,1-6.77-1.12c0-.09,3.06.27,6.81.79S618.32,622.74,618.31,622.84Z" transform="translate(-274.57 -386.72)"/><path class="cls-7" d="M618.24,624.58c0,.09-3.1-.27-6.9-.8s-6.87-1-6.86-1.13,3.11.27,6.91.8S618.26,624.49,618.24,624.58Z" transform="translate(-274.57 -386.72)"/><path class="cls-7" d="M617.61,626.29a63,63,0,0,1-6.51-.75,65,65,0,0,1-6.47-1.07,63.33,63.33,0,0,1,6.51.75C614.72,625.72,617.62,626.2,617.61,626.29Z" transform="translate(-274.57 -386.72)"/><path class="cls-7" d="M617.47,628.05a129.28,129.28,0,0,1-13-1.81,129.28,129.28,0,0,1,13,1.81Z" transform="translate(-274.57 -386.72)"/><path class="cls-7" d="M616.8,629.72a127.38,127.38,0,0,1-12.91-1.81,63.83,63.83,0,0,1,6.48.74A64.75,64.75,0,0,1,616.8,629.72Z" transform="translate(-274.57 -386.72)"/><path class="cls-7" d="M616.51,631.51A118.86,118.86,0,0,1,604,629.76a61.36,61.36,0,0,1,6.26.71A56.26,56.26,0,0,1,616.51,631.51Z" transform="translate(-274.57 -386.72)"/><polygon class="cls-9" points="399.65 254.06 387.48 252.7 390.63 230.15 402.8 231.52 399.65 254.06"/><path class="cls-9" d="M677,625.63l-13.31-1.86a.89.89,0,0,1-.75-1h0a.87.87,0,0,1,1-.75l13.31,1.86a.89.89,0,0,1,.76,1h0A.89.89,0,0,1,677,625.63Z" transform="translate(-274.57 -386.72)"/><path class="cls-9" d="M676.53,629.15l-13.31-1.86a.9.9,0,0,1-.76-1h0a.9.9,0,0,1,1-.76l13.31,1.87a.87.87,0,0,1,.75,1h0A.87.87,0,0,1,676.53,629.15Z" transform="translate(-274.57 -386.72)"/><path class="cls-9" d="M676,632.66l-13.3-1.86a.88.88,0,0,1-.76-1h0a.89.89,0,0,1,1-.75l13.31,1.86a.89.89,0,0,1,.75,1h0A.88.88,0,0,1,676,632.66Z" transform="translate(-274.57 -386.72)"/><path class="cls-9" d="M675.54,636.18l-13.31-1.86a.89.89,0,0,1-.75-1h0a.88.88,0,0,1,1-.75l13.31,1.86a.88.88,0,0,1,.75,1h0A.88.88,0,0,1,675.54,636.18Z" transform="translate(-274.57 -386.72)"/><path class="cls-9" d="M675.05,639.7l-13.31-1.87a.87.87,0,0,1-.75-1h0a.88.88,0,0,1,1-.76l13.3,1.86a.89.89,0,0,1,.76,1h0A.9.9,0,0,1,675.05,639.7Z" transform="translate(-274.57 -386.72)"/><polygon class="cls-9" points="384.73 256.25 387.52 252.37 399.65 254.06 401.72 258.63 384.73 256.25"/><path class="cls-7" d="M677.54,623.92c0,.09-3.12-.27-6.94-.8s-6.91-1-6.89-1.14,3.12.27,6.94.81S677.55,623.83,677.54,623.92Z" transform="translate(-274.57 -386.72)"/><path class="cls-7" d="M677,625.63c0,.09-3.09-.26-6.87-.79a67.69,67.69,0,0,1-6.82-1.13c0-.09,3.09.27,6.87.8S677,625.54,677,625.63Z" transform="translate(-274.57 -386.72)"/><path class="cls-7" d="M677.14,627.45c0,.09-3.15-.28-7-.82s-7-1-7-1.14,3.15.28,7,.82S677.15,627.36,677.14,627.45Z" transform="translate(-274.57 -386.72)"/><path class="cls-7" d="M676.21,629.1c0,.09-3-.25-6.65-.76s-6.62-1-6.61-1.09,3,.25,6.66.76A66.72,66.72,0,0,1,676.21,629.1Z" transform="translate(-274.57 -386.72)"/><path class="cls-7" d="M676.45,631c0,.09-3.07-.26-6.82-.79s-6.78-1-6.77-1.11,3.07.26,6.82.79S676.46,630.88,676.45,631Z" transform="translate(-274.57 -386.72)"/><path class="cls-7" d="M676.38,632.71c0,.09-3.1-.26-6.9-.8s-6.87-1-6.86-1.12,3.1.26,6.9.8S676.39,632.62,676.38,632.71Z" transform="translate(-274.57 -386.72)"/><path class="cls-7" d="M675.74,634.42a128.55,128.55,0,0,1-13-1.81,128.55,128.55,0,0,1,13,1.81Z" transform="translate(-274.57 -386.72)"/><path class="cls-7" d="M675.6,636.19a63.65,63.65,0,0,1-6.51-.75,65.11,65.11,0,0,1-6.46-1.07,63.33,63.33,0,0,1,6.51.75A64.46,64.46,0,0,1,675.6,636.19Z" transform="translate(-274.57 -386.72)"/><path class="cls-7" d="M674.93,637.85a64.14,64.14,0,0,1-6.47-.74c-3.56-.5-6.44-1-6.43-1.06s2.91.24,6.48.73A63.55,63.55,0,0,1,674.93,637.85Z" transform="translate(-274.57 -386.72)"/><path class="cls-7" d="M674.65,639.64a61.05,61.05,0,0,1-6.26-.71,59.15,59.15,0,0,1-6.22-1,61.05,61.05,0,0,1,6.26.71A59.15,59.15,0,0,1,674.65,639.64Z" transform="translate(-274.57 -386.72)"/><path class="cls-9" d="M642.77,474.15,627.32,586l-14.16-2,15.58-111.35a22.64,22.64,0,0,1,1.63-5.81l8.9-20.71c.35-.81,1.34-.66,1.41.9l2.19,21.7A23.05,23.05,0,0,1,642.77,474.15Z" transform="translate(-274.57 -386.72)"/><path class="cls-7" d="M638.64,501.67c0,.09-3-.26-6.78-.78a67.09,67.09,0,0,1-6.74-1.12c0-.09,3,.26,6.78.79S638.65,501.58,638.64,501.67Z" transform="translate(-274.57 -386.72)"/><path class="cls-7" d="M628.79,497.3c-.1,0-.11-.43,0-.92s.2-.89.29-.87.1.42,0,.92S628.88,497.31,628.79,497.3Z" transform="translate(-274.57 -386.72)"/><path class="cls-7" d="M630.19,497.33c-.09,0-.12-.35-.06-.76s.18-.72.27-.71.12.35.06.76S630.28,497.34,630.19,497.33Z" transform="translate(-274.57 -386.72)"/><path class="cls-7" d="M634,537.82c0,.09-3.14-.27-7-.81s-6.95-1-6.93-1.13,3.13.27,7,.81S634,537.73,634,537.82Z" transform="translate(-274.57 -386.72)"/><path class="cls-7" d="M622.8,540.53c-.09,0-.11-.42,0-.92s.2-.9.3-.89.1.43,0,.93S622.89,540.55,622.8,540.53Z" transform="translate(-274.57 -386.72)"/><path class="cls-7" d="M623.85,540.85c-.09,0-.11-.45,0-1s.2-.94.29-.92.11.44,0,1S623.94,540.86,623.85,540.85Z" transform="translate(-274.57 -386.72)"/><path class="cls-7" d="M624.51,572.08a35.68,35.68,0,0,1-4.79-.51,35.29,35.29,0,0,1-4.75-.83,34.61,34.61,0,0,1,4.79.5A32.6,32.6,0,0,1,624.51,572.08Z" transform="translate(-274.57 -386.72)"/><path class="cls-7" d="M642.77,472.66c0,.09-3.07-.26-6.82-.79s-6.8-1-6.78-1.11,3.06.26,6.82.78S642.78,472.57,642.77,472.66Z" transform="translate(-274.57 -386.72)"/><path class="cls-7" d="M630.35,471.79s.17,0,.23.17a.35.35,0,0,1-.07.34.38.38,0,0,1-.45.08.38.38,0,0,1-.24-.38.4.4,0,0,1,.21-.29c.19-.08.3,0,.27.06s-.09.06-.14.14,0,.13,0,.17.12,0,.15-.09S630.33,471.84,630.35,471.79Z" transform="translate(-274.57 -386.72)"/><path class="cls-7" d="M635.93,472.58c0-.05.17,0,.23.16a.35.35,0,0,1-.07.34.38.38,0,0,1-.45.08.37.37,0,0,1,0-.67c.19-.08.3,0,.28.06s-.1.06-.15.14,0,.13,0,.17.12,0,.15-.09S635.91,472.62,635.93,472.58Z" transform="translate(-274.57 -386.72)"/><path class="cls-7" d="M641.52,473.36c0-.05.16,0,.22.16a.35.35,0,0,1-.07.34.39.39,0,0,1-.45.09.38.38,0,0,1-.23-.39.37.37,0,0,1,.2-.29c.19-.08.3,0,.28.07s-.1.06-.14.13-.05.13,0,.17.12,0,.15-.09S641.5,473.4,641.52,473.36Z" transform="translate(-274.57 -386.72)"/><path class="cls-7" d="M626.24,501.18c0-.05.17,0,.23.16a.38.38,0,0,1-.07.34.38.38,0,0,1-.45.08.36.36,0,0,1,0-.67c.19-.08.3,0,.27.06s-.09.06-.14.14,0,.13,0,.17.12,0,.16-.09S626.22,501.22,626.24,501.18Z" transform="translate(-274.57 -386.72)"/><path class="cls-7" d="M631.82,502s.17,0,.23.16a.35.35,0,0,1-.07.34.38.38,0,0,1-.45.08.39.39,0,0,1-.24-.38.4.4,0,0,1,.21-.29c.19-.08.3,0,.27.06s-.09.06-.14.14,0,.13,0,.17.12,0,.15-.09S631.8,502,631.82,502Z" transform="translate(-274.57 -386.72)"/><path class="cls-7" d="M637.4,502.74c0-.05.17,0,.23.16a.35.35,0,0,1-.07.34.39.39,0,0,1-.45.09.38.38,0,0,1-.23-.39.37.37,0,0,1,.2-.29c.19-.08.3,0,.28.07s-.1.06-.15.13,0,.13,0,.17.12,0,.15-.09S637.39,502.78,637.4,502.74Z" transform="translate(-274.57 -386.72)"/><path class="cls-7" d="M621.73,533.41s.16,0,.23.16a.36.36,0,0,1-.52.43.39.39,0,0,1-.24-.39.34.34,0,0,1,.21-.28c.19-.09.3,0,.27.06s-.09.06-.14.13,0,.13,0,.17.12,0,.16-.09S621.71,533.45,621.73,533.41Z" transform="translate(-274.57 -386.72)"/><path class="cls-7" d="M627.31,534.19s.17,0,.23.16a.37.37,0,0,1-.07.35.4.4,0,0,1-.45.08.41.41,0,0,1-.24-.39.38.38,0,0,1,.21-.28c.19-.08.3,0,.27.06s-.09.06-.14.13,0,.13,0,.18.12,0,.15-.09S627.29,534.23,627.31,534.19Z" transform="translate(-274.57 -386.72)"/><path class="cls-7" d="M632.89,535s.17,0,.23.16a.37.37,0,0,1-.07.35.4.4,0,0,1-.45.08.38.38,0,0,1-.23-.39.37.37,0,0,1,.2-.28c.19-.08.3,0,.28.06s-.1.06-.15.13,0,.14,0,.18.12,0,.15-.09S632.87,535,632.89,535Z" transform="translate(-274.57 -386.72)"/><path class="cls-7" d="M616.81,568.55s.17,0,.23.17a.35.35,0,0,1-.07.34.4.4,0,0,1-.45.08.38.38,0,0,1-.23-.39.37.37,0,0,1,.2-.28c.19-.08.3,0,.27.06s-.09.06-.14.13,0,.14,0,.18.12,0,.15-.09S616.79,568.59,616.81,568.55Z" transform="translate(-274.57 -386.72)"/><path class="cls-7" d="M622.4,569.33s.16,0,.22.17a.35.35,0,0,1-.07.34.39.39,0,0,1-.45.08.38.38,0,0,1-.23-.39.37.37,0,0,1,.2-.28c.19-.08.3,0,.28.06s-.1.06-.15.14,0,.13,0,.17.12,0,.15-.09S622.38,569.38,622.4,569.33Z" transform="translate(-274.57 -386.72)"/><path class="cls-9" d="M681,479.5,665.13,591.31l14.15,2L694.86,482a23,23,0,0,0,0-6L692,453.55c-.11-.88-1.11-1-1.6.48l-8.06,20.27A22.67,22.67,0,0,0,681,479.5Z" transform="translate(-274.57 -386.72)"/><path class="cls-7" d="M677.4,507.09c0-.09,3.05.26,6.78.78s6.75,1,6.74,1.11-3-.26-6.79-.78S677.38,507.18,677.4,507.09Z" transform="translate(-274.57 -386.72)"/><path class="cls-7" d="M688.07,505.59c-.09,0-.11-.42,0-.92s.2-.88.29-.87.11.43,0,.92S688.16,505.61,688.07,505.59Z" transform="translate(-274.57 -386.72)"/><path class="cls-7" d="M686.71,505.24c-.09,0-.12-.35-.06-.76s.17-.72.26-.71.12.35.07.76S686.8,505.25,686.71,505.24Z" transform="translate(-274.57 -386.72)"/><path class="cls-7" d="M671.93,543.13c0-.09,3.13.27,7,.81s7,1,6.94,1.13-3.14-.27-7-.8S671.91,543.22,671.93,543.13Z" transform="translate(-274.57 -386.72)"/><path class="cls-7" d="M682,548.81c-.09,0-.11-.43,0-.93s.2-.89.29-.88.11.43,0,.93S682.05,548.82,682,548.81Z" transform="translate(-274.57 -386.72)"/><path class="cls-7" d="M680.86,548.83c-.09,0-.1-.45,0-1s.21-.94.3-.93.1.45,0,1S681,548.84,680.86,548.83Z" transform="translate(-274.57 -386.72)"/><path class="cls-7" d="M671.65,578.67a35.74,35.74,0,0,1,4.8.51,33.85,33.85,0,0,1,4.75.83,35.89,35.89,0,0,1-4.8-.51A34.21,34.21,0,0,1,671.65,578.67Z" transform="translate(-274.57 -386.72)"/><path class="cls-7" d="M681.38,478.06c0-.09,3.07.26,6.83.79s6.79,1,6.78,1.12-3.07-.27-6.83-.79S681.37,478.15,681.38,478.06Z" transform="translate(-274.57 -386.72)"/><path class="cls-7" d="M693.56,480.64c0,.05,0,.1,0,.19s0,.13.12.13.1-.06.08-.16-.1-.12-.1-.17.12-.11.28,0a.36.36,0,0,1,.12.33.39.39,0,0,1-.34.31.39.39,0,0,1-.4-.21.35.35,0,0,1,0-.35C693.41,480.56,693.57,480.6,693.56,480.64Z" transform="translate(-274.57 -386.72)"/><path class="cls-7" d="M688,479.86s0,.1-.05.19,0,.13.12.13.11-.06.08-.16-.09-.12-.1-.17.13-.11.28,0a.34.34,0,0,1,.12.33.36.36,0,0,1-.33.3.39.39,0,0,1-.41-.2.38.38,0,0,1,0-.35C687.83,479.78,688,479.82,688,479.86Z" transform="translate(-274.57 -386.72)"/><path class="cls-7" d="M682.4,479.08s0,.1,0,.19,0,.13.12.12.11-.05.08-.15-.09-.12-.1-.17.12-.11.28,0a.36.36,0,0,1,.12.33.37.37,0,0,1-.33.3.38.38,0,0,1-.41-.2.38.38,0,0,1,0-.35C682.25,479,682.4,479,682.4,479.08Z" transform="translate(-274.57 -386.72)"/><path class="cls-7" d="M689.45,510c0,.05,0,.1-.05.19s0,.14.13.13.1-.06.08-.16-.1-.12-.1-.17.12-.11.28,0a.36.36,0,0,1,.12.33.41.41,0,0,1-.34.31.39.39,0,0,1-.4-.21.35.35,0,0,1,0-.35C689.3,509.94,689.46,510,689.45,510Z" transform="translate(-274.57 -386.72)"/><path class="cls-7" d="M683.87,509.24s0,.1,0,.19,0,.13.12.13.11-.06.08-.16-.09-.12-.1-.17.13-.11.28,0a.34.34,0,0,1,.12.33.36.36,0,0,1-.33.3.39.39,0,0,1-.41-.2.38.38,0,0,1,0-.35C683.72,509.16,683.87,509.2,683.87,509.24Z" transform="translate(-274.57 -386.72)"/><path class="cls-7" d="M678.29,508.46s0,.1,0,.19,0,.13.12.12.11,0,.08-.15-.09-.12-.1-.17.12-.11.28,0a.36.36,0,0,1,.12.33.37.37,0,0,1-.33.3.38.38,0,0,1-.41-.2.41.41,0,0,1,0-.35C678.14,508.38,678.29,508.41,678.29,508.46Z" transform="translate(-274.57 -386.72)"/><path class="cls-7" d="M684.94,542.25s0,.1-.05.19,0,.14.13.13.1-.05.08-.16-.1-.12-.1-.16.12-.12.28,0a.42.42,0,0,1,.12.33.41.41,0,0,1-.34.31.37.37,0,0,1-.4-.2.35.35,0,0,1,0-.35C684.79,542.18,685,542.21,684.94,542.25Z" transform="translate(-274.57 -386.72)"/><path class="cls-7" d="M679.36,541.47s-.05.1-.05.19,0,.14.12.13.11-.06.08-.16-.09-.12-.1-.16.13-.12.28,0a.35.35,0,0,1,.12.33.4.4,0,0,1-.74.11.37.37,0,0,1,0-.35C679.21,541.4,679.36,541.43,679.36,541.47Z" transform="translate(-274.57 -386.72)"/><path class="cls-7" d="M673.78,540.69s0,.1,0,.19,0,.14.12.13.11-.06.08-.16-.09-.12-.1-.16.12-.12.28,0a.36.36,0,0,1,.12.33.39.39,0,0,1-.33.31.41.41,0,0,1-.41-.2.41.41,0,0,1,0-.35C673.63,540.62,673.78,540.65,673.78,540.69Z" transform="translate(-274.57 -386.72)"/><path class="cls-7" d="M680,577.4s0,.1,0,.19,0,.13.12.12.1-.05.08-.15-.1-.12-.1-.17.12-.11.28,0a.36.36,0,0,1,.12.33.4.4,0,0,1-.74.1.35.35,0,0,1,0-.35C679.88,577.32,680,577.35,680,577.4Z" transform="translate(-274.57 -386.72)"/><path class="cls-7" d="M674.44,576.62s0,.1-.05.18,0,.14.13.13.1,0,.08-.15-.1-.12-.1-.17.12-.12.28,0a.35.35,0,0,1,.12.32.39.39,0,0,1-.34.31.37.37,0,0,1-.4-.2.35.35,0,0,1,0-.35C674.29,576.54,674.45,576.57,674.44,576.62Z" transform="translate(-274.57 -386.72)"/><path class="cls-6" d="M671.36,407.05s-19.66,17.38-22.68,35.69c-2.94,17.8-9.43,67.26-9.43,67.26l-8.42,60.18L665.52,575l15.31-109.37,1.88-13.48a90.3,90.3,0,0,0-.89-18.9C680.36,422.66,671.36,407.05,671.36,407.05Z" transform="translate(-274.57 -386.72)"/><path class="cls-7" d="M681.18,463.19c0,.09-7.83-.93-17.46-2.27s-17.42-2.52-17.41-2.61,7.83.93,17.46,2.28S681.19,463.1,681.18,463.19Z" transform="translate(-274.57 -386.72)"/><path class="cls-7" d="M643.68,492.67a.12.12,0,0,1,0,.07v0h0v0h0v.1h-.06c.11-1.31,1-8.43,2.24-17,.69-4.75,1.31-9,1.76-12.21.24-1.52.43-2.77.57-3.69l.17-1c0-.23.07-.35.09-.35a2,2,0,0,1,0,.36c0,.26-.07.6-.11,1-.12.92-.27,2.17-.47,3.7-.43,3.17-1,7.47-1.66,12.22-1.2,8.58-2.25,15.69-2.51,17h-.06l0-.07v0h.05v0h0c-.07,0,0,0,0,0h0v0S643.67,492.67,643.68,492.67Z" transform="translate(-274.57 -386.72)"/><path class="cls-7" d="M646.14,493.22c-.09,0,.91-7.7,2.23-17.15S650.84,459,650.93,459s-.9,7.69-2.23,17.15S646.23,493.23,646.14,493.22Z" transform="translate(-274.57 -386.72)"/><path class="cls-7" d="M648.7,493.58c-.09,0,.89-7.7,2.2-17.16s2.43-17.13,2.52-17.11-.89,7.69-2.19,17.15S648.79,493.59,648.7,493.58Z" transform="translate(-274.57 -386.72)"/><path class="cls-7" d="M651.12,493.91c-.09,0,.91-7.69,2.23-17.15s2.47-17.12,2.56-17.1-.9,7.69-2.23,17.15S651.21,493.93,651.12,493.91Z" transform="translate(-274.57 -386.72)"/><path class="cls-7" d="M653.5,495.06c-.09,0,.93-7.87,2.29-17.55S658.31,460,658.4,460s-.93,7.87-2.28,17.56S653.59,495.07,653.5,495.06Z" transform="translate(-274.57 -386.72)"/><path class="cls-7" d="M656,495.41c-.09,0,.93-7.87,2.29-17.55s2.52-17.52,2.61-17.51-.93,7.87-2.28,17.55S656.08,495.42,656,495.41Z" transform="translate(-274.57 -386.72)"/><path class="cls-7" d="M658.48,495.76c-.09,0,.93-7.87,2.29-17.55s2.52-17.52,2.61-17.51-.93,7.87-2.28,17.55S658.57,495.77,658.48,495.76Z" transform="translate(-274.57 -386.72)"/><path class="cls-7" d="M661,496.1c-.09,0,.93-7.87,2.29-17.55s2.52-17.51,2.61-17.5-.93,7.87-2.28,17.55S661.06,496.12,661,496.1Z" transform="translate(-274.57 -386.72)"/><path class="cls-7" d="M663.46,496.45c-.09,0,.93-7.87,2.29-17.55s2.52-17.52,2.61-17.5-.93,7.87-2.28,17.55S663.55,496.47,663.46,496.45Z" transform="translate(-274.57 -386.72)"/><path class="cls-7" d="M666.18,496c-.09,0,.88-7.69,2.17-17.16s2.41-17.13,2.5-17.11-.88,7.69-2.17,17.16S666.27,496,666.18,496Z" transform="translate(-274.57 -386.72)"/><path class="cls-7" d="M668.55,496.35a1.33,1.33,0,0,1,0-.35c0-.27.07-.6.11-1,.12-.92.27-2.16.46-3.68.43-3.14,1-7.41,1.65-12.12s1.29-9,1.74-12.11c.24-1.51.43-2.75.57-3.66.07-.4.13-.73.17-1a1.5,1.5,0,0,1,.08-.35,1.43,1.43,0,0,1,0,.36c0,.26-.07.59-.11,1-.12.91-.27,2.16-.46,3.68-.43,3.14-1,7.4-1.65,12.12s-1.29,9-1.74,12.1c-.24,1.51-.43,2.75-.57,3.67-.07.4-.12.73-.17,1A1.31,1.31,0,0,1,668.55,496.35Z" transform="translate(-274.57 -386.72)"/><path class="cls-7" d="M671,496.7c-.09,0,.91-7.69,2.23-17.15s2.47-17.12,2.56-17.11-.91,7.69-2.23,17.16S671.13,496.71,671,496.7Z" transform="translate(-274.57 -386.72)"/><path class="cls-7" d="M673.53,497.05c-.09,0,.91-7.69,2.23-17.15s2.47-17.12,2.56-17.11-.91,7.69-2.23,17.15S673.62,497.06,673.53,497.05Z" transform="translate(-274.57 -386.72)"/><path class="cls-7" d="M676,497.4c-.09,0,.91-7.69,2.23-17.15s2.47-17.12,2.56-17.11-.91,7.69-2.23,17.15S676.11,497.41,676,497.4Z" transform="translate(-274.57 -386.72)"/><path class="cls-7" d="M676.38,497.45c0,.09-7.8-.92-17.39-2.27s-17.35-2.5-17.34-2.59,7.8.92,17.39,2.26S676.39,497.36,676.38,497.45Z" transform="translate(-274.57 -386.72)"/><path class="cls-1" d="M689,605.13c-.43-1.41-23.25-32.86-23.25-33.59l2.14-59.86c-.12-2-4.28-26.76-4.28-26.76s-.85-2.35-2.8-2.5a3.1,3.1,0,0,0-3,1.43c-.45.46-10.8,20.84-11.42,22.46s-13.41,59.32-13.41,59.32-30.12,23.47-31.89,24.81c-1.2.9-4,16.75-4,16.75l32,6.43,25.5,3.44,33.56,2S689.46,606.53,689,605.13Z" transform="translate(-274.57 -386.72)"/><path class="cls-7" d="M688.68,619.63l-34-2.07-25.53-3.44-32.53-6.54.09-.48c.66-3.76,2.93-16.12,4.19-17.06,1.68-1.27,29.49-22.94,31.74-24.7.92-4.13,12.77-57.6,13.39-59.21.46-1.19,10.92-22,11.54-22.63l.2-.23a3.32,3.32,0,0,1,3.15-1.34c2.25.16,3.2,2.71,3.24,2.82.2,1.1,4.19,24.91,4.31,26.9l-2.14,59.81c.51,1,6,8.78,10.9,15.66,7.52,10.62,12.1,17.12,12.33,17.86h0c.44,1.46-.67,12.87-.8,14.17ZM597.74,606.8l31.53,6.33,25.47,3.44,33,2c.47-4.84,1.07-12.34.79-13.29s-6.9-10.12-12.19-17.58c-10.06-14.2-11.08-15.74-11.08-16.16l2.14-59.87c-.11-1.89-4.22-26.34-4.27-26.67h0s-.78-2-2.35-2.08a2.39,2.39,0,0,0-2.32,1l-.25.28c-.62.83-10.68,20.65-11.32,22.29-.48,1.26-9,39.3-13.38,59.25l0,.17-.14.11c-.3.24-30.15,23.49-31.9,24.82C600.79,591.51,599.06,599.39,597.74,606.8Z" transform="translate(-274.57 -386.72)"/><path class="cls-1" d="M668,511c-.52-4.2-4.22-26.2-4.22-26.2s-.85-2.35-2.8-2.5a3.1,3.1,0,0,0-3,1.43c-.46.46-10.81,20.84-11.43,22.46-.06.15-.21.76-.45,1.75Z" transform="translate(-274.57 -386.72)"/><path class="cls-1" d="M629.63,617.34l2-16.35,2.78-5.85,6.83-49.61,4.9-37.64L668,511,655.4,598.13l1.4,6.08-3.4,24.31L642,626.92l3.32-25.06a1.17,1.17,0,0,0-1-1.3h0a1.15,1.15,0,0,0-1.31,1l-3.45,25-10.88-1.53Z" transform="translate(-274.57 -386.72)"/><path class="cls-9" d="M626.66,595.79a4.4,4.4,0,1,1-3.74-5A4.4,4.4,0,0,1,626.66,595.79Z" transform="translate(-274.57 -386.72)"/><path class="cls-7" d="M655.13,520.67c.09,0-2.33,17.87-5.41,39.87s-5.65,39.83-5.74,39.82,2.33-17.86,5.41-39.87S655,520.66,655.13,520.67Z" transform="translate(-274.57 -386.72)"/><rect class="cls-9" x="653.98" y="514.03" width="1.56" height="2.74" transform="translate(-196.83 -472.48) rotate(7.97)"/><rect class="cls-9" x="657.43" y="514.52" width="1.56" height="2.74" transform="translate(-196.73 -472.95) rotate(7.96)"/><path class="cls-7" d="M651.12,506.4l1.71,2.38,8.54,1.2,2.28-1.73a9.25,9.25,0,0,0-6-3A10.88,10.88,0,0,0,651.12,506.4Z" transform="translate(-274.57 -386.72)"/><path class="cls-7" d="M666.49,521.44c0,.09-4.88-.51-10.88-1.35s-10.84-1.59-10.83-1.68,4.88.51,10.88,1.35S666.51,521.35,666.49,521.44Z" transform="translate(-274.57 -386.72)"/><path class="cls-7" d="M666.2,499c0,.09-3.31-.29-7.36-.86s-7.32-1.1-7.31-1.19,3.31.29,7.36.86S666.21,498.88,666.2,499Z" transform="translate(-274.57 -386.72)"/><path class="cls-7" d="M646.38,520.51s-.1.08-.14.18,0,.2.09.22.18,0,.18-.17-.08-.17-.06-.22.17-.06.28.14a.41.41,0,0,1,0,.39.44.44,0,0,1-.46.19.42.42,0,0,1-.35-.35.39.39,0,0,1,.15-.36C646.24,520.39,646.4,520.47,646.38,520.51Z" transform="translate(-274.57 -386.72)"/><path class="cls-7" d="M648.56,520.81c0,.05-.09.08-.14.18s0,.2.1.23.17-.05.17-.17-.07-.18-.06-.22.17-.06.28.13a.41.41,0,0,1,0,.39.43.43,0,1,1-.66-.52C648.43,520.69,648.58,520.78,648.56,520.81Z" transform="translate(-274.57 -386.72)"/><path class="cls-7" d="M650.93,521.15s-.09.07-.14.17,0,.2.09.23.18,0,.18-.17-.07-.17-.06-.22.17-.06.28.14a.39.39,0,0,1,0,.38.43.43,0,0,1-.46.2.44.44,0,0,1-.35-.36.41.41,0,0,1,.15-.36C650.8,521,651,521.11,650.93,521.15Z" transform="translate(-274.57 -386.72)"/><path class="cls-7" d="M653.3,521.48s-.1.07-.14.17,0,.2.09.23.18,0,.18-.17-.08-.17-.06-.22.17-.06.28.14a.39.39,0,0,1,0,.38.41.41,0,0,1-.45.2.42.42,0,0,1-.35-.36.4.4,0,0,1,.14-.35C653.16,521.36,653.31,521.44,653.3,521.48Z" transform="translate(-274.57 -386.72)"/><path class="cls-7" d="M658,579.59c0,.09-4.76-.5-10.61-1.32s-10.58-1.56-10.57-1.65,4.77.5,10.62,1.32S658,579.5,658,579.59Z" transform="translate(-274.57 -386.72)"/><path class="cls-7" d="M663.47,542c0,.09-4.81-.51-10.71-1.34s-10.68-1.56-10.67-1.66,4.81.51,10.71,1.34S663.48,541.94,663.47,542Z" transform="translate(-274.57 -386.72)"/><path class="cls-7" d="M660.64,562.28c0,.09-4.76-.5-10.59-1.31s-10.55-1.55-10.54-1.64,4.76.49,10.59,1.31S660.65,562.19,660.64,562.28Z" transform="translate(-274.57 -386.72)"/><path class="cls-7" d="M642.55,602.67a96.07,96.07,0,0,1-11-1.54,45,45,0,0,1,5.53.6A47.32,47.32,0,0,1,642.55,602.67Z" transform="translate(-274.57 -386.72)"/><path class="cls-7" d="M642,607.17a44.14,44.14,0,0,1-5.34-.58,45.93,45.93,0,0,1-5.31-.91,44,44,0,0,1,5.35.58A43.09,43.09,0,0,1,642,607.17Z" transform="translate(-274.57 -386.72)"/><path class="cls-7" d="M641.68,611a42.26,42.26,0,0,1-5.5-.6,45.9,45.9,0,0,1-5.45-.93,46.69,46.69,0,0,1,5.5.6A48.47,48.47,0,0,1,641.68,611Z" transform="translate(-274.57 -386.72)"/><path class="cls-7" d="M641,615.14a44.75,44.75,0,0,1-5.38-.58,45.39,45.39,0,0,1-5.34-.92,90.92,90.92,0,0,1,10.72,1.5Z" transform="translate(-274.57 -386.72)"/><path class="cls-7" d="M640.43,618.91a44.6,44.6,0,0,1-5.39-.58,45.39,45.39,0,0,1-5.34-.92,43.74,43.74,0,0,1,5.39.59A44.27,44.27,0,0,1,640.43,618.91Z" transform="translate(-274.57 -386.72)"/><path class="cls-7" d="M639.9,622.68a44.8,44.8,0,0,1-5.39-.58,45.39,45.39,0,0,1-5.34-.92,43.55,43.55,0,0,1,5.39.59A44.27,44.27,0,0,1,639.9,622.68Z" transform="translate(-274.57 -386.72)"/><path class="cls-7" d="M656.27,604.59a46.15,46.15,0,0,1-5.53-.61,48.74,48.74,0,0,1-5.49-.93,45,45,0,0,1,5.53.6A47.83,47.83,0,0,1,656.27,604.59Z" transform="translate(-274.57 -386.72)"/><path class="cls-7" d="M655.71,609.09a44.19,44.19,0,0,1-5.35-.58,46,46,0,0,1-5.3-.91,41.89,41.89,0,0,1,5.35.58A43.54,43.54,0,0,1,655.71,609.09Z" transform="translate(-274.57 -386.72)"/><path class="cls-7" d="M655.4,613a44.27,44.27,0,0,1-5.5-.6,45.9,45.9,0,0,1-5.45-.93,47.13,47.13,0,0,1,5.5.6A48.47,48.47,0,0,1,655.4,613Z" transform="translate(-274.57 -386.72)"/><path class="cls-7" d="M654.67,617.06a90.92,90.92,0,0,1-10.72-1.5,43.69,43.69,0,0,1,5.38.59A44.27,44.27,0,0,1,654.67,617.06Z" transform="translate(-274.57 -386.72)"/><path class="cls-7" d="M654.14,620.83a44.75,44.75,0,0,1-5.38-.58,45.39,45.39,0,0,1-5.34-.92,43.94,43.94,0,0,1,5.39.59A43.4,43.4,0,0,1,654.14,620.83Z" transform="translate(-274.57 -386.72)"/><path class="cls-7" d="M653.62,624.6a44.6,44.6,0,0,1-5.39-.58,45.39,45.39,0,0,1-5.34-.92,43.74,43.74,0,0,1,5.39.59A44.27,44.27,0,0,1,653.62,624.6Z" transform="translate(-274.57 -386.72)"/><path class="cls-1" d="M646.46,506.31" transform="translate(-274.57 -386.72)"/><path class="cls-4" d="M658.39,506.59a4.29,4.29,0,0,1-1.47.81,4.11,4.11,0,0,1-1.59.51,8.47,8.47,0,0,1,3.06-1.32Z" transform="translate(-274.57 -386.72)"/><path class="cls-4" d="M659.4,506.83c.06.1-.53.44-1.28.77a3.36,3.36,0,0,1-1.44.44c0-.08.55-.41,1.3-.74A4.52,4.52,0,0,1,659.4,506.83Z" transform="translate(-274.57 -386.72)"/><path class="cls-7" d="M646.4,506.56c.09,0-2.53,19.8-5.86,44.19s-6.1,44.16-6.19,44.14,2.54-19.79,5.86-44.19S646.31,506.55,646.4,506.56Z" transform="translate(-274.57 -386.72)"/><path class="cls-7" d="M655.48,597.62c-.09,0,2.52-18.6,5.84-41.51s6.08-41.48,6.17-41.46-2.52,18.59-5.84,41.51S655.57,597.63,655.48,597.62Z" transform="translate(-274.57 -386.72)"/><rect class="cls-9" x="659.87" y="601.35" width="12.75" height="3.44" transform="translate(-184.56 -473.23) rotate(7.97)"/><path class="cls-7" d="M671.36,407.05c.09,0-1.49,11.95-3.53,26.67s-3.76,26.65-3.85,26.64,1.49-12,3.52-26.68S671.27,407,671.36,407.05Z" transform="translate(-274.57 -386.72)"/><path class="cls-7" d="M665.57,457.32s.18-.11.38.08a.5.5,0,0,1,.13.44.54.54,0,0,1-1,.17.52.52,0,0,1,0-.47c.13-.25.33-.24.33-.2s-.09.12-.1.28.06.33.27.29a.23.23,0,0,0,.17-.37C665.69,457.4,665.57,457.36,665.57,457.32Z" transform="translate(-274.57 -386.72)"/><path class="cls-7" d="M666.82,448.38s.18-.11.38.08a.51.51,0,0,1-.3.85.5.5,0,0,1-.56-.71c.13-.24.33-.24.33-.19s-.09.11-.1.27a.24.24,0,1,0,.44-.07C666.94,448.46,666.82,448.43,666.82,448.38Z" transform="translate(-274.57 -386.72)"/><path class="cls-7" d="M668.07,439.44s.18-.11.38.09a.5.5,0,0,1,.13.44.52.52,0,0,1-.43.4.5.5,0,0,1-.56-.7c.13-.25.33-.24.33-.2s-.08.12-.1.27.06.34.27.3a.23.23,0,0,0,.17-.37C668.19,439.53,668.07,439.49,668.07,439.44Z" transform="translate(-274.57 -386.72)"/><path class="cls-7" d="M669.32,430.51s.18-.11.38.08a.51.51,0,0,1,.13.44.5.5,0,0,1-.43.4.51.51,0,0,1-.54-.23.52.52,0,0,1,0-.47c.13-.24.33-.24.33-.2s-.08.12-.1.28a.23.23,0,0,0,.27.3.24.24,0,0,0,.17-.38C669.44,430.59,669.32,430.56,669.32,430.51Z" transform="translate(-274.57 -386.72)"/><path class="cls-7" d="M670.57,421.57s.18-.11.38.08a.53.53,0,0,1,.13.45.53.53,0,0,1-1,.16.5.5,0,0,1,0-.46c.13-.25.33-.25.33-.2s-.08.11-.1.27.06.34.27.3a.23.23,0,0,0,.17-.37C670.69,421.65,670.57,421.62,670.57,421.57Z" transform="translate(-274.57 -386.72)"/><path class="cls-7" d="M671.82,412.64s.18-.11.38.08a.52.52,0,1,1-.86.14c.13-.25.33-.24.33-.2s-.08.12-.1.27.06.34.27.3a.23.23,0,0,0,.17-.37C671.94,412.72,671.82,412.68,671.82,412.64Z" transform="translate(-274.57 -386.72)"/><path class="cls-4" d="M660.84,421.1a7,7,0,0,1-.64.87c-.44.55-1,1.36-1.76,2.38s-1.53,2.27-2.36,3.69a51.53,51.53,0,0,0-2.43,4.77,52.51,52.51,0,0,0-1.91,5c-.49,1.57-.88,3-1.15,4.22s-.47,2.21-.58,2.9a7.52,7.52,0,0,1-.22,1.06,7.11,7.11,0,0,1,.09-1.08c.07-.7.24-1.7.48-2.93s.61-2.68,1.09-4.27a51,51,0,0,1,1.89-5.05,49.51,49.51,0,0,1,2.48-4.79c.85-1.42,1.68-2.66,2.43-3.67s1.38-1.8,1.85-2.32A6.26,6.26,0,0,1,660.84,421.1Z" transform="translate(-274.57 -386.72)"/><path class="cls-4" d="M664.5,416.31c.08.05-.19.54-.59,1.08s-.79.94-.86.88.19-.54.59-1.08S664.43,416.25,664.5,416.31Z" transform="translate(-274.57 -386.72)"/><path class="cls-4" d="M644.69,491.64c-.09,0,.82-7,2-15.69s2.27-15.66,2.36-15.65-.82,7-2,15.69S644.78,491.65,644.69,491.64Z" transform="translate(-274.57 -386.72)"/><path class="cls-4" d="M648.4,482.1a33.21,33.21,0,0,1,.49-4.77,35,35,0,0,1,.83-4.71,71.11,71.11,0,0,1-1.32,9.48Z" transform="translate(-274.57 -386.72)"/><path class="cls-4" d="M651.56,479.19a9.39,9.39,0,0,1,.49-3.49,9.39,9.39,0,0,1-.49,3.49Z" transform="translate(-274.57 -386.72)"/><path class="cls-4" d="M637.44,533.62c-.09,0,1-8.3,2.42-18.5s2.66-18.46,2.75-18.45-1,8.29-2.42,18.5S637.53,533.63,637.44,533.62Z" transform="translate(-274.57 -386.72)"/><path class="cls-10" d="M658.86,506.61" transform="translate(-274.57 -386.72)"/><path class="cls-7" d="M590.78,613.12l2.67,1-2.31.66a2.41,2.41,0,0,0-1.64,1.57l-.83,2.55-1-2.56a2.43,2.43,0,0,0-1.42-1.37l-2.33-.85,2.53-1a2.4,2.4,0,0,0,1.33-1.36l.92-2.38.65,2.21A2.41,2.41,0,0,0,590.78,613.12Z" transform="translate(-274.57 -386.72)"/><path class="cls-7" d="M538.37,611.59l1.53.58-1.33.37a1.39,1.39,0,0,0-.93.91l-.48,1.47-.6-1.48a1.36,1.36,0,0,0-.81-.78l-1.34-.49,1.45-.6a1.4,1.4,0,0,0,.77-.78l.53-1.37.37,1.27A1.4,1.4,0,0,0,538.37,611.59Z" transform="translate(-274.57 -386.72)"/><path class="cls-5" d="M549,547a15.41,15.41,0,0,1-9.53-27.52,15.41,15.41,0,1,0,15,26.51A15.42,15.42,0,0,1,549,547Z" transform="translate(-274.57 -386.72)"/><circle class="cls-1" cx="765.11" cy="619.33" r="25.65" transform="translate(-306.35 810.47) rotate(-74.94)"/><path class="cls-4" d="M786.7,615.75a6.54,6.54,0,1,1-5.57-7.39A6.54,6.54,0,0,1,786.7,615.75Z" transform="translate(-274.57 -386.72)"/><path class="cls-4" d="M777.1,603.93a2.64,2.64,0,1,1-2.25-3A2.64,2.64,0,0,1,777.1,603.93Z" transform="translate(-274.57 -386.72)"/><path class="cls-2" d="M779.1,637a2,2,0,1,1-1.67-2.22A2,2,0,0,1,779.1,637Z" transform="translate(-274.57 -386.72)"/><polygon class="cls-3" points="497.82 142.72 498.83 145.41 501.13 147.12 498.45 148.13 496.74 150.43 495.73 147.75 493.43 146.04 496.11 145.02 497.82 142.72"/><polygon class="cls-3" points="303.84 173.98 304.86 176.66 307.15 178.37 304.47 179.38 302.76 181.68 301.75 179 299.45 177.29 302.13 176.28 303.84 173.98"/><polygon class="cls-3" points="284 217.81 284.44 218.98 285.44 219.72 284.27 220.16 283.53 221.16 283.09 220 282.09 219.25 283.25 218.81 284 217.81"/><path class="cls-4" d="M564.4,507.14c.54-1.92-2-3.91-4-4.37a11.81,11.81,0,0,1-2.92-.66c-1.92-1-2.37-3.72-4.23-4.84-1.39-.83-3.17-.51-4.7,0s-3.08,1.23-4.69,1.11c-1.41-.11-2.85-.83-4.16-.32-1,.38-1.61,1.36-2.53,1.86a5.39,5.39,0,0,1-3,.38,8.06,8.06,0,0,0-3.06.07,2.38,2.38,0,0,0-1.84,2.19Z" transform="translate(-274.57 -386.72)"/><path class="cls-4" d="M577.73,590.76c1-3.55-3.69-7.24-7.48-8.09-1.81-.4-3.75-.39-5.4-1.24-3.57-1.83-4.39-6.9-7.84-8.95-2.58-1.54-5.88-1-8.72,0s-5.71,2.28-8.7,2c-2.61-.19-5.28-1.54-7.71-.6-1.82.71-3,2.52-4.68,3.45a9.92,9.92,0,0,1-5.59.71,15.2,15.2,0,0,0-5.67.13c-1.82.54-3.5,2.16-3.4,4.06Z" transform="translate(-274.57 -386.72)"/><path class="cls-8" d="M794.64,574.87c.83-2.93-3-6-6.19-6.69-1.5-.33-3.1-.32-4.47-1-3-1.52-3.63-5.71-6.49-7.41-2.13-1.28-4.86-.79-7.21,0s-4.72,1.89-7.2,1.7c-2.15-.16-4.36-1.28-6.38-.5-1.5.58-2.45,2.09-3.87,2.85a8.14,8.14,0,0,1-4.62.59,12.73,12.73,0,0,0-4.69.11,3.66,3.66,0,0,0-2.82,3.36Z" transform="translate(-274.57 -386.72)"/><path class="cls-3" d="M502.74,638.49l.25.57a3.65,3.65,0,0,0,1.31,1.6l.52.35-.58.25a3.57,3.57,0,0,0-1.59,1.31l-.36.51-.24-.57a3.72,3.72,0,0,0-1.31-1.6l-.52-.35.58-.25a3.56,3.56,0,0,0,1.59-1.31Z" transform="translate(-274.57 -386.72)"/><circle class="cls-3" cx="725.92" cy="542.63" r="13.6" transform="matrix(0.13, -0.99, 0.99, 0.13, -180.15, 805.99)"/><path class="cls-4" d="M723.58,546.59a2.22,2.22,0,1,1-1.89-2.51A2.23,2.23,0,0,1,723.58,546.59Z" transform="translate(-274.57 -386.72)"/><path class="cls-4" d="M721.35,539.81a1.29,1.29,0,1,1-2.55-.36,1.29,1.29,0,1,1,2.55.36Z" transform="translate(-274.57 -386.72)"/><path class="cls-8" d="M712.4,544.07c0,.25-13.12,9.74-10.46,12.53s16.07-1.53,28-8.68,23.17-16.29,20.89-19.45S734,531.68,734,531.68l1.46,1.24s8.82-4.06,11.09-1.69-6.12,9.23-17.47,15.31-22,10-23.29,7.68,7-8.12,7-8.12Z" transform="translate(-274.57 -386.72)"/><path class="cls-4" d="M719.83,532.1c.09.15-.93.79-2.18,2.2a12.55,12.55,0,0,0-2.18,13.59c.75,1.73,1.51,2.66,1.38,2.77s-1.07-.69-2.05-2.45a11.94,11.94,0,0,1-1.31-7.61,12,12,0,0,1,1.45-4.06,11.42,11.42,0,0,1,2.17-2.75C718.59,532.42,719.78,532,719.83,532.1Z" transform="translate(-274.57 -386.72)"/><polygon class="cls-7" points="432.45 245.46 433.47 248.14 435.77 249.85 433.09 250.86 431.38 253.16 430.36 250.48 428.06 248.77 430.74 247.76 432.45 245.46"/><polygon class="cls-7" points="452.03 235.97 452.49 237.2 453.55 237.98 452.32 238.45 451.54 239.5 451.07 238.27 450.02 237.49 451.25 237.03 452.03 235.97"/><polygon class="cls-7" points="328.95 155.63 329.97 158.31 332.27 160.02 329.58 161.04 327.88 163.34 326.86 160.66 324.56 158.94 327.24 157.93 328.95 155.63"/><polygon class="cls-7" points="430.46 197.5 431.48 200.18 433.78 201.89 431.1 202.91 429.39 205.21 428.37 202.53 426.07 200.81 428.75 199.8 430.46 197.5"/><polygon class="cls-7" points="301.56 136.28 302.02 137.5 303.07 138.28 301.85 138.75 301.06 139.8 300.6 138.57 299.55 137.79 300.77 137.33 301.56 136.28"/><polygon class="cls-7" points="321.32 123.22 321.78 124.45 322.83 125.23 321.61 125.7 320.82 126.75 320.36 125.52 319.31 124.74 320.54 124.28 321.32 123.22"/><path class="cls-11" d="M391.8,680.28v21s-1,2.51-5,11-8.47,34.22-8.47,34.22l8.47,17,26.76-46.22a32.73,32.73,0,0,0,4.37-18.19l-1.29-24.14-24.81,5.34" transform="translate(-274.57 -386.72)"/><path class="cls-11" d="M376.79,651.5l-30.7,5.19s3.09,8.41,3.32,9.23c.81,3,2.58,10.77,1.53,18.05-1.32,9.28-2.49,20.55-1.9,25.85s5.88,56.33,5.88,56.33h19l4.22-97.41Z" transform="translate(-274.57 -386.72)"/><path class="cls-12" d="M378.3,739.4a2.13,2.13,0,0,1,.12-.59c.11-.43.26-1,.44-1.64.41-1.49,1-3.53,1.69-6s1.59-5.58,2.55-8.92c.47-1.67,1-3.45,1.45-5.26a16,16,0,0,1,1.06-2.75c.4-.9.82-1.81,1.26-2.72.86-1.82,1.73-3.59,2.58-5.29l1.25-2.5a13.06,13.06,0,0,1,1.42-2.33,12.27,12.27,0,0,1,7.92-4.69,12.09,12.09,0,0,1,6.22.74,10.91,10.91,0,0,1,1.53.75,2.65,2.65,0,0,1,.49.35c0,.05-.71-.42-2.09-.91a12.32,12.32,0,0,0-6.09-.57,12,12,0,0,0-7.6,4.62,12.4,12.4,0,0,0-1.35,2.26c-.41.82-.82,1.66-1.25,2.51l-2.56,5.29q-.64,1.37-1.26,2.7a16.14,16.14,0,0,0-1,2.64c-.48,1.87-1,3.61-1.49,5.29l-2.66,8.9c-.76,2.47-1.39,4.5-1.85,6-.22.66-.39,1.2-.53,1.62A2.83,2.83,0,0,1,378.3,739.4Z" transform="translate(-274.57 -386.72)"/><path class="cls-5" d="M373.65,783c.09-2.39-1.32-8.31-2.47-11a7.47,7.47,0,0,1-.65-4.56l-6.33-2.88a10.71,10.71,0,0,0-6.71-.78c-2.49.54-2.94,1.71-3,3.27-.36,6.56.14,12.23-.22,14.67-.48,3.26,3.23,18.21,3.5,18.3s18.11,3.62,18.11,3.62,2.92-1.77,3.09-4.18S373.56,785.41,373.65,783Z" transform="translate(-274.57 -386.72)"/><path class="cls-6" d="M379,799.52c-1.48-3.41-4.53-6-5.73-9.51-1.51-4.4.11-9.6-2.17-13.65-1.71-3.05-5.57-5.17-8.95-4.24a9.68,9.68,0,0,0-7.14,5.71c-1,2.59-.76,5.45-.53,8.2q.51,6.29,1,12.55c.36,4.44.83,9.16,3.55,12.69A11.66,11.66,0,0,0,379,799.52Z" transform="translate(-274.57 -386.72)"/><path class="cls-5" d="M380.56,785.72s6.42-5.59,8.55-20.7-1.18-21.58-1.18-21.58-2.29-8.85-7.69-7.77c-3.48.83-5.59,3.18-7.73,5.5Z" transform="translate(-274.57 -386.72)"/><path class="cls-6" d="M382.81,739.6h0a3.76,3.76,0,0,0-1-.68c-3.23-1.42-7.34,0-9.58,2.81s-3,7-2.63,10.75c.25,2.79,1,5.62.37,8.36-.64,2.91-2.66,5.28-4.22,7.81a27.13,27.13,0,0,0-4,12.85c-.2,3.89.58,8.17,4.88,10a9.49,9.49,0,0,0,6.86.14c4.6-1.62,7.53-5.76,9.62-10a48.64,48.64,0,0,0,.77-40.57A4.39,4.39,0,0,0,382.81,739.6Z" transform="translate(-274.57 -386.72)"/><path class="cls-7" d="M365.24,770.7c0,.07-.7-.23-1.83-.49a11.46,11.46,0,0,0-2-.3,6,6,0,0,0-2.4.24,10.45,10.45,0,0,0-3.65,2.54c-.79.84-1,1.53-1.12,1.5a3.1,3.1,0,0,1,.84-1.74,9.34,9.34,0,0,1,3.75-2.79,6.17,6.17,0,0,1,2.62-.23,10.31,10.31,0,0,1,2.06.43A4.15,4.15,0,0,1,365.24,770.7Z" transform="translate(-274.57 -386.72)"/><path class="cls-7" d="M362.15,767.62c0,.15-1.22,0-2.63.29s-2.44.94-2.53.81a3.81,3.81,0,0,1,2.42-1.32A3.69,3.69,0,0,1,362.15,767.62Z" transform="translate(-274.57 -386.72)"/><path class="cls-5" d="M375.54,790.7s-.09.08-.29.2a5.91,5.91,0,0,1-.88.47,10.34,10.34,0,0,1-3.55,1,8.76,8.76,0,0,1-5.32-1.19,8.37,8.37,0,0,1-2.43-2.19,9.84,9.84,0,0,1-1.47-3.18,16.11,16.11,0,0,1-.34-6.68,21.09,21.09,0,0,1,1.58-5.22,33.21,33.21,0,0,1,1.67-3.26,6.31,6.31,0,0,1,.73-1.13,6.18,6.18,0,0,1-.55,1.22c-.38.78-.94,1.89-1.51,3.31a22.49,22.49,0,0,0-1.45,5.15,16.34,16.34,0,0,0,.37,6.47,9.47,9.47,0,0,0,1.38,3,8,8,0,0,0,2.27,2.08A8.49,8.49,0,0,0,370.8,792a11.28,11.28,0,0,0,3.49-.79A8.62,8.62,0,0,1,375.54,790.7Z" transform="translate(-274.57 -386.72)"/><path class="cls-11" d="M318.4,579.25c.27-.28.56-.55.84-.83h0Z" transform="translate(-274.57 -386.72)"/><path class="cls-11" d="M319.24,578.42l3.39,2c6.07-1.37,12.13-3.29,17.23-6.84s9.18-9,10-15.11A92.84,92.84,0,0,0,319.24,578.42Z" transform="translate(-274.57 -386.72)"/><path class="cls-11" d="M327.5,554.06c1.92-4.41,10.31-22.21,10.31-22.21s-10.7-9.07-17.94-7c0,0-11.32,26.17-12,28.54,0,0-7.26,15.68,0,19.7,0,0,6.89.67,10.5-4.36S327.5,554.06,327.5,554.06Z" transform="translate(-274.57 -386.72)"/><path class="cls-9" d="M278.13,592.76l64.71-58.15,2.58,26.48-52.94,47.64a10.74,10.74,0,0,1-14.84-.46h0A10.74,10.74,0,0,1,278.13,592.76Z" transform="translate(-274.57 -386.72)"/><path class="cls-5" d="M292.65,608.34a9.08,9.08,0,0,0-.32-3.27,16.77,16.77,0,0,0-4.38-6.58,21.58,21.58,0,0,0-6.63-4.42c-1.89-.82-3.16-1.07-3.13-1.17a3.38,3.38,0,0,1,.9.12,15.24,15.24,0,0,1,2.37.71,19.59,19.59,0,0,1,6.85,4.39,15.82,15.82,0,0,1,4.37,6.85,6.6,6.6,0,0,1,.21,2.49A2.1,2.1,0,0,1,292.65,608.34Z" transform="translate(-274.57 -386.72)"/><path class="cls-5" d="M295.09,606.48a9.08,9.08,0,0,0-.32-3.27,16.77,16.77,0,0,0-4.38-6.58,21.58,21.58,0,0,0-6.63-4.42c-1.89-.82-3.15-1.07-3.13-1.17a3.31,3.31,0,0,1,.9.12,15.24,15.24,0,0,1,2.37.71,19.59,19.59,0,0,1,6.85,4.39,15.91,15.91,0,0,1,4.38,6.85,6.77,6.77,0,0,1,.2,2.49A2,2,0,0,1,295.09,606.48Z" transform="translate(-274.57 -386.72)"/><path class="cls-9" d="M342.84,534.61l80-63.68a75.23,75.23,0,0,1,23.82-6.69,1.81,1.81,0,0,1,1.87,2.5c-2.6,7.73-5.24,13.19-10.74,19.55l-90.42,72.42Z" transform="translate(-274.57 -386.72)"/><path class="cls-5" d="M438.2,485.89c-.09,0-.53-1.15-1.51-2.9a26,26,0,0,0-11.25-10.64c-1.81-.88-3-1.25-3-1.34a2.64,2.64,0,0,1,.86.18,15.58,15.58,0,0,1,2.28.83A23.61,23.61,0,0,1,437,482.81a18,18,0,0,1,1,2.22A3.11,3.11,0,0,1,438.2,485.89Z" transform="translate(-274.57 -386.72)"/><path class="cls-7" d="M450.86,463c-.28-.26-.72-.08-1.05.12l-2.12,1.26.48,1.84,2.29-2a1.91,1.91,0,0,0,.49-.57A.59.59,0,0,0,450.86,463Z" transform="translate(-274.57 -386.72)"/><path class="cls-5" d="M448.66,466.18c-.13,0-.16-.61-.59-1.14s-1-.67-1-.82.17-.14.46-.09a1.55,1.55,0,0,1,.93.59,1.58,1.58,0,0,1,.36,1C448.84,466,448.73,466.19,448.66,466.18Z" transform="translate(-274.57 -386.72)"/><path class="cls-11" d="M408.53,524.83c.31.91,6.38,27,6.38,27S425,578.76,434.39,597l4.55,7.29,8.2-1.33s-11.25-48.64-13.38-52.89-5.93-25.23-5.93-25.23Z" transform="translate(-274.57 -386.72)"/><path class="cls-11" d="M364,430.05l-.17,55.29,23.72,1.13.68-13.45s8.43,1.67,10.6-6.15c1.39-5,1-43.63,1-43.63Z" transform="translate(-274.57 -386.72)"/><path class="cls-7" d="M403,427.14c-3.73,1.07-4.54,7.17-4.54,7.17l-5.86,12.95c-3-2.34-7-2.21-7.76,3-.54,3.79,4.17,4.56,4.17,4.56-2.74,4.67-4.61,8.44-8.6,12.88-4.32,4.81-6.75,5.3-11.44,5.37h-5.17s-2.53-8.21-7.21-28.76c-5.21-22.79,21.75-19.86,26.75-25.68C391.43,409.2,414.73,423.77,403,427.14Z" transform="translate(-274.57 -386.72)"/><path class="cls-7" d="M357,446.5c-4.37-2.93-4.77-11.15-2.22-16.07a15.83,15.83,0,0,1,13.46-8.37,6.24,6.24,0,0,0,2.2-.25,6,6,0,0,0,2.36-2.24c3.91-5.07,7.74-10.06,15-10.06a8.33,8.33,0,0,1,4.58,1.13,7.26,7.26,0,0,1,2.75,3.64,15.57,15.57,0,0,1,4.25-1.53,5.26,5.26,0,0,1,4.27,1,3.21,3.21,0,0,1,.67,4.09,5.19,5.19,0,0,1,5.17,4.31c.38,2.42-3.09,4.13-3.46,4.32,0,0,1.91,4-2.64,6.39-1.83,1-4.22-.2-4.49-.34" transform="translate(-274.57 -386.72)"/><path class="cls-5" d="M374.35,451.82a8.33,8.33,0,0,1-.14,4.19c-.51,2.3-1.54,3.94-1.68,3.86s.61-1.78,1.09-4S374.17,451.82,374.35,451.82Z" transform="translate(-274.57 -386.72)"/><path class="cls-5" d="M377.21,449.1a15.64,15.64,0,0,1-1.47,7.89,105.32,105.32,0,0,1,1.47-7.89Z" transform="translate(-274.57 -386.72)"/><path class="cls-5" d="M385.43,440c.06.08-.61.57-1.47,1.57a15,15,0,0,0-2.55,4.41,36.12,36.12,0,0,0-1.42,5,8,8,0,0,1-.59,2.09,7.54,7.54,0,0,1,.17-2.17,24,24,0,0,1,1.28-5.11,12.78,12.78,0,0,1,2.8-4.48A4.44,4.44,0,0,1,385.43,440Z" transform="translate(-274.57 -386.72)"/><path class="cls-5" d="M388.75,433.77c.07,0,.31.53.46,1.49A9.87,9.87,0,0,1,389,439a10,10,0,0,1-1.6,3.42c-.59.78-1.06,1.15-1.11,1.11s1.45-1.9,2.12-4.68S388.57,433.8,388.75,433.77Z" transform="translate(-274.57 -386.72)"/><path class="cls-5" d="M360.44,447.57c-.08.15-.8-.1-1.62-.56s-1.41-.94-1.33-1.08.81.1,1.62.56S360.52,447.43,360.44,447.57Z" transform="translate(-274.57 -386.72)"/><path class="cls-5" d="M371.9,441.67c.16,0,.06,1.2-.68,2.41s-1.72,1.84-1.81,1.72.63-.92,1.3-2S371.73,441.63,371.9,441.67Z" transform="translate(-274.57 -386.72)"/><path class="cls-5" d="M375.43,439.78a4.78,4.78,0,0,1-1.06,2.87c-.95,1.45-2.15,2.22-2.24,2.09a26.57,26.57,0,0,1,1.74-2.42A22.59,22.59,0,0,1,375.43,439.78Z" transform="translate(-274.57 -386.72)"/><path class="cls-5" d="M392.94,416.62c0,.05-.44-.33-1.3-.82a8.85,8.85,0,0,0-4-1,10.65,10.65,0,0,0-5.83,1.57,14.43,14.43,0,0,0-5,5.53,24.81,24.81,0,0,0-2,5.19l-.09.34-.32-.16a11.75,11.75,0,0,0-5.29-1.36,12.66,12.66,0,0,0-4.31.65,18.9,18.9,0,0,0-3.52,1.76,3.88,3.88,0,0,1,.8-.7,11,11,0,0,1,2.6-1.4,12.26,12.26,0,0,1,4.43-.8,12.09,12.09,0,0,1,5.56,1.34l-.41.18a24.17,24.17,0,0,1,2-5.32,14.58,14.58,0,0,1,5.21-5.72,10.8,10.8,0,0,1,6.13-1.52,8.39,8.39,0,0,1,4.08,1.25,6.21,6.21,0,0,1,.91.72C392.86,416.51,393,416.61,392.94,416.62Z" transform="translate(-274.57 -386.72)"/><path class="cls-5" d="M405.41,419.63s.66-.17,1.37.62a2.35,2.35,0,0,1,.54,1.73,2.66,2.66,0,0,1-1.38,2,3.9,3.9,0,0,1-2.88.4,8.43,8.43,0,0,1-3-1.44,29.26,29.26,0,0,0-2.91-2,12.32,12.32,0,0,0-3.5-1.23,14.76,14.76,0,0,0-7.15.49,19.36,19.36,0,0,0-5.29,2.69,53.74,53.74,0,0,0-4.22,3.57,6.29,6.29,0,0,1,.94-1.17,22.37,22.37,0,0,1,3-2.74,18.83,18.83,0,0,1,5.36-2.87,14.94,14.94,0,0,1,7.44-.56,12.53,12.53,0,0,1,3.67,1.31,26.77,26.77,0,0,1,3,2.06,8,8,0,0,0,2.76,1.4,3.45,3.45,0,0,0,2.56-.28,2.36,2.36,0,0,0,1.26-1.64,2.19,2.19,0,0,0-.4-1.55A2.12,2.12,0,0,0,405.41,419.63Z" transform="translate(-274.57 -386.72)"/><path class="cls-9" d="M343.44,606.21s-.87,22.78,0,29.72-.39,48.8-.39,48.8,32.16,9.36,40.83-1.74c0,0-3.51-50.88-3.86-52.26s-3.18-36.07-3.18-36.07Z" transform="translate(-274.57 -386.72)"/><path class="cls-9" d="M416.78,594.66c1.89,5.89,5.89,28.09,5.89,28.09v58.83s-27.86,10.06-38.95,5.08l-6.88-59.06V597l22.91-8.93Z" transform="translate(-274.57 -386.72)"/><path class="cls-5" d="M399.1,635.54a5.67,5.67,0,0,1-1.3,0c-.83,0-2-.14-3.52-.26l-11.59-1.06-11.59-1.05-3.52-.33a6.69,6.69,0,0,1-1.28-.18,5.94,5.94,0,0,1,1.3,0c.83,0,2,.07,3.52.16,3,.17,7.09.48,11.62.9s8.61.88,11.57,1.21l3.51.43A7.27,7.27,0,0,1,399.1,635.54Z" transform="translate(-274.57 -386.72)"/><path class="cls-5" d="M378.22,633.68c.15,0,1.49,11.84,3,26.47s2.63,26.5,2.49,26.51-1.49-11.83-3-26.46S378.08,633.7,378.22,633.68Z" transform="translate(-274.57 -386.72)"/><path class="cls-5" d="M378.63,633.36a18.82,18.82,0,0,1-3.26,2.91,18.39,18.39,0,0,1-3.59,2.49,36.82,36.82,0,0,1,6.85-5.4Z" transform="translate(-274.57 -386.72)"/><path class="cls-5" d="M421.84,618.9a9.21,9.21,0,0,1-2.22-1.18,31.56,31.56,0,0,1-4.77-3.78,31,31,0,0,1-3.93-4.64,9.55,9.55,0,0,1-1.26-2.18,16.11,16.11,0,0,1,1.56,2,42.56,42.56,0,0,0,4,4.49,41.64,41.64,0,0,0,4.61,3.84A17.63,17.63,0,0,1,421.84,618.9Z" transform="translate(-274.57 -386.72)"/><path class="cls-5" d="M377.16,628.07a2.93,2.93,0,0,1-.48-.75c-.27-.5-.63-1.25-1-2.2a35.87,35.87,0,0,1-2.25-7.69,36.87,36.87,0,0,1-.49-8c.06-1,.15-1.85.24-2.42a2.94,2.94,0,0,1,.19-.87c.08,0,0,1.27-.06,3.3a44.48,44.48,0,0,0,.64,7.89A43.8,43.8,0,0,0,376,625C376.7,626.89,377.23,628,377.16,628.07Z" transform="translate(-274.57 -386.72)"/><path class="cls-6" d="M411,546.49c-.28-.84-3.38-18.59-3.38-18.59l22.81-.56s-10-39.13-15.47-42c-8.46-4.47-27.06-5-27.06-5H364s-26.48,7.33-31.26,15.21L315.84,528l22,8.06,3.81-4.69,3.79,33.14s-2.25,29.86-2.25,34.36.28,7.33.28,7.33,49.77-13.51,61.88-9.57,13.92,7.64,13.92,7.64,1.09-13.28-1.73-18.35Z" transform="translate(-274.57 -386.72)"/><path class="cls-6" d="M342.15,536.07c-.08,0-.31-1.58-.82-4.11a74.81,74.81,0,0,0-2.65-9.74,81.54,81.54,0,0,0-3.94-9.29l-1.39-2.74a5,5,0,0,1-.47-1,4.62,4.62,0,0,1,.65.93c.39.61.92,1.52,1.54,2.67a65.47,65.47,0,0,1,4.1,9.29,60.31,60.31,0,0,1,2.53,9.84c.21,1.29.34,2.33.4,3.05A4.22,4.22,0,0,1,342.15,536.07Z" transform="translate(-274.57 -386.72)"/><path class="cls-6" d="M389.2,548.56a1.58,1.58,0,0,1-.12.49c-.13.37-.28.82-.46,1.38s-.46,1.32-.8,2.15-.69,1.79-1.16,2.82c-.89,2.08-2.06,4.5-3.49,7.12a95.53,95.53,0,0,1-5.12,8.26c-2,2.82-4,5.38-6,7.64s-3.85,4.17-5.5,5.72c-.8.79-1.58,1.45-2.25,2.05s-1.26,1.09-1.75,1.49l-1.14.9a2.38,2.38,0,0,1-.41.29s.11-.14.35-.37l1.07-1c.47-.41,1-.93,1.69-1.55s1.4-1.29,2.19-2.1c1.6-1.57,3.44-3.52,5.39-5.77s4-4.82,5.93-7.62,3.67-5.6,5.13-8.19,2.65-5,3.57-7c.49-1,.87-2,1.23-2.78s.65-1.53.88-2.12L389,549A2.23,2.23,0,0,1,389.2,548.56Z" transform="translate(-274.57 -386.72)"/><path class="cls-6" d="M407.85,500.74c.09,0-.27,1.58-.53,4.12a84.61,84.61,0,0,0-.3,10c.1,3.91.34,7.44.55,10,.1,1.19.18,2.2.25,3a4.36,4.36,0,0,1,0,1.12,4.76,4.76,0,0,1-.24-1.09c-.12-.71-.26-1.74-.41-3-.31-2.56-.61-6.1-.71-10a65.4,65.4,0,0,1,.45-10.05,30.38,30.38,0,0,1,.57-3A4.7,4.7,0,0,1,407.85,500.74Z" transform="translate(-274.57 -386.72)"/><g class="cls-13"><path d="M336,515.65s1.42,13.63,1.86,20.42l3.81-4.69S337.88,517.36,336,515.65Z" transform="translate(-274.57 -386.72)"/></g><g class="cls-13"><path d="M371.1,563.76a75.94,75.94,0,0,0-6.78,13.85A61.44,61.44,0,0,0,382,554.16C377.38,555.92,373.72,559.6,371.1,563.76Z" transform="translate(-274.57 -386.72)"/></g><path class="cls-12" d="M425.44,558.1a6.11,6.11,0,0,1-4.62-.74,9.51,9.51,0,0,1,2.32.32A8.91,8.91,0,0,1,425.44,558.1Z" transform="translate(-274.57 -386.72)"/><path class="cls-11" d="M446,599.67A115.23,115.23,0,0,0,453,610.86l4.93,10.3v10.3s-2.36,0-2.71-1.41c0,0-2.12-.15-2.48-3.55,0,0-1.84-.43-2.2-3.15a43.12,43.12,0,0,1-.35-4.92L448.33,615l-2-.15a33.41,33.41,0,0,1,2.27,5.11c.14,1.06.36,3.46-1.13,3.43s-2.77-2.58-3-3.58a15.51,15.51,0,0,0-2.62-5.17c-1-.92-2.76-3.19-2.9-4.46s0-7.8,0-7.8Z" transform="translate(-274.57 -386.72)"/><path class="cls-12" d="M446.84,615.35a5,5,0,0,1-1.48-.82,12.3,12.3,0,0,1-3.05-2.75,6.64,6.64,0,0,1-1.38-3.89,3.71,3.71,0,0,1,.25-1.68,10.24,10.24,0,0,1,.12,1.66,7.28,7.28,0,0,0,1.42,3.6,16.85,16.85,0,0,0,2.86,2.77C446.38,614.88,446.89,615.29,446.84,615.35Z" transform="translate(-274.57 -386.72)"/><path class="cls-12" d="M450.74,615.31a9.15,9.15,0,0,1-3-.09,9.4,9.4,0,0,1-3-.61,8.91,8.91,0,0,1,3,.09A9.2,9.2,0,0,1,450.74,615.31Z" transform="translate(-274.57 -386.72)"/><path class="cls-12" d="M451.87,617a4.89,4.89,0,0,1,1.3,1.53A12.4,12.4,0,0,1,455,623a28.5,28.5,0,0,1,.27,4.84,10.1,10.1,0,0,1-.07,2,6,6,0,0,1-.3-2,47.57,47.57,0,0,0-.41-4.76A18.9,18.9,0,0,0,451.87,617Z" transform="translate(-274.57 -386.72)"/><path class="cls-12" d="M452.67,625.58c-.06,0-.3-.35-.44-1s-.16-1.64-.42-2.58a10.58,10.58,0,0,0-1.32-2.21c-.36-.63-.3-1.13-.23-1.12s.14.41.54.92c.2.26.47.55.76.91a3.74,3.74,0,0,1,.75,1.35,13.71,13.71,0,0,1,.29,2.68C452.64,625.15,452.74,625.55,452.67,625.58Z" transform="translate(-274.57 -386.72)"/><path class="cls-6" d="M468.77,446.8c-1.28-1.77-4.19-1.48-5.83,0s-2.34,3.66-3.06,5.73-1.64,4.24-3.48,5.42c2.86-1.18,6.43-3.48,9-4.57S470.43,449.09,468.77,446.8Z" transform="translate(-274.57 -386.72)"/><path class="cls-6" d="M454.85,462a13.56,13.56,0,0,1,6.88-1.23,8.19,8.19,0,0,1,4.62,2.83,3.27,3.27,0,0,1,.73,1.39,1.5,1.5,0,0,1-.47,1.44,1.86,1.86,0,0,1-1.39.27,9.86,9.86,0,0,1-4.51-2.4,12.74,12.74,0,0,0-5.86-2.3" transform="translate(-274.57 -386.72)"/></svg>