<svg id="Layer_1" data-name="Layer 1" xmlns="http://www.w3.org/2000/svg" viewBox="0 0 75.23 112.71"><defs><style>.cls-1{fill:#fff;}</style></defs><title>figma</title><path class="cls-1" d="M704.55,635.36c7.67,0,15.41-.52,23,.31,8.35.92,14.5,9.08,14.63,17.71a18.67,18.67,0,0,1-14.34,18.84l-2.13.5-6.8.26-14.38.57c-.26-.35-.52-.71-.79-1.06l.8-1q0-17.65,0-35.32Z" transform="translate(-667 -635.22)"/><path class="cls-1" d="M703.74,672.49c.27.35.53.71.79,1.06q.12,7.59.23,15.17c0,2.15,0,4.31,0,6.46q-.12,7.59-.23,15.18a1.28,1.28,0,0,0-.64.14l-20.61.1a.7.7,0,0,0-.66,0l-.11-.26c-4.82-1.8-9.34-4-12.27-8.57-7.55-11.66-1.13-25.8,13.18-29l1.52-.32Z" transform="translate(-667 -635.22)"/><path class="cls-1" d="M704.52,636.22q0,17.67,0,35.32c-4,0-8-.09-12,0-3.59.09-7.16.37-10.74.57-9-2.24-14.81-9.55-14.76-18.43.05-8.66,5.91-15.82,14.77-18.05a21.9,21.9,0,0,0,3.46.57C691.7,636.26,698.11,636.23,704.52,636.22Z" transform="translate(-667 -635.22)"/><path class="cls-1" d="M683.23,710.6l20.61-.1.66,1.44c0,6,.23,12,.1,18-.21,9.33-7.51,16.82-17.19,17.91-8.72,1-17.52-5.36-19.68-14.2a18.52,18.52,0,0,1,10.95-21.87c1.24-.5,2.52-.92,3.78-1.38l.11.26Z" transform="translate(-667 -635.22)"/><path class="cls-1" d="M704.71,695.18c0-2.15,0-4.31,0-6.45,1.65-8,6.6-13,14.15-15.75l6.8-.26c8.63,1,15.9,9.42,16.44,16.35.7,8.86-3.54,16.38-11.5,19.77a18.84,18.84,0,0,1-24.32-9.67C705.73,697.87,705.25,696.51,704.71,695.18Z" transform="translate(-667 -635.22)"/><path class="cls-1" d="M704.52,636.22c-6.41,0-12.82,0-19.23,0a21.9,21.9,0,0,1-3.46-.57l1.37-.21,2.45-.16,18.9.09Z" transform="translate(-667 -635.22)"/><path class="cls-1" d="M681.82,672.12c3.58-.2,7.15-.48,10.74-.57,4-.1,8,0,12,0l-.8,1-18.85,0-1.74-.11Z" transform="translate(-667 -635.22)"/><path class="cls-1" d="M685.65,635.27l-2.45.16Z" transform="translate(-667 -635.22)"/><path class="cls-1" d="M683.15,672.34l1.74.11-1.52.32A1.35,1.35,0,0,1,683.15,672.34Z" transform="translate(-667 -635.22)"/><path class="cls-1" d="M704.5,711.94l-.66-1.44a1.28,1.28,0,0,1,.64-.14C704.48,710.89,704.49,711.41,704.5,711.94Z" transform="translate(-667 -635.22)"/><path class="cls-1" d="M683.23,710.6l-.66,0A.7.7,0,0,1,683.23,710.6Z" transform="translate(-667 -635.22)"/></svg>