<svg id="Layer_1" data-name="Layer 1" xmlns="http://www.w3.org/2000/svg" viewBox="0 0 651.16 467.09"><defs><style>.cls-1,.cls-11,.cls-13,.cls-14,.cls-15,.cls-23,.cls-3,.cls-6,.cls-9{fill:none;stroke-linecap:round;stroke-linejoin:round;}.cls-1{stroke:#f2c114;}.cls-1,.cls-15,.cls-23,.cls-3,.cls-6{stroke-width:0.35px;}.cls-2{fill:#383d45;}.cls-3{stroke:#ffe8dd;}.cls-4{fill:#596a7b;}.cls-5{fill:#9aabbd;}.cls-6{stroke:#ffd8c7;}.cls-7{fill:#ff877e;}.cls-8{fill:#ff503f;}.cls-9{stroke:#00513f;}.cls-13,.cls-9{stroke-width:0.38px;}.cls-10{fill:#0f4070;}.cls-11{stroke:#d43a2d;stroke-width:0.63px;}.cls-12{fill:#fff;}.cls-13{stroke:#0f4070;}.cls-14,.cls-15{stroke:#0052cb;}.cls-14{stroke-width:0.28px;}.cls-16{fill:#0e1c65;}.cls-17{fill:#f0f5f8;}.cls-18{fill:#dedfe0;}.cls-19{fill:#8f9daa;}.cls-20{fill:#485560;}.cls-21{fill:#24272b;}.cls-22{fill:#425466;}.cls-23{stroke:#00b592;}</style></defs><title>Graphics</title><circle class="cls-1" cx="442.36" cy="74.65" r="16.9"/><rect class="cls-2" x="243.95" y="7.28" width="78.69" height="78.52"/><line class="cls-3" x1="255.09" y1="21.66" x2="311.49" y2="21.66"/><line class="cls-3" x1="255.09" y1="31.61" x2="311.49" y2="31.61"/><line class="cls-3" x1="255.09" y1="41.57" x2="311.49" y2="41.57"/><line class="cls-3" x1="255.09" y1="51.52" x2="311.49" y2="51.52"/><line class="cls-3" x1="255.09" y1="61.47" x2="311.49" y2="61.47"/><line class="cls-3" x1="255.09" y1="71.43" x2="311.49" y2="71.43"/><rect class="cls-4" x="336.97" y="7.28" width="78.69" height="78.52"/><line class="cls-3" x1="348.11" y1="21.66" x2="404.51" y2="21.66"/><line class="cls-3" x1="348.11" y1="31.61" x2="404.51" y2="31.61"/><line class="cls-3" x1="348.11" y1="41.57" x2="404.51" y2="41.57"/><line class="cls-3" x1="348.11" y1="51.52" x2="404.51" y2="51.52"/><line class="cls-3" x1="348.11" y1="61.47" x2="404.51" y2="61.47"/><line class="cls-3" x1="348.11" y1="71.43" x2="404.51" y2="71.43"/><path class="cls-5" d="M816.25,455.9a6.9,6.9,0,1,1-6.9-6.9A6.9,6.9,0,0,1,816.25,455.9Z" transform="translate(-404.84 -449)"/><rect class="cls-6" x="352.09" y="117.52" width="98.75" height="11.2"/><rect class="cls-6" x="352.09" y="134.77" width="98.75" height="11.2"/><rect class="cls-6" x="352.09" y="152.01" width="98.75" height="11.2"/><path class="cls-2" d="M754.88,598.19a85.47,85.47,0,0,1,25.62-7.31A11.12,11.12,0,0,1,791,595.75l3.08,4.59s76.11,15.61,95.62,40.78l-16.91,73,29.66,139.94H718.08l10.55-58.75-10.55-48.92L698,845.84H633.43s24.72-145.2,38.12-174.34,70.91-51.26,70.91-51.26S730.88,609.31,754.88,598.19Z" transform="translate(-404.84 -449)"/><rect class="cls-5" x="294.03" y="259.45" width="157.68" height="32"/><path class="cls-2" d="M748.64,854.11H902.48L872.82,714.17l1.74-7.53-28.62-1.57s-9,56.2-34,79.36C780.57,794,756.71,837.15,748.64,854.11Z" transform="translate(-404.84 -449)"/><path class="cls-7" d="M772.74,827.49l-11.81,6s-37.66-1.27-42.15,12.3h62.55Z" transform="translate(-404.84 -449)"/><path class="cls-8" d="M738.49,846.25a.41.41,0,0,1-.42-.41v-.35a2.94,2.94,0,0,1,2.36-2.87l10.11-2a.41.41,0,0,1,.49.33.42.42,0,0,1-.33.49l-10.11,2a2.09,2.09,0,0,0-1.68,2v.35A.41.41,0,0,1,738.49,846.25Z" transform="translate(-404.84 -449)"/><path class="cls-8" d="M732,846.25a.41.41,0,0,1-.42-.41,4.41,4.41,0,0,1,3.08-4.22l12.23-3.92a.42.42,0,0,1,.53.27.41.41,0,0,1-.27.52l-12.24,3.92a3.6,3.6,0,0,0-2.5,3.43A.41.41,0,0,1,732,846.25Z" transform="translate(-404.84 -449)"/><path class="cls-8" d="M723.89,846.25a.41.41,0,0,1-.41-.41,4.41,4.41,0,0,1,3.07-4.22l12.24-3.92a.42.42,0,0,1,.53.27.41.41,0,0,1-.27.52l-12.24,3.92a3.59,3.59,0,0,0-2.5,3.43A.41.41,0,0,1,723.89,846.25Z" transform="translate(-404.84 -449)"/><path class="cls-8" d="M772.74,827.49l-11.81,6-1.31,0a62.9,62.9,0,0,1,12,12.32h9.76Z" transform="translate(-404.84 -449)"/><path class="cls-5" d="M845.33,708.45a247.94,247.94,0,0,1-8.48,32h19.71v-32Z" transform="translate(-404.84 -449)"/><path class="cls-2" d="M640.11,808.36c-4,21.93-6.68,37.48-6.68,37.48H698l20.12-99.4-14.4-50.89a4.47,4.47,0,0,0-8.69.38C688.78,728.47,672.79,791.57,640.11,808.36Z" transform="translate(-404.84 -449)"/><polygon class="cls-5" points="468.11 325.07 468.11 305.77 315.03 305.77 319.19 325.07 468.11 325.07"/><path class="cls-5" d="M820.77,774.07H873v-19.3H831.32A114.39,114.39,0,0,1,820.77,774.07Z" transform="translate(-404.84 -449)"/><path class="cls-9" d="M742.46,620.24l2.86,3.31a13.37,13.37,0,0,0,8.18,4.51,41.6,41.6,0,0,0,37.23-12.89" transform="translate(-404.84 -449)"/><path class="cls-2" d="M889.73,641.12c15.61,16.07,28.36,81.9,32,133.16S911.59,845.84,878,845.84H775l-4.54-12.51a13.9,13.9,0,0,1,8.71-18.07,32.2,32.2,0,0,1,9.62-1.43c14.57,0,15.88-14.57,31.49-16.13s27.84-5.2,32.78-8.33l-12.89-82a64.41,64.41,0,0,1,6.81-41C854.28,653,867.22,640,889.73,641.12Z" transform="translate(-404.84 -449)"/><path class="cls-9" d="M853,789.37s15-11.25,28.89-6.18" transform="translate(-404.84 -449)"/><path class="cls-2" d="M922,798.06a40.55,40.55,0,0,0-7-.62c-21.27,0-38.51,16.43-38.51,36.69a35.28,35.28,0,0,0,2,11.7C906,845.66,920,831.71,922,798.06Z" transform="translate(-404.84 -449)"/><line class="cls-9" x1="434.77" y1="254" x2="448.2" y2="338.55"/><path class="cls-7" d="M758.79,566.38l23,30.83S776,623.37,749.61,616l-10.34-16.78s-11.15,2-17.76-2.74c-8.19-5.85-4.68-18.54-4.68-18.54l-8.2-23.22,34-13.07Z" transform="translate(-404.84 -449)"/><path class="cls-8" d="M739.27,599.17c11.61-1,19.52-17.86,19.52-17.86s7.58,30.43-11,31.61Z" transform="translate(-404.84 -449)"/><path class="cls-10" d="M722.26,568.83c.6,1.93.23,3.76-.83,4.09s-2.4-1-3-2.9-.23-3.76.82-4.09S721.66,566.9,722.26,568.83Z" transform="translate(-404.84 -449)"/><path class="cls-10" d="M736.55,564.4c.6,1.93.23,3.76-.82,4.09s-2.4-1-3-2.91-.23-3.76.83-4.08S736,562.47,736.55,564.4Z" transform="translate(-404.84 -449)"/><path class="cls-11" d="M724.39,562.57l3.81,9.54-.52,3.31a1.44,1.44,0,0,0,1.85,1.6l2.07-.64" transform="translate(-404.84 -449)"/><path class="cls-10" d="M715.13,563.9l-1.24-.62c.93-1.85,3.81-4.89,8-3.23l-.51,1.29C717.32,559.73,715.22,563.73,715.13,563.9Z" transform="translate(-404.84 -449)"/><path class="cls-10" d="M729.2,558.92l-1.14-.78c2.53-3.75,6.62-2.87,8.43-1.87l-.67,1.22C735.65,557.39,731.66,555.28,729.2,558.92Z" transform="translate(-404.84 -449)"/><path class="cls-12" d="M728.63,583.16l11-6.07s8.24,9.18,3.75,12.63S728.63,583.16,728.63,583.16Z" transform="translate(-404.84 -449)"/><path class="cls-2" d="M765.42,530.86c-.29-13.36-18.44-7.12-18.44-7.12s-10.34-12.48-21.37-1.46c-8.44-5.73-19.29-.26-21,8a14.93,14.93,0,1,0,6,24.92c2.79.49,8.08.42,11.63-5.7,7,3.16,12.52,4.53,19.94-4.16C744,555.35,755.28,561,755.28,561l7.21.91S765.71,544.23,765.42,530.86Z" transform="translate(-404.84 -449)"/><path class="cls-7" d="M766.92,563.75c-1.7,5.06-6.72,7.93-11.21,6.42s-6.76-6.84-5.06-11.89,6.72-7.93,11.22-6.42S768.63,558.7,766.92,563.75Z" transform="translate(-404.84 -449)"/><path class="cls-13" d="M756.93,566.52c-2.7-.91-4.07-4.11-3-7.15s4-4.78,6.75-3.87" transform="translate(-404.84 -449)"/><path class="cls-9" d="M863.91,643.85s-24.62,9.7-24.48,49.25" transform="translate(-404.84 -449)"/><path class="cls-5" d="M699.26,846.15H502.84a10.36,10.36,0,0,1-9.49-7.62L464.14,720.05c-1-4.21,1.54-7.62,5.74-7.62H666.31Z" transform="translate(-404.84 -449)"/><line class="cls-5" x1="288.76" y1="397.15" x2="255.8" y2="263.43"/><ellipse class="cls-5" cx="577.93" cy="779.29" rx="31.58" ry="40.38" transform="translate(-793.53 246.98) rotate(-48.51)"/><rect class="cls-5" x="95.78" y="396.84" width="349.69" height="8.27"/><rect class="cls-5" x="95.78" y="396.84" width="192.99" height="8.27"/><rect class="cls-14" x="111.76" y="396.84" width="18.54" height="8.27"/><rect class="cls-14" x="245.44" y="396.84" width="18.54" height="8.27"/><rect class="cls-2" x="8.47" y="405.11" width="636.19" height="9.68"/><rect class="cls-2" x="492.17" y="405.11" width="152.48" height="9.68"/><path class="cls-2" d="M433.6,906.1c46-3.64,105.29-24.36,199.83-24.36,83.64,0,168.75,21.23,229.5,21.88V863.79H433.6Z" transform="translate(-404.84 -449)"/><path class="cls-2" d="M862.93,903.62c18.44.2,34.65-1.5,47.88-6.26,48.87-17.6,84.23-21.06,104.6-21V863.79H862.93Z" transform="translate(-404.84 -449)"/><line class="cls-2" x1="458.09" y1="414.79" x2="458.09" y2="467.09"/><line class="cls-2" x1="28.76" y1="414.79" x2="28.76" y2="467.09"/><line class="cls-2" x1="610.57" y1="414.79" x2="610.57" y2="467.09"/><circle class="cls-5" cx="130.3" cy="106.26" r="34.09"/><polygon class="cls-15" points="70.77 182 102.37 251.07 146.39 189.17 70.77 182"/><path class="cls-12" d="M712.54,587.07,667.05,590a74.37,74.37,0,1,0,2.17,19.07Z" transform="translate(-404.84 -449)"/><path class="cls-4" d="M620.22,592.88c-2.07-12.58-13-19.54-25.41-19.54s-23.35,7-25.41,19.54c-1.54,9.38,2.05,18.56,7.44,26.62s6.63,18,6.63,18h22.67s1.24-10,6.63-18S621.76,602.26,620.22,592.88Z" transform="translate(-404.84 -449)"/><path class="cls-16" d="M178.21,187.54h23.51a0,0,0,0,1,0,0v15.28a1,1,0,0,1-1,1H179.18a1,1,0,0,1-1-1V187.54A0,0,0,0,1,178.21,187.54Z"/><path class="cls-12" d="M604.13,596.55a3.92,3.92,0,0,1-4.85,0,3.93,3.93,0,0,1-4.62,0,3.91,3.91,0,0,0-2.31.75,11.72,11.72,0,0,1-6.87-.75,4,4,0,0,0,0,8h3.08v24.26h.91V604.46a3.43,3.43,0,0,0,.57.06,4,4,0,0,0,2.31-.75,3.91,3.91,0,0,0,2.31.75,3.93,3.93,0,0,1,4.62,0,4.14,4.14,0,0,0,.87-.1v24.06h.9v-24h3.08a4,4,0,1,0,0-8Zm-3.08,6.5v-2.52a3,3,0,0,1,.66-1.87,3,3,0,0,1,.65,1.87A3.09,3.09,0,0,1,601.05,603.05Zm-4.08-.5a3,3,0,0,1-.77-2,3.05,3.05,0,0,1,.77-2,3.11,3.11,0,0,1,.77,2A3.07,3.07,0,0,1,597,602.55Zm-4.62,0a3,3,0,0,1-.78-2,3.06,3.06,0,0,1,.78-2,3.11,3.11,0,0,1,.77,2A3.07,3.07,0,0,1,592.35,602.55Zm-3.79.67a6.65,6.65,0,1,1,0-2.69Zm-6.16-2.69a3.08,3.08,0,0,1,3.08-3.08,3,3,0,0,1,1.58.45,3.94,3.94,0,0,0,.48,5.72h-2.06A3.09,3.09,0,0,1,582.4,600.53Zm7.07,3v-3a3.94,3.94,0,0,0-1-2.63,3.1,3.1,0,0,1,1.59-.45,3.05,3.05,0,0,1,1.63.48,3.89,3.89,0,0,0,0,5.21,3.05,3.05,0,0,1-1.63.48A3.43,3.43,0,0,1,589.47,603.56Zm3.56-.42a3.92,3.92,0,0,0,0-5.21,3,3,0,0,1,3.26,0,3.89,3.89,0,0,0,0,5.21,3,3,0,0,1-3.26,0Zm4.62,0a3.92,3.92,0,0,0,0-5.21,3,3,0,0,1,3.41.1,3.93,3.93,0,0,0-.91,2.5v3a3.17,3.17,0,0,1-.87.14A3,3,0,0,1,597.65,603.14Zm6.48.48h-2.35a4,4,0,0,0,1.48-3.09,3.93,3.93,0,0,0-.91-2.5,3.08,3.08,0,1,1,1.78,5.59Z" transform="translate(-404.84 -449)"/><path class="cls-16" d="M600.57,652.61c0,2-2.58,3.6-5.76,3.6s-5.77-1.61-5.77-3.6,2.58-3.6,5.77-3.6S600.57,650.62,600.57,652.61Z" transform="translate(-404.84 -449)"/><polygon class="cls-5" points="201.72 190.94 178.21 190.01 178.21 188.84 201.72 189.77 201.72 190.94"/><polygon class="cls-5" points="201.72 194.52 178.21 193.59 178.21 192.42 201.72 193.35 201.72 194.52"/><polygon class="cls-5" points="201.72 198.1 178.21 197.17 178.21 196 201.72 196.93 201.72 198.1"/><polygon class="cls-5" points="201.72 201.68 178.21 200.75 178.21 199.58 201.72 200.51 201.72 201.68"/><path class="cls-2" d="M594.77,567.7h0a1.08,1.08,0,0,1-1.08-1.08V555.75a1.08,1.08,0,0,1,1.08-1.08h0a1.09,1.09,0,0,1,1.08,1.08v10.87A1.08,1.08,0,0,1,594.77,567.7Z" transform="translate(-404.84 -449)"/><path class="cls-2" d="M579.28,572.2h0a1.07,1.07,0,0,1-1.47-.4l-5.44-9.41a1.08,1.08,0,0,1,.4-1.48h0a1.07,1.07,0,0,1,1.47.4l5.44,9.41A1.08,1.08,0,0,1,579.28,572.2Z" transform="translate(-404.84 -449)"/><path class="cls-2" d="M568.12,583.83h0a1.07,1.07,0,0,1-1.47.39l-9.42-5.43a1.08,1.08,0,0,1-.39-1.48h0a1.07,1.07,0,0,1,1.47-.39l9.42,5.43A1.09,1.09,0,0,1,568.12,583.83Z" transform="translate(-404.84 -449)"/><path class="cls-2" d="M632.3,620.88h0a1.08,1.08,0,0,1-1.48.4l-9.41-5.44a1.08,1.08,0,0,1-.4-1.47h0a1.08,1.08,0,0,1,1.48-.4l9.42,5.44A1.08,1.08,0,0,1,632.3,620.88Z" transform="translate(-404.84 -449)"/><path class="cls-2" d="M564.27,599.49h0a1.08,1.08,0,0,1-1.08,1.08H552.32a1.08,1.08,0,0,1-1.08-1.08h0a1.08,1.08,0,0,1,1.08-1.09h10.87A1.08,1.08,0,0,1,564.27,599.49Z" transform="translate(-404.84 -449)"/><path class="cls-2" d="M638.38,599.49h0a1.09,1.09,0,0,1-1.08,1.08H626.43a1.08,1.08,0,0,1-1.08-1.08h0a1.08,1.08,0,0,1,1.08-1.09H637.3A1.09,1.09,0,0,1,638.38,599.49Z" transform="translate(-404.84 -449)"/><path class="cls-2" d="M568.76,615h0a1.07,1.07,0,0,1-.39,1.47L559,621.88a1.07,1.07,0,0,1-1.47-.4h0a1.08,1.08,0,0,1,.39-1.47l9.42-5.44A1.08,1.08,0,0,1,568.76,615Z" transform="translate(-404.84 -449)"/><path class="cls-2" d="M632.94,577.91h0a1.09,1.09,0,0,1-.39,1.48l-9.42,5.44a1.08,1.08,0,0,1-1.47-.4h0a1.08,1.08,0,0,1,.39-1.48l9.42-5.43A1.08,1.08,0,0,1,632.94,577.91Z" transform="translate(-404.84 -449)"/><path class="cls-2" d="M617.45,562h0a1.08,1.08,0,0,1,.39,1.48l-5.43,9.41a1.08,1.08,0,0,1-1.48.4h0a1.09,1.09,0,0,1-.39-1.48l5.43-9.41A1.08,1.08,0,0,1,617.45,562Z" transform="translate(-404.84 -449)"/><path class="cls-5" d="M959.79,835.74H933.84c0,7.31-4.33,12-8.54,14.86a2,2,0,0,0,1.13,3.74H967.2a2,2,0,0,0,1.13-3.74C964.12,847.75,959.79,843.05,959.79,835.74Z" transform="translate(-404.84 -449)"/><path class="cls-5" d="M960.88,841.73a16.56,16.56,0,0,1-1.09-6H933.84a18.29,18.29,0,0,1-.21,2.72,23.66,23.66,0,0,0,16,5.93A23.91,23.91,0,0,0,960.88,841.73Z" transform="translate(-404.84 -449)"/><path class="cls-5" d="M974.25,838.05a24.57,24.57,0,0,1-9-1.63c-5.33-2.08-9.07-5.89-10.52-10.73s-.43-10.08,2.88-14.76a26.6,26.6,0,0,1,14.16-9.8c12.35-3.71,24.79,1.29,27.74,11.13h0c3,9.84-4.69,20.85-17,24.56A28.91,28.91,0,0,1,974.25,838.05Zm5.82-34.89a25.25,25.25,0,0,0-7.32,1.1,23.28,23.28,0,0,0-12.43,8.56c-2.72,3.83-3.57,8.07-2.42,11.93s4.2,6.92,8.58,8.63a23.41,23.41,0,0,0,15.1.31c10.62-3.19,17.28-12.38,14.84-20.5h0C994.56,807,987.88,803.16,980.07,803.16Z" transform="translate(-404.84 -449)"/><path class="cls-5" d="M966.48,833.38c-4.37-1.71-7.42-4.78-8.58-8.63s-.3-8.1,2.42-11.93a23.28,23.28,0,0,1,12.43-8.56,25.25,25.25,0,0,1,7.32-1.1c.85,0,1.68.06,2.5.14.19-1.18.33-2.27.44-3.22a27.87,27.87,0,0,0-11.2,1,26.6,26.6,0,0,0-14.16,9.8c-3.31,4.68-4.33,9.92-2.88,14.76s5.19,8.65,10.52,10.73c.28.11.57.19.85.28a25.23,25.23,0,0,0,3-2.51A20.37,20.37,0,0,1,966.48,833.38Z" transform="translate(-404.84 -449)"/><path class="cls-5" d="M915.58,795.77h62.47S976.21,841,946.82,841,915.58,795.77,915.58,795.77Z" transform="translate(-404.84 -449)"/><rect class="cls-12" x="524.13" y="311.49" width="3.38" height="32.38"/><rect class="cls-12" x="534.9" y="311.49" width="3.38" height="32.38"/><rect class="cls-12" x="545.67" y="311.49" width="3.38" height="32.38"/><rect class="cls-12" x="556.43" y="311.49" width="3.38" height="32.38"/><rect class="cls-12" x="501.1" y="50.45" width="81.22" height="149.98" rx="3.69"/><rect class="cls-17" x="510.28" y="59.62" width="27.97" height="27.97" rx="2.04"/><rect class="cls-18" x="545.18" y="59.62" width="27.97" height="27.97" rx="2.04"/><rect class="cls-5" x="510.28" y="94.17" width="27.97" height="27.97" rx="2.04"/><rect class="cls-19" x="545.18" y="94.17" width="27.97" height="27.97" rx="2.04"/><rect class="cls-4" x="510.28" y="128.73" width="27.97" height="27.97" rx="2.04"/><rect class="cls-20" x="545.18" y="128.73" width="27.97" height="27.97" rx="2.04"/><rect class="cls-2" x="510.28" y="163.28" width="27.97" height="27.97" rx="2.04"/><rect class="cls-21" x="545.18" y="163.28" width="27.97" height="27.97" rx="2.04"/><path class="cls-22" d="M871,532.48l-15.26,15.26,40.91,40.91a9.86,9.86,0,0,0,9.22,2.63l.52-.12a3.32,3.32,0,0,1,3.1.88l4.73,4.73a4.27,4.27,0,0,0,5.66.45,4.1,4.1,0,0,0,.32-6.09l-4.9-4.9a3.29,3.29,0,0,1-.88-3.1l.12-.52a9.86,9.86,0,0,0-2.63-9.22Z" transform="translate(-404.84 -449)"/><path class="cls-4" d="M859.71,525.91a1.86,1.86,0,0,1-3.07-.75,18.39,18.39,0,0,0-3.8-6.64,7.86,7.86,0,0,0-11.11,11.11,18.34,18.34,0,0,0,6.63,3.8,1.85,1.85,0,0,1,.76,3.07L847.63,538a2.68,2.68,0,0,0,0,3.78l9.31,9.31,17.34-17.33L865,524.42a2.68,2.68,0,0,0-3.78,0Z" transform="translate(-404.84 -449)"/><circle class="cls-17" cx="617.07" cy="244.1" r="34.09"/><circle class="cls-1" cx="953.89" cy="708.45" r="20.04" transform="translate(-358.91 1025.89) rotate(-76.77)"/><polygon class="cls-2" points="582.04 299.05 601.26 341.08 628.05 303.42 582.04 299.05"/><rect class="cls-2" x="1017.87" y="593.18" width="5.59" height="60.22" transform="translate(212.41 -951.55) rotate(38.87)"/><rect class="cls-23" x="429.31" y="737.97" width="8.58" height="92.4" transform="translate(-34.4 -558.67) rotate(24.9)"/><path class="cls-17" d="M433.63,737.29a12.84,12.84,0,1,1-12.84-12.84A12.84,12.84,0,0,1,433.63,737.29Z" transform="translate(-404.84 -449)"/><path class="cls-17" d="M492.31,589.35a12.84,12.84,0,1,1-12.83-12.84A12.83,12.83,0,0,1,492.31,589.35Z" transform="translate(-404.84 -449)"/><path class="cls-17" d="M436.59,620.51c18.73-.32,23.12,11.3,24.6,25s22.94,21.28,17.36,41.2c-6,21.57-54.51,18.07-68.93-9.76S416.11,620.86,436.59,620.51Z" transform="translate(-404.84 -449)"/></svg>