<svg id="Layer_1" data-name="Layer 1" xmlns="http://www.w3.org/2000/svg" viewBox="0 0 127.83 112"><defs><style>.cls-1{fill:#fcfcfc;}</style></defs><title>hai</title><path class="cls-1" d="M688,650.79c.56-2.75,2.82-3.84,5-5,.67-.38,1.36-.73,2-1.1h4.39c4.57,1.31,7.3,4.52,9.46,8.6,3.45,6.56,7.19,13,10.81,19.44-.28-.06-.7,0-.82-.18-1.83-2.61-3.61-5.26-5.41-7.89-.43-.64-1-1.84-1.32-1.79a2.93,2.93,0,0,0-2.11,1.39c-.64,2-2.11,1.52-3.4,1.45-1.69-.1-.94-1.51-1-2.38a15,15,0,0,1,0-2.84c.11-1.33-.4-1.82-1.75-1.78-3,.07-6,0-9,0-3.6,0-3.6,0-3.32-3.66a5.77,5.77,0,0,0,.16-1.07c-.11-1-.29-2-.48-3.19l1.68-3.12-.54-.37Z" transform="translate(-636.47 -644.65)"/><path class="cls-1" d="M691.52,743.35l-14,6.54c-.11-1.11.19-1.71,1.5-1.78.66,0,1.28-.72,2.09-1.22-1.34-.86-3.35.28-3.36-2.11l2-.11c1.75.25,3.5.52,5.26.73a2.21,2.21,0,0,0,1.21-.23c1-.56,2.05-1.2,3.46-2-1.49,0-2.76-.3-3.78.07-1.17.43-1.22.68-1.3-.46-.1-1.53,0-3.07,0-4.61s-.53-2.23-2.2-2.25c-4.7-.06-4.77-.12-4.78-4.79,0-1.8-.74-2.27-2.38-2.22-2.92.08-5.84,0-8.77,0s-2.92,0-2.92-3c0-4,0-4-4.07-4-.87,0-1.93.18-2.56-.24-2.43-1.65-2.59-3.78-.57-6.47l-3.35-1.64,4.38-7.45,6.17,2.45c0,1.39,0,3.06,0,4.73,0,1.25.47,1.66,1.68,1.63,2.48-.06,5,0,7.45,0,4.85,0,4.89,0,4.9,4.92,0,1.37.15,2.24,1.86,2.14s3.72-.51,4.63.31.23,3,.63,4.51a3.41,3.41,0,0,0,1.91,2.07c1.48.44,3.8-.18,4.5.67.86,1,.36,3.17.56,4.81.07.55.36,1.38.76,1.53,3.48,1.34,7-.22,9-3.63.41-.72,1.53-1.06,2.35-1.52.61-.34,1.27-.6,1.91-.89l.79-.81,1,1.27a3,3,0,0,1,0,.42c-1.64-.51-1.65.67-1.78,1.72-1,.62-2.3,1-3,1.91a21.89,21.89,0,0,1-6.94,5.32C694,740.44,692.86,742.07,691.52,743.35Z" transform="translate(-636.47 -644.65)"/><path class="cls-1" d="M641.08,754.29c-.4-.68-.81-1.35-1.2-2-1.2-2.09-3.1-4.1-3.37-6.31s1-4.74,1.77-7.06c.13-.37,1.3-.39,2-.56,1.59-2.73,1.22-6.24,3.49-8.72.19-.2-.09-.83-.16-1.25.14-.43.27-.86.41-1.29l1.48-.81.75,2.51c2.4-.78.58-2,.57-3l0-3.6.32-.42.58.09c.08.49,0,1.23.27,1.44,2,1.48,1.44,3.6,1.51,5.56,0,2.2-.48,4.5.09,6.53.19.68,2.94.64,4.51.93.08,0,.18,0,.22,0,.59.55,1.61,1.06,1.68,1.68.58,4.84.53,4.84,5.29,4.89a3.23,3.23,0,0,0,.44,0c1.5-.21,1.9.53,1.83,1.91-.09,1.64,0,3.29,0,5.34,2.16-.09,3.93-.21,5.7-.21,1.17,0,2.34.18,3.51.28l-.08.56a8.5,8.5,0,0,0-2.12-.12,64,64,0,0,0-9.2,2.12,20.32,20.32,0,0,1-8.12,1.57c-.64,0-1.31.5-2,.78C647.71,756,644.3,756.28,641.08,754.29Zm3.31-23.7c-.25.4-.49.63-.48.85s.4.43.55.39a.8.8,0,0,0,.45-.57C644.93,731.1,644.65,730.9,644.39,730.59Z" transform="translate(-636.47 -644.65)"/><path class="cls-1" d="M688,650.79l4.32-3.51.54.37-1.68,3.12c.19,1.23.37,2.21.48,3.19a5.77,5.77,0,0,1-.16,1.07c-.28,3.66-.28,3.66,3.32,3.66,3,0,6,0,9,0,1.35,0,1.86.45,1.75,1.78a15,15,0,0,0,0,2.84c.11.87-.64,2.28,1,2.38,1.29.07,2.76.51,3.4-1.45a2.93,2.93,0,0,1,2.11-1.39c.33-.05.89,1.15,1.32,1.79,1.8,2.63,3.58,5.28,5.41,7.89.12.17.54.12.82.18,1.78,3.11,3.52,6.25,5.36,9.34,1.65,2.77,3.4,5.49,5.11,8.24l1.37,2.9c-.24.52-.48,1-.44,1l-4-.34h-.44a27.29,27.29,0,0,0,.28-4.31c-.1-1.22.23-3-1.94-3-1.75,0-3.5,0-5.4,0v-6.63c-.83-.06-1.32-.13-1.82-.14-5-.09-5.1-.09-5.12-5.11,0-1.59-.59-2-2-1.94-4,.08-8,0-12,0,0-1.53-.1-3.07,0-4.59.16-2-.7-2.53-2.56-2.46-3,.11-6.12,0-9.18,0-1.25,0-2.26,0-2.39-1.75a19.78,19.78,0,0,0-1.15-3.79c-.52.84-.75,1.27-1,1.67-1,1.44-2,2.86-3,4.29a45.34,45.34,0,0,1,1.89-4.27c1.88-3.38,3.85-6.7,5.83-10A5.66,5.66,0,0,1,688,650.79Z" transform="translate(-636.47 -644.65)"/><path class="cls-1" d="M759.14,743l-1,7c-.25-.36-.7-.72-.73-1.1-.08-1.54,0-3.09-.09-4.63,0-.42-.55-.8-.84-1.2-.28.34-.8.67-.81,1,0,1.8-.38,3.74.16,5.38s0,1.89-1.08,2.33l.27-1.9c-2.56.64-4.82,1.92-7.3,1v-.87c.15-1.73.3-3.46.44-5.2.1-1.3-.52-1.84-1.82-1.83-1.75,0-4.2.56-5-.34s-.4-3.4-.63-5.17c-.07-.52-.55-1.39-.87-1.41-3.4-.17-6.8-.34-10.19-.2-1.92.08-2.73-.25-2.93-2.2-.1-1-.14-1.92-.21-2.88l-.68-.3a17.92,17.92,0,0,0-2.63,3.12,36.05,36.05,0,0,0-1.76,5h-.88L720,738q3.25-6.78,6.5-13.57c1.37-.26,3.56.71,3.19-2.14l.18-.1-.08-.08-.1.18a5.29,5.29,0,0,1,.43-2.11c.37-.5,1.22-.63,1.86-.92a8.78,8.78,0,0,1,.73,1.78c.11.53-.19,1.14-.09,1.67a26.3,26.3,0,0,1,1,4.26c0,1.61.65,2,2.09,1.93,3.64-.08,7.29,0,10.93-.07.71,0,1.42-.64,2.46-1.15a12.54,12.54,0,0,1-.15,2.11c-.29,1.26-.81,2.47-1.07,3.73-.13.67-.16,1.83.18,2a3.65,3.65,0,0,0,2.48.24c.55-.15.93-1,1.37-1.48l1.95.28c.82,3.32,3.73,5.36,5.12,8.32C759,742.94,759.07,742.93,759.14,743Z" transform="translate(-636.47 -644.65)"/><path class="cls-1" d="M651.17,755.15c.65-.28,1.32-.81,2-.78a20.32,20.32,0,0,0,8.12-1.57,64,64,0,0,1,9.2-2.12,8.5,8.5,0,0,1,2.12.12l.08-.56c-1.17-.1-2.34-.28-3.51-.28-1.77,0-3.54.12-5.7.21,0-2-.06-3.7,0-5.34.07-1.38-.33-2.12-1.83-1.91a3.23,3.23,0,0,1-.44,0c-4.76,0-4.71,0-5.29-4.89-.07-.62-1.09-1.13-1.68-1.68,0,0-.14,0-.22,0-1.57-.29-4.32-.25-4.51-.93-.57-2-.14-4.33-.09-6.53,1.37-.13,2.74-.21,4.1-.4,2.37-.33,3.67.94,3.31,3.29-.09.57-.33,1.13-.37,1.7-.13,1.62.61,2.45,2.29,2.43,3.18,0,6.35.09,9.52,0,1.72-.07,2.27.44,2.25,2.2-.07,4.85,0,4.85,5,4.85h7.15l-2.93,1.75-2,.11c0,2.39,2,1.25,3.36,2.11-.81.5-1.43,1.19-2.09,1.22-1.31.07-1.61.67-1.5,1.78C669,752.93,660.33,755.33,651.17,755.15Z" transform="translate(-636.47 -644.65)"/><path class="cls-1" d="M739.17,676c1.75-2.13,3.38-4.35,5.26-6.35,2.38-2.55,5.35-2.5,7.8,0s4.85,5.22,7.27,7.83c1.19,1.9,2.39,3.79,3.59,5.69,0,.3,0,.6.07.9-.33,1.32-.65,2.63-1,3.94l-.44.52a.82.82,0,0,0-.35,0l-1.4-.1a12,12,0,0,0-6.69-1.82c-1.78.08-4,.41-5.22-.48-.84-.6-.41-3.1-.38-4.74,0-1.31-.39-1.85-1.75-1.78-1.88.08-3.77,0-5.58,0-.43-1.18,1.43-2.92-1-3.5Z" transform="translate(-636.47 -644.65)"/><path class="cls-1" d="M729.69,722.3c.37,2.85-1.82,1.88-3.19,2.14,2-3.14,3.88-6.29,5.84-9.41.43-.68.95-1.3,1.43-1.94a9,9,0,0,0,2.08-.49c2.73-1.34,4.68-.84,6.56,1.8-1,.24-2.27.52-1.5,1.91a45.26,45.26,0,0,0,3.56,5.25c.15.2,1-.09,1.47-.16.65.65,1.33,1.27,1.93,2,1.06,1.21,2.07,2.46,3.11,3.69L752,729a17.78,17.78,0,0,0,.47,2.54c.35,1.06.86,2,1.3,3.07l-1.95-.28c-.44.51-.82,1.33-1.37,1.48a3.65,3.65,0,0,1-2.48-.24c-.34-.18-.31-1.34-.18-2,.26-1.26.78-2.47,1.07-3.73a12.54,12.54,0,0,0,.15-2.11c-1,.51-1.75,1.13-2.46,1.15-3.64.1-7.29,0-10.93.07-1.44,0-2-.32-2.09-1.93a26.3,26.3,0,0,0-1-4.26c-.1-.53.2-1.14.09-1.67a8.78,8.78,0,0,0-.73-1.78c-.64.29-1.49.42-1.86.92A5.29,5.29,0,0,0,729.69,722.3Z" transform="translate(-636.47 -644.65)"/><path class="cls-1" d="M726.62,693.78h.44c0,1.8-.08,3.61,0,5.41,0,.54.52,1.42.94,1.52,1.41.33,1.47.86.71,1.93-.32.44-1.19,1.38.45,1.23l-.42,1.73h0l-.32.45q-3.54,5.33-7.07,10.65c0-.57-.25-1.22,0-1.68,1-2.32,2.2-4.6,3.35-6.95-5-.41-5-.41-5.11-5.32a2.16,2.16,0,0,1,0-.44c.11-1.15-.44-1.55-1.55-1.52-1.82.05-3.65,0-5.47,0v-7Z" transform="translate(-636.47 -644.65)"/><path class="cls-1" d="M712.58,700.8c1.82,0,3.65,0,5.47,0,1.11,0,1.66.37,1.55,1.52a2.16,2.16,0,0,0,0,.44c.11,4.91.11,4.91,5.11,5.32-1.15,2.35-2.31,4.63-3.35,6.95-.21.46,0,1.11,0,1.68l-1.9,2.52L717,720.55h-.44c0-1.44.72-2,2.08-2.3.54-.12,1.06-1.2,1.2-1.91.09-.41-.59-1.36-.95-1.37-.62,0-1.24.55-1.9.76s-1.38.52-1.78.29c-2-1.18-2.29-3.12-2.2-5.3.13-3-.23-3.32-3.12-3.33-.44,0-.88,0-1.32,0-1.89.12-2.64-.82-2.55-2.65.06-1.31,0-2.62,0-3.93Z" transform="translate(-636.47 -644.65)"/><path class="cls-1" d="M747.67,749.94v.87c-6,0-12.07,0-18.1,0-1.09,0-2.17-.54-3.27-.63-.46,0-1,.42-1.44.66-.85-.1-2.35-.46-2.44-.26a2,2,0,0,0,1.49,2.85,14.31,14.31,0,0,0,3.89.87c4.28.11,8.57.05,12.86.05v.84l-14.2.09c-3.43-.39-5.49-2.64-7.21-5.35a13.11,13.11,0,0,1-.22-9.64c.08-.27.16-.54.25-.81l.3-.92L720,738l.47.53.35.68.53-.69h0a11.41,11.41,0,0,0,1,.69c.63.34,1.84.62,1.85.95.11,3.35,2.48,2.75,4.52,2.75,4.83,0,4.92,0,4.85,4.91,0,1.85.69,2.17,2.3,2.14C739.81,749.88,743.74,749.94,747.67,749.94Z" transform="translate(-636.47 -644.65)"/><path class="cls-1" d="M735.38,689.49c-2.1-2-2.14-4.42-1.33-6.83.87-2.62,2.18-5.08,4.85-6.43,0,.3,0,.59,0,.89a20.12,20.12,0,0,0-1.57,2,3.53,3.53,0,0,0-.53,1.66c-.06,1.87,0,3.75,0,5.54,2.38-.89,3.86.18,3.86,3.06,0,.87.06,1.75,0,2.62-.1,1.3.36,1.87,1.73,1.8,1.66-.09,3.32,0,4.92,0l.87,2.55a19.34,19.34,0,0,1,2.65-.9,3.13,3.13,0,0,1,2,.21c.27.16.11,1.07.15,1.65l-2.61,3.42h-4.63l-3.3-3.4h0Z" transform="translate(-636.47 -644.65)"/><path class="cls-1" d="M740.65,755.17v-.84h6.46a70.06,70.06,0,0,0-8.87-.86c-3-.1-6-.15-9,0a4.23,4.23,0,0,1-4.44-2.67c.48-.24,1-.7,1.44-.66,1.1.09,2.18.61,3.27.63,6,.06,12.07,0,18.1,0,2.48.92,4.74-.36,7.3-1-.12.84-.19,1.37-.27,1.9s0,1.27,0,1.9l-3.44,1.63Z" transform="translate(-636.47 -644.65)"/><path class="cls-1" d="M717,720.55l2.53-1.33c-1.9,2.3-3.66,4.72-5.71,6.86-5.92,6.16-12.29,11.76-19.93,15.76-.82.43-1.56,1-2.34,1.51,1.34-1.28,2.49-2.91,4.06-3.76a21.89,21.89,0,0,0,6.94-5.32c.71-.88,2-1.29,3-1.91l1.77-1.72a3,3,0,0,0,0-.42l.86-.46,4.39-4.39.88-.87h0l.86-.44.89-1.31.88-.88h0L717,721C717,720.84,717,720.69,717,720.55Z" transform="translate(-636.47 -644.65)"/><path class="cls-1" d="M751,727c-1-1.23-2.05-2.48-3.11-3.69-.6-.68-1.28-1.3-1.93-2-1.09-2.37-1.27-5.21-3.53-7-1.88-2.64-3.83-3.14-6.56-1.8a9,9,0,0,1-2.08.49c2.52-3.7,6.46-4,8.84-.36C745.61,717.36,748.21,722.25,751,727Z" transform="translate(-636.47 -644.65)"/><path class="cls-1" d="M753.81,734.58c-.44-1-.95-2-1.3-3.07A17.78,17.78,0,0,1,752,729c2.33,4.17,4.68,8.34,7,12.53a4,4,0,0,1,.13,1.45c-.07,0-.19,0-.21-.05C757.54,739.94,754.63,737.9,753.81,734.58Z" transform="translate(-636.47 -644.65)"/><path class="cls-1" d="M719,740.27a13.11,13.11,0,0,0,.22,9.64h-3l-.17-2.39,1.6.43v-5.37l-1.14,2c-1.87-1.54.17-3.21-.35-4.67ZM717.83,742l-.24-.55-.46.24a2.76,2.76,0,0,0,.32.49S717.66,742,717.83,742Z" transform="translate(-636.47 -644.65)"/><path class="cls-1" d="M754.74,753.61c0-.63,0-1.27,0-1.9,1.11-.44,1.59-.81,1.08-2.33s-.21-3.58-.16-5.38c0-.35.53-.68.81-1,.29.4.81.78.84,1.2.11,1.54,0,3.09.09,4.63,0,.38.48.74.73,1.1Z" transform="translate(-636.47 -644.65)"/><path class="cls-1" d="M728.78,705.61l.42-1.73c.74-1.28,1.54-2.54,2.23-3.86,1.17-2.25,1.9-4.54.1-6.85l-1.37-2.9a4.07,4.07,0,0,1,2.74,3.86c.18,1.81.87,3.46-.12,5.26-.85,1.56-1.37,3.29-2.22,4.84C730.23,704.83,729.39,705.16,728.78,705.61Z" transform="translate(-636.47 -644.65)"/><path class="cls-1" d="M760,688.56l1.4.08c-.21.54-.41,1.07-.62,1.6l-6.17,6.53h0l1.87-4.24.48-.48C758.88,691.69,759.64,690.3,760,688.56Z" transform="translate(-636.47 -644.65)"/><path class="cls-1" d="M735.38,689.49l7,7.83c-.54-.14-1.28-.09-1.59-.43-1.77-1.93-3.46-3.93-5.11-6C735.4,690.6,735.47,690,735.38,689.49Z" transform="translate(-636.47 -644.65)"/><path class="cls-1" d="M740.65,755.17l10.65.07a8.06,8.06,0,0,1-1.83.42q-10.69,0-21.39,0a7.08,7.08,0,0,1-1.63-.41Z" transform="translate(-636.47 -644.65)"/><path class="cls-1" d="M652.49,756.21h10.64v.44H652.54Z" transform="translate(-636.47 -644.65)"/><path class="cls-1" d="M763.09,683.25c-1.2-1.9-2.4-3.79-3.59-5.69a10.14,10.14,0,0,1,2.13,1.31,22.39,22.39,0,0,1,2.34,3C764.69,682.87,764.17,683.26,763.09,683.25Z" transform="translate(-636.47 -644.65)"/><path class="cls-1" d="M750.32,700.72l2.61-3.42.87,0,.14.15Z" transform="translate(-636.47 -644.65)"/><path class="cls-1" d="M742.39,697.33l3.3,3.4A3.46,3.46,0,0,1,742.39,697.33Z" transform="translate(-636.47 -644.65)"/><path class="cls-1" d="M762.18,688.09c.33-1.31.65-2.62,1-3.94.1,1.17.21,2.33.31,3.49h0Z" transform="translate(-636.47 -644.65)"/><path class="cls-1" d="M760.77,690.24c.21-.53.41-1.06.62-1.6a1,1,0,0,1,.35,0C761.42,689.16,761.09,689.7,760.77,690.24Z" transform="translate(-636.47 -644.65)"/><path class="cls-1" d="M719.57,738.54l-.3.92Z" transform="translate(-636.47 -644.65)"/><path class="cls-1" d="M763.47,687.64l.66.53-.14.14-.53-.66Z" transform="translate(-636.47 -644.65)"/><path class="cls-1" d="M738.91,677.12c0-.3,0-.59,0-.89a.36.36,0,0,1,.28-.19c.05.07.12.14.18.21Z" transform="translate(-636.47 -644.65)"/><path class="cls-1" d="M754.6,696.77l-.66.66-.14-.15.79-.52Z" transform="translate(-636.47 -644.65)"/><path class="cls-1" d="M728.47,706.05l.32-.45Z" transform="translate(-636.47 -644.65)"/><path class="cls-1" d="M706,700.81c0,1.31,0,2.62,0,3.93-.09,1.83.66,2.77,2.55,2.65.44,0,.88,0,1.32,0,2.89,0,3.25.29,3.12,3.33-.09,2.18.19,4.12,2.2,5.3.4.23,1.2-.1,1.78-.29s1.28-.78,1.9-.76c.36,0,1,1,.95,1.37-.14.71-.66,1.79-1.2,1.91-1.36.31-2.11.86-2.08,2.3h0l-.44,1.31h-.88l-3-6.92c-.56,0-1.06-.09-1.56-.09-5-.07-5.06-.07-5-5,0-1.7-.57-2.12-2.16-2.07-3.35.11-6.72,0-10.07.06-1.45,0-2-.47-1.87-1.89.1-1.65,0-3.3,0-4.57a21.28,21.28,0,0,1-3.88-1.48A12.7,12.7,0,0,1,685,697.3a2.21,2.21,0,0,1-.48-1.41c.14-1.88-.9-2.24-2.45-2.11-.66.05-1.32,0-2,0h0c.1-1.34.11-2.51-1.57-3.11-.54-.2-.91-1.4-1-2.18a19.16,19.16,0,0,1,0-3.71c.09-1.57-.68-2-2.12-2-1.64.07-3.28,0-4.91,0l0-1.85c.21-.41.42-.81.62-1.22h4.68c1.43.14,2.87.37,4.31.42,3.91.14,3.94.12,4,4.07,0,1.6.39,2.56,2.33,2.56,5,0,5.08.08,5.1,5.09,0,1.61.62,2,2.07,1.92,3.13-.08,6.26,0,9.39,0,1.85,0,2.65.71,2.65,2.58C705.59,697.84,705.85,699.32,706,700.81Z" transform="translate(-636.47 -644.65)"/><path class="cls-1" d="M706,700.81c-.15-1.49-.41-3-.41-4.46,0-1.87-.8-2.62-2.65-2.58-3.13.06-6.26,0-9.39,0-1.45,0-2.06-.31-2.07-1.92,0-5-.09-5.08-5.1-5.09-1.94,0-2.3-1-2.33-2.56-.07-4-.1-3.93-4-4.07-1.44,0-2.88-.28-4.31-.42l-.79-3.54L672.15,678l5.75-9.68c.39.22.88.72,1.15.62,3-1.11,5.45.52,5.45,3.69,0,1.67.07,3.35,0,5s.61,2.19,2.2,2.15c3.2-.08,6.41.08,9.61-.06,1.88-.09,2.32.6,2.29,2.37-.08,4.66,0,4.77,4.65,4.64,2.17-.06,2.93.78,2.77,2.79,0,.44,0,.88,0,1.31-.22,1.85.46,2.73,2.44,2.55,1.37-.12,2.76,0,4.15,0v7.45Z" transform="translate(-636.47 -644.65)"/><path class="cls-1" d="M712.58,693.35c-1.39,0-2.78-.1-4.15,0-2,.18-2.66-.7-2.44-2.55,0-.43,0-.87,0-1.31.16-2-.6-2.85-2.77-2.79-4.66.13-4.73,0-4.65-4.64,0-1.77-.41-2.46-2.29-2.37-3.2.14-6.41,0-9.61.06-1.59,0-2.28-.52-2.2-2.15s0-3.35,0-5c0-3.17-2.46-4.8-5.45-3.69-.27.1-.76-.4-1.15-.62.45-.71.9-1.43,1.34-2.15,1-1.43,2-2.85,3-4.29.28-.4.51-.83,1-1.67a19.78,19.78,0,0,1,1.15,3.79c.13,1.72,1.14,1.76,2.39,1.75,3.06,0,6.13.07,9.18,0,1.86-.07,2.72.48,2.56,2.46-.13,1.52,0,3.06,0,4.59a27.13,27.13,0,0,1,.42,3.21c.06,3.36,0,3.36,3.36,3.37.29,0,.58,0,.87,0,1.9,0,2.76.87,2.82,2.78.15,4.47.18,4.52,4.86,4.64,1.36,0,1.79.51,1.73,1.81C712.52,690.14,712.58,691.74,712.58,693.35Z" transform="translate(-636.47 -644.65)"/><path class="cls-1" d="M663.46,692.93l.4-.51c.51-.06,1.35.05,1.48-.21.92-1.77,1.69-3.62,2.51-5.44h.86l.88-1.76v-.44c.29.42.77.81.84,1.26a7.85,7.85,0,0,1-1.37,5.49c-1,1.52-.35,2.43,1.44,2.46s3.35.09,5,0,2,.43,2,2c0,4.9.08,4.94,4.91,5,1.47,0,2.16.49,2.09,2s0,3.34,0,5h0c-4,0-8-.05-12,0-1.45,0-2.06-.32-2.06-1.92,0-5-.1-5.06-5.1-5.09-1.62,0-1.93-.65-1.94-2.07a7.5,7.5,0,0,0-.82-2.35Z" transform="translate(-636.47 -644.65)"/><path class="cls-1" d="M663.46,692.93c-.29,1.17-.59,2.33-.89,3.49q-2.64,4.82-5.29,9.63l-4.38,7.45h0l-.88,1.33-.94-.09c1.82-3.35,3.58-6.73,5.47-10C658.8,700.75,661.15,696.86,663.46,692.93Z" transform="translate(-636.47 -644.65)"/><path class="cls-1" d="M667.85,686.77c-.82,1.82-1.59,3.67-2.51,5.44-.13.26-1,.15-1.48.21q2.37-4.18,4.75-8.38l.11.1c0,.29,0,.58,0,.87v.88Z" transform="translate(-636.47 -644.65)"/><path class="cls-1" d="M672.15,678l2.79-1.76.79,3.54h-4.68Z" transform="translate(-636.47 -644.65)"/><path class="cls-1" d="M651.08,714.75l.94.09h.45c-.45,2.94-3,4.27-4.79,6.16l-.11-.09,2.27-4.34.44.46.83-2.26Z" transform="translate(-636.47 -644.65)"/><path class="cls-1" d="M646.73,722.21c0,1.2,0,2.4,0,3.6l-1.32.45-1.48.81Z" transform="translate(-636.47 -644.65)"/><path class="cls-1" d="M670.43,681c0,.62,0,1.23,0,1.85,0,.14,0,.29,0,.43l-.88.88h0l-.87,0-.11-.11Z" transform="translate(-636.47 -644.65)"/><path class="cls-1" d="M651.11,714.78l-.83,2.26-.44-.46Z" transform="translate(-636.47 -644.65)"/><path class="cls-1" d="M647.63,721.88l-.58-.09.52-.87.11.09C647.67,721.3,647.65,721.59,647.63,721.88Z" transform="translate(-636.47 -644.65)"/><path class="cls-1" d="M657.28,706.05q2.65-4.81,5.29-9.63a7.5,7.5,0,0,1,.82,2.35c0,1.42.32,2.06,1.94,2.07,5,0,5.07.1,5.1,5.09,0,1.6.61,2,2.06,1.92,4-.07,8,0,12,0v2.84c0,4.15,0,4.25,4.14,4.13,1.87,0,2.54.4,2.49,2.41-.12,4.9.08,5,4.94,5.09h.21c1.48-.2,2,.5,1.83,1.89a13,13,0,0,0,0,2c.08,1.42.19,2.73,2.17,2.83,1.77.1,3.52.5,5.28.77-.64.29-1.3.55-1.91.89-.82.46-1.94.8-2.35,1.52-2,3.41-5.51,5-9,3.63-.4-.15-.69-1-.76-1.53-.2-1.64.3-3.77-.56-4.81-.7-.85-3-.23-4.5-.67a3.41,3.41,0,0,1-1.91-2.07c-.4-1.49.23-3.74-.63-4.51s-3-.41-4.63-.31-1.86-.77-1.86-2.14c0-4.92-.05-4.92-4.9-4.92-2.49,0-5,0-7.45,0-1.21,0-1.73-.38-1.68-1.63.07-1.67,0-3.34,0-4.73Z" transform="translate(-636.47 -644.65)"/><path class="cls-1" d="M647.63,721.88c0-.29,0-.58,0-.87,1.8-1.89,4.34-3.22,4.79-6.16.14-.45.28-.89.43-1.34h0l3.35,1.64c-2,2.69-1.86,4.82.57,6.47.63.42,1.69.24,2.56.24,4.06,0,4.06,0,4.07,4,0,3,0,3,2.92,3s5.85.06,8.77,0c1.64-.05,2.37.42,2.38,2.22,0,4.67.08,4.73,4.78,4.79,1.67,0,2.21.77,2.2,2.25s-.07,3.08,0,4.61c.08,1.14.13.89,1.3.46,1-.37,2.29-.07,3.78-.07-1.41.85-2.42,1.49-3.46,2a2.21,2.21,0,0,1-1.21.23c-1.76-.21-3.51-.48-5.26-.73l2.93-1.75h-7.15c-4.94,0-5,0-5-4.85,0-1.76-.53-2.27-2.25-2.2-3.17.12-6.34,0-9.52,0-1.68,0-2.42-.81-2.29-2.43,0-.57.28-1.13.37-1.7.36-2.35-.94-3.62-3.31-3.29-1.36.19-2.73.27-4.1.4-.07-2,.51-4.08-1.51-5.56C647.61,723.11,647.71,722.37,647.63,721.88Z" transform="translate(-636.47 -644.65)"/><path class="cls-1" d="M705.56,729.76c-1.76-.27-3.51-.67-5.28-.77-2-.1-2.09-1.41-2.17-2.83a13,13,0,0,1,0-2c.15-1.39-.35-2.09-1.83-1.89h-.21c-4.86-.09-5.06-.19-4.94-5.09,0-2-.62-2.46-2.49-2.41-4.14.12-4.14,0-4.14-4.13v-2.84h1.31c5.42,0,5.45,0,5.68,5.39.06,1.22.44,1.68,1.67,1.65,1.66,0,4-.53,4.81.34s.55,3.25.54,5c0,1.38.54,1.77,1.82,1.72,1.74-.07,3.5.06,5.24,0s2.54.84,2.6,2.46c.07,1.82,0,3.64,0,5.46l-.86.46c-.32-.43-.65-.85-1-1.27Z" transform="translate(-636.47 -644.65)"/><path class="cls-1" d="M707.31,730.64l-1.77,1.72C705.66,731.31,705.67,730.13,707.31,730.64Z" transform="translate(-636.47 -644.65)"/><path class="cls-1" d="M645.45,726.26l1.32-.45c0,1,1.83,2.18-.57,3Z" transform="translate(-636.47 -644.65)"/><path class="cls-1" d="M712.58,693.35c0-1.61-.06-3.21,0-4.81.06-1.3-.37-1.77-1.73-1.81-4.68-.12-4.71-.17-4.86-4.64-.06-1.91-.92-2.83-2.82-2.78-.29,0-.58,0-.87,0-3.33,0-3.3,0-3.36-3.37a27.13,27.13,0,0,0-.42-3.21c4,0,8,0,12,0,1.46,0,2,.35,2,1.94,0,5,.09,5,5.12,5.11.5,0,1,.08,1.82.14v6.63c1.9,0,3.65,0,5.4,0,2.17,0,1.84,1.74,1.94,3a27.29,27.29,0,0,1-.28,4.31h-14Z" transform="translate(-636.47 -644.65)"/><path class="cls-1" d="M731.53,693.17c1.8,2.31,1.07,4.6-.1,6.85-.69,1.32-1.49,2.58-2.23,3.86-1.64.15-.77-.79-.45-1.23.76-1.07.7-1.6-.71-1.93-.42-.1-.9-1-.94-1.52-.12-1.8,0-3.61,0-5.41l4,.34C731.05,694.2,731.29,693.69,731.53,693.17Z" transform="translate(-636.47 -644.65)"/><path class="cls-1" d="M747.67,749.94c-3.93,0-7.86-.06-11.78,0-1.61,0-2.33-.29-2.3-2.14.07-4.91,0-4.91-4.85-4.91-2,0-4.41.6-4.52-2.75,0-.33-1.22-.61-1.85-.95a11.41,11.41,0,0,1-1-.69,36.05,36.05,0,0,1,1.76-5,17.92,17.92,0,0,1,2.63-3.12l.68.3c.07,1,.11,1.92.21,2.88.2,1.95,1,2.28,2.93,2.2,3.39-.14,6.79,0,10.19.2.32,0,.8.89.87,1.41.23,1.77-.33,4.15.63,5.17s3.29.34,5,.34c1.3,0,1.92.53,1.82,1.83C748,746.48,747.82,748.21,747.67,749.94Z" transform="translate(-636.47 -644.65)"/><path class="cls-1" d="M721.35,738.53l-.53.69-.35-.68Z" transform="translate(-636.47 -644.65)"/><polygon class="cls-1" points="93.22 77.65 93.32 77.47 93.4 77.55 93.22 77.65"/><path class="cls-1" d="M754.59,696.76l-.79.52-.87,0c0-.58.12-1.49-.15-1.65a3.13,3.13,0,0,0-2-.21,19.34,19.34,0,0,0-2.65.9l-.87-2.55c-1.6,0-3.26-.07-4.92,0-1.37.07-1.83-.5-1.73-1.8.07-.87,0-1.75,0-2.62,0-2.88-1.48-3.95-3.86-3.06,0-1.79,0-3.67,0-5.54a3.53,3.53,0,0,1,.53-1.66,20.12,20.12,0,0,1,1.57-2l.45-.87c2.44.58.58,2.32,1,3.5,1.81,0,3.7.06,5.58,0,1.36-.07,1.77.47,1.75,1.78,0,1.64-.46,4.14.38,4.74,1.23.89,3.44.56,5.22.48a12,12,0,0,1,6.69,1.82c-.35,1.75-1.11,3.14-3,3.49l-.48.48Z" transform="translate(-636.47 -644.65)"/><path class="cls-1" d="M742.41,714.4c2.26,1.79,2.44,4.63,3.53,7-.51.07-1.32.36-1.47.16a45.26,45.26,0,0,1-3.56-5.25C740.14,714.92,741.39,714.64,742.41,714.4Z" transform="translate(-636.47 -644.65)"/><path class="cls-1" d="M717,720.55c0,.14,0,.29,0,.43l-.43-.43H717Z" transform="translate(-636.47 -644.65)"/><path class="cls-1" d="M724.86,750.82a4.23,4.23,0,0,0,4.44,2.67c3-.17,6-.12,9,0a70.06,70.06,0,0,1,8.87.86h-6.46c-4.29,0-8.58.06-12.86-.05a14.31,14.31,0,0,1-3.89-.87,2,2,0,0,1-1.49-2.85C722.51,750.36,724,750.72,724.86,750.82Z" transform="translate(-636.47 -644.65)"/><path class="cls-1" d="M708.19,729.76c0-1.82,0-3.64,0-5.46-.06-1.62-.78-2.56-2.6-2.46s-3.5,0-5.24,0c-1.28,0-1.83-.34-1.82-1.72,0-1.71.37-4-.54-5s-3.15-.36-4.81-.34c-1.23,0-1.61-.43-1.67-1.65-.23-5.39-.26-5.39-5.68-5.39H684.5c0-1.67-.06-3.34,0-5s-.62-2-2.09-2c-4.83-.11-4.89-.15-4.91-5,0-1.54-.5-2.06-2-2s-3.34,0-5,0-2.4-.94-1.44-2.46a7.85,7.85,0,0,0,1.37-5.49c-.07-.45-.55-.84-.84-1.26v-.44h0l.88-.88c0-.14,0-.29,0-.43,1.63,0,3.27,0,4.91,0,1.44-.06,2.21.42,2.12,2a19.16,19.16,0,0,0,0,3.71c.11.78.48,2,1,2.18,1.68.6,1.67,1.77,1.57,3.11h-.43c-1.27-.1-1.48.71-1.27,1.65.08.35.59.61.9.92.26-.57.56-1.13.78-1.72a2.67,2.67,0,0,0,0-.85c.65,0,1.31,0,2,0,1.55-.13,2.59.23,2.45,2.11a2.21,2.21,0,0,0,.48,1.41,12.7,12.7,0,0,0,2.62,2.61,21.28,21.28,0,0,0,3.88,1.48c0,1.27.08,2.92,0,4.57-.08,1.42.42,1.93,1.87,1.89,3.35-.08,6.72,0,10.07-.06,1.59,0,2.17.37,2.16,2.07,0,4.92,0,4.92,5,5,.5,0,1,0,1.56.09l3,6.92v.88l-.89,1.31-.86.44h0l-.88.87Z" transform="translate(-636.47 -644.65)"/><path class="cls-1" d="M715.21,722.74v-.88h.88Z" transform="translate(-636.47 -644.65)"/><path class="cls-1" d="M716.53,720.55l.43.43-.87.88Z" transform="translate(-636.47 -644.65)"/><path class="cls-1" d="M712.58,725.37l.88-.87Z" transform="translate(-636.47 -644.65)"/><path class="cls-1" d="M713.46,724.49l.86-.44Z" transform="translate(-636.47 -644.65)"/><path class="cls-1" d="M717.83,742c-.17.09-.35.21-.38.18a2.76,2.76,0,0,1-.32-.49l.46-.24Z" transform="translate(-636.47 -644.65)"/><path class="cls-1" d="M756.46,692.52l.48-.48Z" transform="translate(-636.47 -644.65)"/><path class="cls-1" d="M668.71,685.89V685h.88l-.88,1.76Z" transform="translate(-636.47 -644.65)"/><path class="cls-1" d="M669.59,685h-.88c0-.29,0-.58,0-.87h.87V685Z" transform="translate(-636.47 -644.65)"/><path class="cls-1" d="M668.71,685.89v.88h-.86Z" transform="translate(-636.47 -644.65)"/><path class="cls-1" d="M652.9,713.51c-.15.45-.29.89-.43,1.34H652Z" transform="translate(-636.47 -644.65)"/><path class="cls-1" d="M670.46,683.25l-.88.88Z" transform="translate(-636.47 -644.65)"/><path class="cls-1" d="M680.12,693.79a2.67,2.67,0,0,1,0,.85c-.22.59-.52,1.15-.78,1.72-.31-.31-.82-.57-.9-.92-.21-.94,0-1.75,1.27-1.65Z" transform="translate(-636.47 -644.65)"/></svg>