<svg id="Layer_1" data-name="Layer 1" xmlns="http://www.w3.org/2000/svg" viewBox="0 0 95.74 95.89"><title>lo</title><path d="M679,742.62c-4.53,2.9-9.18,5.39-14.71,5.91-3.4.33-6.48,0-9.16-2.29-2.06-2.84-2.9-5.84-1.16-9.14s4.71-3.94,8.14-4.45a18.57,18.57,0,0,0,7.91-3.27c6.4-4.64,11-11,15-17.7,6-9.95,11.52-20.19,17.49-30.16a83.35,83.35,0,0,1,22.29-25.08c4.86-2.37,9.88-4,15.41-3.64,5.18.34,8.71,3.62,8.55,8.17s-3.58,7.49-8.75,7.57a6.43,6.43,0,0,0-.74.08c-4-.23-7,1.93-9.81,4.37-6.17,5.41-10.82,12.08-14.95,19.09-4.71,8-9,16.21-13.74,24.2C694.9,726.2,688.08,735.37,679,742.62Z" transform="translate(-653 -652.75)"/></svg>