<svg id="Layer_1" data-name="Layer 1" xmlns="http://www.w3.org/2000/svg" viewBox="0 0 184.52 104.04"><defs><style>.cls-1{fill:#fff;}</style></defs><title>Next</title><path class="cls-1" d="M661.77,706.58v2.75H626.68V657.64H661.4v2.71H629.85v20.73h29.66v2.77H629.87v22.73Z" transform="translate(-583.11 -632)"/><path class="cls-1" d="M663.25,709.37l19.43-26.6-18.14-25.16c1.24,0,2.34,0,3.43,0,.23,0,.49.3.66.52q6.66,9.23,13.32,18.48l2.74,3.8c11.79-16.65,24.25-32.64,37-48.44l.17.12-35.07,50.65L706,709.37c-1.32,0-2.5,0-3.69,0-.2,0-.41-.34-.57-.56l-16.58-22.86-.54-.72c-.19.24-.35.43-.49.63q-8.37,11.49-16.71,23a1.18,1.18,0,0,1-1.13.58C665.35,709.34,664.38,709.37,663.25,709.37Z" transform="translate(-583.11 -632)"/><path class="cls-1" d="M586.35,661.83v47.49h-3.24V657.61c1.24,0,2.49,0,3.74,0,.23,0,.49.39.67.65q9.13,13.59,18.26,27.2L639.05,735a2.17,2.17,0,0,1,.39,1c-.17-.22-.34-.43-.5-.65-6.38-8.47-12.84-16.87-19.09-25.42-4.35-5.94-8.41-12.08-12.58-18.14L586.94,662.3l-.38-.54Z" transform="translate(-583.11 -632)"/><path class="cls-1" d="M725.64,660.38H707.47v-2.73H747v2.7H728.82v49h-3.18Z" transform="translate(-583.11 -632)"/><path class="cls-1" d="M759,702.67h1.62a3.08,3.08,0,0,0,4.06,1.46,1.56,1.56,0,0,0,1.12-1.41,1.37,1.37,0,0,0-1.08-1.41c-.8-.27-1.62-.46-2.43-.69-.39-.12-.79-.22-1.17-.37a3,3,0,0,1-.72-5.12,5.11,5.11,0,0,1,5.94.1,2.87,2.87,0,0,1,1,2.19c-.46,0-.91,0-1.35,0a.64.64,0,0,1-.39-.35,2.8,2.8,0,0,0-4-.75,1.29,1.29,0,0,0,.24,2.22,14.28,14.28,0,0,0,2,.66c.61.19,1.24.33,1.83.55a2.66,2.66,0,0,1,1.89,2.47,3,3,0,0,1-1.43,2.95,5.47,5.47,0,0,1-5.64,0A3,3,0,0,1,759,702.67Z" transform="translate(-583.11 -632)"/><path class="cls-1" d="M749.87,702.78h1.67c.34,1.12.91,1.57,1.9,1.5s1.58-.73,1.59-2c0-2.33,0-4.67,0-7v-.8h1.73v1.92c0,2.11,0,4.21,0,6.31a3,3,0,0,1-2.72,3.12c-1.93.27-3.44-.49-3.95-2A10.21,10.21,0,0,1,749.87,702.78Z" transform="translate(-583.11 -632)"/><path class="cls-1" d="M764.74,711.8a1.25,1.25,0,0,1,1.3,1.26,1.32,1.32,0,0,1-1.3,1.37,1.29,1.29,0,0,1-1.28-1.37A1.23,1.23,0,0,1,764.74,711.8Z" transform="translate(-583.11 -632)"/></svg>