<svg id="Layer_1" data-name="Layer 1" xmlns="http://www.w3.org/2000/svg" viewBox="0 0 121.95 108.68"><defs><style>.cls-1{fill:#fff;}</style></defs><title>react</title><path class="cls-1" d="M664.81,679.88c-.3-1.62-.61-3.17-.87-4.74-1.06-6.34-1.54-12.68.07-19a15.57,15.57,0,0,1,3.12-6.37c2.77-3.24,6.4-4.07,10.42-3.52,5.66.77,10.49,3.52,15,6.79,2.66,1.91,5.16,4.05,7.8,6.14,1.07-.92,2.21-1.94,3.38-2.93a52.2,52.2,0,0,1,13.6-8.56,20.25,20.25,0,0,1,7.33-1.68,10.52,10.52,0,0,1,10.19,5.87,21.7,21.7,0,0,1,2.47,9.8c0,1.24.19,2.48.16,3.72a52.64,52.64,0,0,1-1.17,11.05c-.17.76-.18,1.57-.42,2.3-.32.92.08,1.15.86,1.45,3.62,1.41,7.28,2.76,10.8,4.4a31.44,31.44,0,0,1,10,7.21,13.52,13.52,0,0,1,3.48,6.15,10.77,10.77,0,0,1-1.54,8.35,26.06,26.06,0,0,1-8.74,8,60.59,60.59,0,0,1-14,6.18c-.75.24-.88.52-.72,1.29a54.18,54.18,0,0,1,1.47,10.84c0,1.62.22,3.24.15,4.86a26.94,26.94,0,0,1-1.94,9.91c-1.56,3.55-4,6.11-7.94,6.94a16.2,16.2,0,0,1-8.39-.79,43.14,43.14,0,0,1-13.12-7.29c-1.86-1.44-3.61-3-5.42-4.52-.13-.11-.27-.2-.43-.32-1.52,1.3-3,2.62-4.53,3.85-4.38,3.51-9,6.63-14.4,8.35a19.83,19.83,0,0,1-5.61,1.08c-5.1.05-8.65-2.35-10.8-7.31a24.29,24.29,0,0,1-1.89-8.88,63.4,63.4,0,0,1,.16-8.27c.28-2.84.87-5.67,1.42-8.48.16-.78,0-1-.73-1.22a62.05,62.05,0,0,1-14.76-6.6,27.45,27.45,0,0,1-7.35-6.49c-3.59-4.77-3.41-10.21.44-14.78a33.21,33.21,0,0,1,9.87-7.64A68.9,68.9,0,0,1,664.81,679.88Zm28.89.65v.13c-1.33.08-2.67.13-4,.27a1.45,1.45,0,0,0-.91.53,130.38,130.38,0,0,0-10.55,18.35,1.35,1.35,0,0,0,0,1,125.18,125.18,0,0,0,10.68,18.47,1.08,1.08,0,0,0,.66.46,44.14,44.14,0,0,0,4.85.36c5.49-.06,11-.21,16.46-.36a1.49,1.49,0,0,0,1-.58,126.57,126.57,0,0,0,10.55-18.35,1.32,1.32,0,0,0,0-1,125,125,0,0,0-10.62-18.4,1.22,1.22,0,0,0-.83-.5c-2.37-.16-4.74-.33-7.11-.37C700.49,680.49,697.1,680.53,693.7,680.53Zm2.69,57-.34-.42c-2.81-3.33-5.67-6.62-8.41-10a5,5,0,0,0-3.71-2.3c-4.33-.5-8.61-1.5-12.91-2.31-.55-.1-.8,0-.9.6-.23,1.4-.52,2.79-.73,4.19-.58,3.74-1.19,7.49-.64,11.29a39.78,39.78,0,0,0,1,5.54c.69,2.39,1.87,4.54,4.67,4.94a10.15,10.15,0,0,0,3.34-.16,27,27,0,0,0,9.36-4.11A65,65,0,0,0,696.39,737.49Zm38-52.27c-.09.2-.15.3-.19.4q-2.61,7.11-5.2,14.23a1.36,1.36,0,0,0,0,.89c1.7,4.63,3.44,9.25,5.13,13.89.22.61.43.73,1.06.53a60.15,60.15,0,0,0,11.66-5,25.12,25.12,0,0,0,7.13-5.67c1.52-1.86,2.32-3.88,1.3-6.24a11.85,11.85,0,0,0-3.49-4.3C746.72,689.68,740.7,687.26,734.4,685.22Zm-30-22.26c3.42,4.23,6.67,8.29,10,12.3a2.11,2.11,0,0,0,1.28.54c2.12.31,4.25.49,6.35.84,2.6.44,5.18,1,7.76,1.54.49.1.71,0,.78-.47.46-3.3,1.08-6.57,1.35-9.88a46.63,46.63,0,0,0-.16-7.47,13.7,13.7,0,0,0-2.18-6.64,4.6,4.6,0,0,0-3.12-2,11.73,11.73,0,0,0-5.87.7,37,37,0,0,0-10.44,5.88C708.11,659.81,706.21,661.47,704.39,663ZM666.3,715.31l.19-.51c1.62-4.44,3.21-8.89,4.89-13.32a2.73,2.73,0,0,0,0-2.22q-1.82-4.49-3.51-9c-.61-1.62-1.1-3.29-1.64-5a1.55,1.55,0,0,0-.29.05,56.82,56.82,0,0,0-13.66,6.06,19.15,19.15,0,0,0-6.18,5.56c-1.73,2.68-1.74,4-.05,6.65a16.4,16.4,0,0,0,4.38,4.33,53.29,53.29,0,0,0,15.27,7.29A2.84,2.84,0,0,0,666.3,715.31Zm3.78-37,.93-.12c4.6-.79,9.19-1.6,13.79-2.37a2.43,2.43,0,0,0,2-1.13,17,17,0,0,1,1.77-2.37c2.4-2.84,4.83-5.67,7.25-8.49.27-.32.58-.58.11-1a55.12,55.12,0,0,0-13.41-9.33,17.17,17.17,0,0,0-7-1.79,5.15,5.15,0,0,0-5.11,3.21,19.11,19.11,0,0,0-1.78,7.71,43.1,43.1,0,0,0,.18,6.43C669.08,672.12,669.62,675.17,670.08,678.3Zm34.27,59.2,1,.8c1.55,1.27,3.06,2.6,4.66,3.8a36.49,36.49,0,0,0,11.81,6.38,10.4,10.4,0,0,0,4.88.4c2.22-.43,3.28-2.13,4.06-4.06a21.42,21.42,0,0,0,1.35-7.83,64,64,0,0,0-.36-7.45c-.25-2.38-.77-4.73-1.18-7.19l-1,.13c-4.28.75-8.55,1.58-12.85,2.21a4.42,4.42,0,0,0-3.37,2c-1.32,1.93-2.86,3.73-4.37,5.54S706,735.63,704.35,737.5ZM700.27,667l-6.92,8h13.56l.14-.2Zm-6.83,58.68,7,8,6.85-8ZM725.71,707,718.89,719l10.25-2ZM674.94,693.6,681.58,682l-.07-.26-10,1.91Zm6.61,25.31.08-.24-6.69-11.53L671.57,717Zm37.33-37.16,6.83,11.75c1.13-3.31,2.22-6.5,3.35-9.84Z" transform="translate(-639.36 -646)"/><path class="cls-1" d="M700.34,689.09c5.37-.48,11.38,4.38,11.32,11.28a11.36,11.36,0,1,1-22.71-.06C688.88,694.1,694.48,688.59,700.34,689.09Z" transform="translate(-639.36 -646)"/></svg>