<svg id="Layer_1" data-name="Layer 1" xmlns="http://www.w3.org/2000/svg" viewBox="0 0 135.66 112"><defs><style>.cls-1{fill:#fff;}</style></defs><title>sc</title><path class="cls-1" d="M834.92,616.32l75.23,48.23c.5.32,1,.63,1.51,1,2.36,1.6,2.37,3.21,0,4.72Q886.44,686,861.23,701.8l-40.92,25.63c-.28.17-.54.45-.85.5-1,.17-2.17.63-2.86.23s-.86-1.73-.74-2.6c.58-4.48,1.33-8.93,2-13.4q3.33-21.46,6.65-42.94,3.53-22.76,7-45.51a25.28,25.28,0,0,1,.65-4.12,17.16,17.16,0,0,1,1.9-3.27Z" transform="translate(-777.77 -616.32)"/><path class="cls-1" d="M777.77,631.1a3.09,3.09,0,0,1,3.8-1.18q14.7,4,29.42,7.88c1.84.49,2.4,1.33,2.09,3.29-2.39,15.54-4.67,31.1-7,46.65-.36,2.36-.82,4.71-1.1,7.08-.16,1.34-.59,2.38-2,2.56s-2.06-.81-2.51-2q-6.09-16.86-12.23-33.7-4.86-13.39-9.72-26.79a8.92,8.92,0,0,0-.75-1.34Z" transform="translate(-777.77 -616.32)"/></svg>