<svg id="Layer_1" data-name="Layer 1" xmlns="http://www.w3.org/2000/svg" viewBox="0 0 118.86 102.86"><title>v</title><path d="M741.76,649.17q-24.72-.81-33.48,27.91a22.19,22.19,0,0,1,8.8-2q9.06,0,8,10.2-.52,6.15-8,17.95t-11.21,11.79q-4.82,0-8.8-18.17-1.35-5.34-4.81-27.25-3.21-20.32-17.08-19-5.88.54-17.61,10.68-8.55,7.74-17.35,15.47l5.59,7.21c5.33-3.73,8.44-5.61,9.33-5.61q6.12,0,11.45,19.21l9.6,35.19Q683.36,752,693.77,752q16.77,0,41-31.52,23.44-30.16,24.24-47.54Q760.09,649.71,741.76,649.17Z" transform="translate(-640.22 -649.14)"/></svg>