<svg id="Layer_1" data-name="Layer 1" xmlns="http://www.w3.org/2000/svg" viewBox="0 0 118.29 102.51"><defs><style>.cls-1{fill:#fff;}.cls-2{fill:#ccc;}</style></defs><title>Vue</title><path class="cls-1" d="M864.18,645h23.7c-.89,1.57-1.77,3.15-2.68,4.71l-30.09,52.14-26,45c-.11.2-.23.39-.38.65-.12-.19-.22-.33-.31-.48l-44.31-76.77L769.79,645.4c-.08-.13-.13-.26-.2-.4H793.3a2.28,2.28,0,0,0,.15.36c1.26,2.19,2.54,4.38,3.8,6.57l9.5,16.48q5,8.63,10,17.25,5.53,9.57,11.06,19.16l1,1.63a4.14,4.14,0,0,0,.27-.39l4.21-7.31q2.7-4.69,5.42-9.39l6-10.37,5.73-9.94q2.86-4.95,5.72-9.9l6.13-10.63C862.87,647.35,863.52,646.17,864.18,645Z" transform="translate(-769.59 -645)"/><path class="cls-2" d="M864.18,645c-.66,1.17-1.31,2.35-2,3.51q-3.06,5.32-6.13,10.63-2.85,5-5.72,9.9l-5.73,10-6,10.37-5.41,9.39c-1.41,2.43-2.81,4.87-4.21,7.3a3.15,3.15,0,0,1-.27.39c-.34-.57-.66-1.09-1-1.62L816.7,685.65l-10-17.24q-4.74-8.24-9.49-16.48c-1.26-2.2-2.54-4.38-3.8-6.57a2.32,2.32,0,0,1-.16-.36H815.1l13.63,23.59,2-3.38,3.54-6.12c1.28-2.22,2.56-4.45,3.85-6.67q1.57-2.74,3.17-5.49l1.13-1.93Z" transform="translate(-769.59 -645)"/></svg>