<svg id="Layer_1" data-name="Layer 1" xmlns="http://www.w3.org/2000/svg" viewBox="0 0 479.09 449.99"><defs><style>.cls-1,.cls-12,.cls-17,.cls-9{fill:none;}.cls-1,.cls-17{stroke:#9aabbd;}.cls-1,.cls-17,.cls-9{stroke-miterlimit:10;}.cls-1{stroke-width:1.7px;}.cls-2{fill:#9aabbd;}.cls-3{fill:#383d45;}.cls-4{fill:#484f59;}.cls-5{fill:#596a7b;}.cls-6{fill:#282e36;}.cls-7{fill:#fff;}.cls-8{fill:#ff532f;}.cls-9{stroke:#425466;stroke-width:0.9px;}.cls-10{fill:#425466;}.cls-11{fill:#74889e;}.cls-13{fill:#f0f5f8;}.cls-14{fill:#42444f;}.cls-15{fill:#292d33;}.cls-16{fill:#e6eaf0;}.cls-17{stroke-width:1.63px;}</style></defs><title>Web</title><circle class="cls-1" cx="628.91" cy="451.51" r="140.51" transform="translate(-426.23 266.8) rotate(-45)"/><rect class="cls-2" x="53.54" y="225.62" width="366.29" height="206.25" rx="6.08"/><rect class="cls-3" x="65.89" y="236.75" width="341.45" height="183.97"/><path class="cls-4" d="M528.23,740.76H389.56a1,1,0,0,0-1.05,1h0a1,1,0,0,0,1.05,1.05H528.23a1,1,0,0,0,1-1.05h0A1,1,0,0,0,528.23,740.76Z" transform="translate(-291.17 -310.15)"/><path class="cls-4" d="M356.46,740.76h-22a1,1,0,0,0-1.05,1h0a1,1,0,0,0,1.05,1.05h22a1,1,0,0,0,1.05-1.05h0A1,1,0,0,0,356.46,740.76Z" transform="translate(-291.17 -310.15)"/><path class="cls-4" d="M384,740.76H361.93a1,1,0,0,0-1.05,1h0a1,1,0,0,0,1.05,1.05H384a1,1,0,0,0,1-1.05h0A1,1,0,0,0,384,740.76Z" transform="translate(-291.17 -310.15)"/><path class="cls-4" d="M557.05,740.76H535a1,1,0,0,0-1,1h0a1,1,0,0,0,1,1.05h22a1,1,0,0,0,1.05-1.05h0A1,1,0,0,0,557.05,740.76Z" transform="translate(-291.17 -310.15)"/><path class="cls-4" d="M583.79,740.76h-22a1,1,0,0,0-1,1h0a1,1,0,0,0,1,1.05h22a1,1,0,0,0,1.05-1.05h0A1,1,0,0,0,583.79,740.76Z" transform="translate(-291.17 -310.15)"/><path class="cls-4" d="M610.53,740.76h-22a1,1,0,0,0-1.05,1h0a1,1,0,0,0,1.05,1.05h22a1,1,0,0,0,1.05-1.05h0A1,1,0,0,0,610.53,740.76Z" transform="translate(-291.17 -310.15)"/><path class="cls-4" d="M637.27,740.76h-22a1,1,0,0,0-1.05,1h0a1,1,0,0,0,1.05,1.05h22a1,1,0,0,0,1.05-1.05h0A1,1,0,0,0,637.27,740.76Z" transform="translate(-291.17 -310.15)"/><path class="cls-4" d="M664,740.76H642a1,1,0,0,0-1.05,1h0a1,1,0,0,0,1.05,1.05h22a1,1,0,0,0,1-1.05h0A1,1,0,0,0,664,740.76Z" transform="translate(-291.17 -310.15)"/><path class="cls-4" d="M690.75,740.76h-22a1,1,0,0,0-1.05,1h0a1,1,0,0,0,1.05,1.05h22a1,1,0,0,0,1-1.05h0A1,1,0,0,0,690.75,740.76Z" transform="translate(-291.17 -310.15)"/><path class="cls-4" d="M717.49,740.76h-22a1,1,0,0,0-1.05,1h0a1,1,0,0,0,1.05,1.05h22a1.06,1.06,0,0,0,1.06-1.05h0A1.06,1.06,0,0,0,717.49,740.76Z" transform="translate(-291.17 -310.15)"/><path class="cls-2" d="M668.08,748.76V747.4l-139.65.68-139.65-.68v1.36l-69.34.33v1.12l17.29,4.67a152.77,152.77,0,0,0,39.74,5.26H680.39a152.82,152.82,0,0,0,39.74-5.26l17.29-4.67v-1.12Z" transform="translate(-291.17 -310.15)"/><rect class="cls-2" x="28.26" y="431.86" width="417.99" height="7.18"/><g id="Website"><path class="cls-5" d="M414.46,406.64V730.87H644.58V406.64a10.1,10.1,0,0,0-10.09-10.1H424.56A10.1,10.1,0,0,0,414.46,406.64Z" transform="translate(-291.17 -310.15)"/><path class="cls-6" d="M636,421.52v79a5.16,5.16,0,0,1-5.17,5.17H428.27a4.83,4.83,0,0,1-1.21-.15,5.15,5.15,0,0,1-4-5v-79a5.16,5.16,0,0,1,5.17-5.17H630.78a5.15,5.15,0,0,1,5,4A4.83,4.83,0,0,1,636,421.52Z" transform="translate(-291.17 -310.15)"/><path class="cls-7" d="M630,406.94a3,3,0,1,0,3-3A3,3,0,0,0,630,406.94Z" transform="translate(-291.17 -310.15)"/><path class="cls-8" d="M619.54,406.94a3,3,0,1,0,3-3A3,3,0,0,0,619.54,406.94Z" transform="translate(-291.17 -310.15)"/><circle class="cls-3" cx="612.08" cy="406.94" r="2.99" transform="translate(-348.45 -206.85) rotate(-9.22)"/><path class="cls-6" d="M485.84,520.68v41.78a5.79,5.79,0,0,1-5.78,5.79H430.18a6,6,0,0,1-1.72-.26,5.8,5.8,0,0,1-4.07-5.53V520.68a5.78,5.78,0,0,1,5.79-5.78h49.88a5.77,5.77,0,0,1,5.78,5.78Z" transform="translate(-291.17 -310.15)"/><path class="cls-3" d="M636,421.52v79a5.16,5.16,0,0,1-5.17,5.17H428.27a4.83,4.83,0,0,1-1.21-.15,4.52,4.52,0,0,1-.16-1.21v-79a5.18,5.18,0,0,1,5.17-5.18H634.59a4.47,4.47,0,0,1,1.21.16A4.83,4.83,0,0,1,636,421.52Z" transform="translate(-291.17 -310.15)"/><path class="cls-3" d="M485.84,520.68v41.78a5.78,5.78,0,0,1-5.78,5.79H430.18a6,6,0,0,1-1.72-.26,5.83,5.83,0,0,1-.26-1.72V521.92a3.22,3.22,0,0,1,3.21-3.22h52.44a6.13,6.13,0,0,1,1.73.26A5.83,5.83,0,0,1,485.84,520.68Z" transform="translate(-291.17 -310.15)"/><rect class="cls-2" x="200.58" y="204.75" width="143.87" height="4.05"/><rect class="cls-2" x="200.58" y="214.65" width="143.87" height="4.05"/><rect class="cls-2" x="200.58" y="224.55" width="143.87" height="4.05"/><rect class="cls-2" x="200.58" y="234.46" width="143.87" height="4.05"/><path class="cls-2" d="M631.12,568.25h-33a4.52,4.52,0,0,1-4.5-4.5h0a4.51,4.51,0,0,1,4.5-4.49h33a4.5,4.5,0,0,1,4.49,4.49h0A4.51,4.51,0,0,1,631.12,568.25Z" transform="translate(-291.17 -310.15)"/><path class="cls-3" d="M622.05,565.78H607.21a2,2,0,0,1-2-2h0a2,2,0,0,1,2-2h14.84a2,2,0,0,1,2,2h0A2,2,0,0,1,622.05,565.78Z" transform="translate(-291.17 -310.15)"/><rect class="cls-2" x="133.22" y="276.33" width="22.65" height="22.65"/><rect class="cls-2" x="133.22" y="301.27" width="22.65" height="2.33"/><rect class="cls-2" x="133.22" y="305.88" width="22.65" height="2.33"/><rect class="cls-2" x="133.22" y="310.5" width="15.03" height="2.33"/><rect class="cls-2" x="164.65" y="276.33" width="22.65" height="22.65"/><rect class="cls-2" x="164.65" y="301.27" width="22.65" height="2.33"/><rect class="cls-2" x="164.65" y="305.88" width="22.65" height="2.33"/><rect class="cls-2" x="164.65" y="310.5" width="15.03" height="2.33"/><rect class="cls-2" x="196.08" y="276.33" width="22.65" height="22.65"/><rect class="cls-2" x="196.08" y="301.27" width="22.65" height="2.33"/><rect class="cls-2" x="196.08" y="305.88" width="22.65" height="2.33"/><rect class="cls-2" x="196.08" y="310.5" width="15.03" height="2.33"/><rect class="cls-2" x="227.51" y="276.33" width="22.65" height="22.65"/><rect class="cls-2" x="227.51" y="301.27" width="22.65" height="2.33"/><rect class="cls-2" x="227.51" y="305.88" width="22.65" height="2.33"/><rect class="cls-2" x="227.51" y="310.5" width="15.03" height="2.33"/><rect class="cls-2" x="258.94" y="276.33" width="22.65" height="22.65"/><rect class="cls-2" x="258.94" y="301.27" width="22.65" height="2.33"/><rect class="cls-2" x="258.94" y="305.88" width="22.65" height="2.33"/><rect class="cls-2" x="258.94" y="310.5" width="15.03" height="2.33"/><rect class="cls-2" x="290.37" y="276.33" width="22.65" height="22.65"/><rect class="cls-2" x="290.37" y="301.27" width="22.65" height="2.33"/><rect class="cls-2" x="290.37" y="305.88" width="22.65" height="2.33"/><rect class="cls-2" x="290.37" y="310.5" width="15.03" height="2.33"/><rect class="cls-2" x="321.8" y="276.33" width="22.65" height="22.65"/><rect class="cls-2" x="321.8" y="301.27" width="22.65" height="2.33"/><rect class="cls-2" x="321.8" y="305.88" width="22.65" height="2.33"/><rect class="cls-2" x="321.8" y="310.5" width="15.03" height="2.33"/><polygon class="cls-2" points="138.41 152.11 146.64 160.35 146.64 143.87 138.41 152.11"/><polygon class="cls-2" points="331.02 143.87 331.02 160.35 339.25 152.11 331.02 143.87"/><path class="cls-5" d="M517.46,502.29a1.58,1.58,0,1,1-1.58-1.57A1.58,1.58,0,0,1,517.46,502.29Z" transform="translate(-291.17 -310.15)"/><path class="cls-5" d="M524.28,502.29a1.58,1.58,0,1,1-1.58-1.57A1.58,1.58,0,0,1,524.28,502.29Z" transform="translate(-291.17 -310.15)"/><circle class="cls-5" cx="238.35" cy="192.14" r="1.57"/><path class="cls-5" d="M537.92,502.29a1.58,1.58,0,1,1-1.58-1.57A1.58,1.58,0,0,1,537.92,502.29Z" transform="translate(-291.17 -310.15)"/><circle class="cls-5" cx="251.99" cy="192.14" r="1.57"/><line class="cls-9" x1="133.22" y1="323.71" x2="344.44" y2="323.71"/><line class="cls-9" x1="133.22" y1="267.21" x2="344.44" y2="267.21"/><rect class="cls-2" x="133.22" y="335.49" width="96.74" height="22.77" rx="3.27"/><path class="cls-10" d="M635.62,649.94v14.18a4.3,4.3,0,0,1-4.3,4.29H540.64a3.15,3.15,0,0,1-.53,0,4.28,4.28,0,0,1-3.76-4.25V649.94a4.29,4.29,0,0,1,4.29-4.3h90.68a4.31,4.31,0,0,1,4.26,3.76A3.19,3.19,0,0,1,635.62,649.94Z" transform="translate(-291.17 -310.15)"/><rect class="cls-2" x="133.22" y="364.12" width="96.74" height="22.77" rx="3.27"/><path class="cls-10" d="M635.62,678.57v14.17a4.3,4.3,0,0,1-4.3,4.3H540.64a4.73,4.73,0,0,1-.53,0,4.28,4.28,0,0,1-3.76-4.26V678.57a4.3,4.3,0,0,1,4.29-4.3h90.68a4.3,4.3,0,0,1,4.26,3.77A3.15,3.15,0,0,1,635.62,678.57Z" transform="translate(-291.17 -310.15)"/><path class="cls-2" d="M635.62,649.94v14.18a4.3,4.3,0,0,1-4.3,4.29H540.64a3.15,3.15,0,0,1-.53,0,3.08,3.08,0,0,1,0-.53V653.67a4.31,4.31,0,0,1,4.31-4.31H635a4.56,4.56,0,0,1,.54,0A3.19,3.19,0,0,1,635.62,649.94Z" transform="translate(-291.17 -310.15)"/><path class="cls-2" d="M635.62,678.57v14.17a4.3,4.3,0,0,1-4.3,4.3H540.64a4.73,4.73,0,0,1-.53,0,3.08,3.08,0,0,1,0-.53V682.3a4.3,4.3,0,0,1,4.31-4.3H635a3.12,3.12,0,0,1,.54,0A3.15,3.15,0,0,1,635.62,678.57Z" transform="translate(-291.17 -310.15)"/></g><path class="cls-5" d="M683.44,660.56v14.18a4.31,4.31,0,0,1-4.31,4.29H588.46a3.08,3.08,0,0,1-.53,0,4.27,4.27,0,0,1-3.76-4.25V660.56a4.29,4.29,0,0,1,4.29-4.3h90.67A4.32,4.32,0,0,1,683.4,660,3.27,3.27,0,0,1,683.44,660.56Z" transform="translate(-291.17 -310.15)"/><path class="cls-5" d="M683.44,689.19v14.17a4.31,4.31,0,0,1-4.31,4.3H588.46a4.55,4.55,0,0,1-.53,0,4.28,4.28,0,0,1-3.76-4.26V689.19a4.3,4.3,0,0,1,4.29-4.3h90.67a4.3,4.3,0,0,1,4.27,3.77A3.15,3.15,0,0,1,683.44,689.19Z" transform="translate(-291.17 -310.15)"/><path class="cls-2" d="M685.57,660.56v14.18a4.31,4.31,0,0,1-4.31,4.29H590.59a3.08,3.08,0,0,1-.53,0,4.27,4.27,0,0,1-3.76-4.25V660.56a4.29,4.29,0,0,1,4.29-4.3h90.67a4.32,4.32,0,0,1,4.27,3.76A3.27,3.27,0,0,1,685.57,660.56Z" transform="translate(-291.17 -310.15)"/><path class="cls-2" d="M685.57,689.19v14.17a4.31,4.31,0,0,1-4.31,4.3H590.59a4.55,4.55,0,0,1-.53,0,4.28,4.28,0,0,1-3.76-4.26V689.19a4.3,4.3,0,0,1,4.29-4.3h90.67a4.3,4.3,0,0,1,4.27,3.77A3.15,3.15,0,0,1,685.57,689.19Z" transform="translate(-291.17 -310.15)"/><path class="cls-5" d="M461.23,535.28v41.78a5.79,5.79,0,0,1-5.78,5.79H405.57a5.68,5.68,0,0,1-1.72-.26,5.8,5.8,0,0,1-4.07-5.53V535.28a5.78,5.78,0,0,1,5.79-5.78h49.88a5.77,5.77,0,0,1,5.78,5.78Z" transform="translate(-291.17 -310.15)"/><path class="cls-2" d="M458.86,535.28v41.78a5.8,5.8,0,0,1-5.79,5.79H403.2a5.68,5.68,0,0,1-1.72-.26,5.8,5.8,0,0,1-4.07-5.53V535.28a5.78,5.78,0,0,1,5.79-5.78h49.87a5.77,5.77,0,0,1,5.79,5.78Z" transform="translate(-291.17 -310.15)"/><g id="_0" data-name="0"><path class="cls-5" d="M293.8,489.2h0a7.74,7.74,0,0,0,7.73,7.74h27.89a2.91,2.91,0,0,1,2.92,2.92h0a2.92,2.92,0,0,1-2.92,2.92h-4.1a5,5,0,0,0-5.05,5v.27a5,5,0,0,0,5.05,5h54.31a5,5,0,0,0,5-5h0a5,5,0,0,0-5-5h-37a2.92,2.92,0,0,1-2.92-2.92v-.26a2.92,2.92,0,0,1,2.92-2.92h15.73a7.74,7.74,0,0,0,7.73-7.74h0a7.73,7.73,0,0,0-7.73-7.73H301.53A7.73,7.73,0,0,0,293.8,489.2Z" transform="translate(-291.17 -310.15)"/></g><rect class="cls-11" x="35.42" y="93.62" width="209.05" height="85.51" rx="6.86"/><rect class="cls-2" x="31.86" y="93.62" width="209.05" height="85.51" rx="6.86"/><g id="text"><path class="cls-5" d="M327.93,611.26h-7.52v3.26h7.52Zm27.18,10.1h20.57V618.1H355.11Zm20.56-23.77h-48.1v3.26h48.1Zm-55.26,30.6h18.67v-3.26H320.41Zm14.36-23.76H320.41v3.25h14.36Zm-4.52,10.09h29.12v-3.26H330.25Zm21,3.58H320.41v3.26h30.81Zm10.46-3.58h25.71v-3.26H361.68Zm-23-6.84h48.73v-3.25H338.66Zm39-10.09v3.26h9.75v-3.26Zm1.93,23.77h7.82V618.1h-7.82ZM343,628.19H362.2v-3.26H343Zm21.55,0h14.65v-3.26H364.52Z" transform="translate(-291.17 -310.15)"/></g><polygon class="cls-12" points="410.04 259.29 385.16 233.06 385.16 259.29 410.04 259.29"/><path class="cls-5" d="M734.53,591.76l-79.37-79.37v79.37ZM696.69,574H671.82V547.73Z" transform="translate(-291.17 -310.15)"/><path class="cls-2" d="M655.41,541.74h8.31v-1.46h-8.31Zm0,11.59h8.31v-1.46h-8.31Zm0-5.79h8.31v-1.47h-8.31Zm0-17.38h8.31v-1.47h-8.31Zm0,5.79h8.31v-1.47h-8.31Zm0,34.76h8.31v-1.46h-8.31Zm0-11.58h8.31v-1.47h-8.31Zm0,29h8.31v-1.46h-8.31Zm0-5.79h8.31v-1.47h-8.31Zm0-57.94h8.31V522.9h-8.31Zm0,40.56h8.31v-1.47h-8.31Zm0,11.59h8.31V575h-8.31Zm0-110.08h8.31V465h-8.31Zm0,17.38h8.31v-1.47h-8.31Zm0-5.8h8.31v-1.46h-8.31Zm0-5.79h8.31v-1.47h-8.31Zm0-18.85v1.47h8.31v-1.47Zm0,7.26h8.31v-1.46h-8.31Zm0,34.76h8.31v-1.46h-8.31Zm0,17.39h8.31v-1.47h-8.31Zm0-5.8h8.31v-1.46h-8.31Zm0,11.59h8.31V517.1h-8.31Zm0-17.38h8.31v-1.47h-8.31Zm0-11.59h8.31v-1.46h-8.31Z" transform="translate(-291.17 -310.15)"/><rect class="cls-13" x="303.3" y="350.35" width="79.39" height="3.17"/><rect class="cls-13" x="303.3" y="355.71" width="79.39" height="3.17"/><rect class="cls-13" x="303.3" y="361.08" width="48.54" height="3.17"/><rect class="cls-13" x="303.3" y="379.1" width="79.39" height="3.17"/><rect class="cls-13" x="303.3" y="384.47" width="79.39" height="3.17"/><rect class="cls-13" x="303.3" y="389.83" width="48.54" height="3.17"/><g id="Document"><g id="Artwork_6" data-name="Artwork 6"><path class="cls-3" d="M374.74,464.66H347.32V418H369.4l5.34,5.34Z" transform="translate(-291.17 -310.15)"/><rect class="cls-5" x="60.07" y="113.9" width="19.61" height="1.34"/><rect class="cls-5" x="60.07" y="117.24" width="19.61" height="1.34"/><rect class="cls-5" x="60.07" y="120.57" width="19.61" height="1.34"/><rect class="cls-5" x="60.07" y="123.91" width="19.61" height="1.34"/><rect class="cls-5" x="60.07" y="127.24" width="19.61" height="1.34"/><rect class="cls-14" x="60.07" y="130.58" width="11.54" height="1.34"/><rect class="cls-5" x="60.07" y="137.29" width="19.61" height="1.34"/><rect class="cls-5" x="60.07" y="140.62" width="19.61" height="1.34"/><rect class="cls-5" x="60.07" y="143.96" width="19.61" height="1.34"/><rect class="cls-14" x="60.07" y="147.29" width="11.54" height="1.34"/><path class="cls-15" d="M374.74,425h-7v-7h0l7,7Z" transform="translate(-291.17 -310.15)"/><path class="cls-7" d="M365.91,472.74H338.49V426.08h22.08l5.34,5.35Z" transform="translate(-291.17 -310.15)"/><rect class="cls-5" x="51.24" y="121.98" width="19.61" height="1.34"/><rect class="cls-5" x="51.24" y="125.31" width="19.61" height="1.34"/><rect class="cls-5" x="51.24" y="128.65" width="19.61" height="1.34"/><rect class="cls-5" x="51.24" y="131.98" width="19.61" height="1.34"/><rect class="cls-5" x="51.24" y="135.32" width="19.61" height="1.34"/><rect class="cls-5" x="51.24" y="138.65" width="11.54" height="1.34"/><rect class="cls-8" x="51.24" y="145.36" width="19.61" height="1.34"/><rect class="cls-8" x="51.24" y="148.7" width="19.61" height="1.34"/><rect class="cls-8" x="51.24" y="152.03" width="19.61" height="1.34"/><rect class="cls-8" x="51.24" y="155.37" width="11.54" height="1.34"/><path class="cls-16" d="M365.91,433.12h-7v-7h0l7,7Z" transform="translate(-291.17 -310.15)"/></g></g><g id="paragraph"><rect class="cls-13" x="133.08" y="108.25" width="26.04" height="3.7"/><rect class="cls-13" x="162.62" y="108.25" width="27.73" height="3.7"/><rect class="cls-13" x="192.16" y="108.25" width="23.02" height="3.7"/><rect class="cls-13" x="133.08" y="130.52" width="22.21" height="3.7"/><rect class="cls-13" x="157.54" y="130.52" width="19.83" height="3.7"/><polygon class="cls-13" points="213.43 134.15 179.18 134.22 179.18 130.52 213.43 130.45 213.43 134.15"/><rect class="cls-13" x="133.08" y="115.67" width="14.01" height="3.7"/><rect class="cls-13" x="150.6" y="115.67" width="54.59" height="3.7"/><rect class="cls-13" x="208.68" y="115.67" width="8.18" height="3.7"/><rect class="cls-13" x="133.08" y="123.1" width="26.04" height="3.7"/><rect class="cls-13" x="161.38" y="123.1" width="22.69" height="3.7"/><rect class="cls-13" x="187.56" y="123.1" width="19.64" height="3.7"/><rect class="cls-13" x="133.08" y="137.77" width="26.04" height="3.7"/><rect class="cls-13" x="162.62" y="137.77" width="27.73" height="3.7"/><rect class="cls-13" x="192.16" y="137.77" width="23.02" height="3.7"/><rect class="cls-13" x="133.08" y="160.04" width="22.21" height="3.7"/><rect class="cls-13" x="157.54" y="160.04" width="19.83" height="3.7"/><polygon class="cls-13" points="213.43 163.67 179.18 163.74 179.18 160.04 213.43 159.97 213.43 163.67"/><rect class="cls-13" x="133.08" y="145.19" width="14.01" height="3.7"/><rect class="cls-13" x="150.6" y="145.19" width="54.59" height="3.7"/><rect class="cls-13" x="208.68" y="145.19" width="8.18" height="3.7"/><rect class="cls-13" x="133.08" y="152.62" width="26.04" height="3.7"/><rect class="cls-13" x="161.38" y="152.62" width="22.69" height="3.7"/><rect class="cls-13" x="187.56" y="152.62" width="19.64" height="3.7"/></g><polygon class="cls-2" points="395.38 124.5 409.15 110.72 406.4 107.97 392.62 121.74 389.86 123.27 386.5 128.48 388.64 130.62 393.85 127.25 395.38 124.5"/><path class="cls-3" d="M712.73,419.49l14.15-14.15a3.17,3.17,0,0,0,.82-1.46,10.88,10.88,0,0,0-13.14-13.14,3.17,3.17,0,0,0-1.46.82L699,405.71a5.64,5.64,0,0,1,0,8l-1.23,1.22-2.14-2.14-2.3,2.29,10.11,10.11,2.29-2.3-2.14-2.14,1.23-1.23A5.63,5.63,0,0,1,712.73,419.49Z" transform="translate(-291.17 -310.15)"/><g id="_0-2" data-name="0"><path class="cls-7" d="M549.49,424.86l-10.94-10.94a1.59,1.59,0,0,1,0-2.25h0a1.61,1.61,0,0,1,2.26,0l10.94,10.94a1.59,1.59,0,0,1,0,2.25h0A1.61,1.61,0,0,1,549.49,424.86Z" transform="translate(-291.17 -310.15)"/><path class="cls-7" d="M554.7,430.07l-1.27-1.27a1.61,1.61,0,0,1,0-2.26h0a1.59,1.59,0,0,1,2.25,0l1.27,1.27a1.61,1.61,0,0,1,0,2.26h0A1.59,1.59,0,0,1,554.7,430.07Z" transform="translate(-291.17 -310.15)"/><path class="cls-7" d="M561.11,436.48l-.22-.23a1.59,1.59,0,0,1,0-2.25h0a1.59,1.59,0,0,1,2.25,0l.23.23a1.59,1.59,0,0,1,0,2.25h0A1.61,1.61,0,0,1,561.11,436.48Z" transform="translate(-291.17 -310.15)"/></g><g id="_0-3" data-name="0"><path class="cls-7" d="M544.18,469l-5.63-5.63a1.59,1.59,0,0,1,0-2.25h0a1.61,1.61,0,0,1,2.26,0l5.62,5.62a1.61,1.61,0,0,1,0,2.26h0A1.59,1.59,0,0,1,544.18,469Z" transform="translate(-291.17 -310.15)"/><path class="cls-7" d="M551.61,476.41l-1.27-1.27a1.61,1.61,0,0,1,0-2.26h0a1.59,1.59,0,0,1,2.25,0l1.27,1.27a1.61,1.61,0,0,1,0,2.26h0A1.59,1.59,0,0,1,551.61,476.41Z" transform="translate(-291.17 -310.15)"/><path class="cls-7" d="M564.78,489.58l-.23-.23a1.59,1.59,0,0,1,0-2.25h0a1.61,1.61,0,0,1,2.26,0l.22.22a1.61,1.61,0,0,1,0,2.26h0A1.59,1.59,0,0,1,564.78,489.58Z" transform="translate(-291.17 -310.15)"/></g><g id="_0-4" data-name="0"><path class="cls-5" d="M729.91,493H728.3a1.61,1.61,0,0,1-1.61-1.61v-1.6a1.66,1.66,0,0,0-1.29-1.66,1.63,1.63,0,0,0-1.95,1.59v1.67a1.61,1.61,0,0,1-1.61,1.61h-1.6a1.67,1.67,0,0,0-1.66,1.3,1.62,1.62,0,0,0,1.58,1.94h1.68a1.61,1.61,0,0,1,1.61,1.61v1.61a1.68,1.68,0,0,0,1.3,1.66,1.62,1.62,0,0,0,1.94-1.59v-1.68a1.61,1.61,0,0,1,1.61-1.61H730a1.62,1.62,0,0,0,1.59-1.94A1.68,1.68,0,0,0,729.91,493Z" transform="translate(-291.17 -310.15)"/></g><g id="_0-5" data-name="0"><path class="cls-2" d="M301,542.12h-1.39a1.39,1.39,0,0,1-1.39-1.39v-1.39a1.44,1.44,0,0,0-1.12-1.43,1.4,1.4,0,0,0-1.68,1.37v1.45a1.4,1.4,0,0,1-1.4,1.39h-1.39a1.45,1.45,0,0,0-1.43,1.12,1.4,1.4,0,0,0,1.37,1.68H294a1.4,1.4,0,0,1,1.4,1.4v1.39a1.44,1.44,0,0,0,1.11,1.43,1.41,1.41,0,0,0,1.69-1.37v-1.45a1.4,1.4,0,0,1,1.39-1.4h1.45a1.4,1.4,0,0,0,1.37-1.68A1.44,1.44,0,0,0,301,542.12Z" transform="translate(-291.17 -310.15)"/></g><g id="_0-6" data-name="0"><path class="cls-2" d="M580.24,351.72H579a1.25,1.25,0,0,1-1.25-1.25v-1.25a1.3,1.3,0,0,0-1-1.29,1.27,1.27,0,0,0-1.52,1.23v1.31a1.25,1.25,0,0,1-1.25,1.25h-1.25a1.3,1.3,0,0,0-1.29,1,1.26,1.26,0,0,0,1.23,1.52H574a1.25,1.25,0,0,1,1.25,1.25v1.25a1.29,1.29,0,0,0,1,1.29,1.26,1.26,0,0,0,1.52-1.23V355.5a1.25,1.25,0,0,1,1.25-1.25h1.31a1.27,1.27,0,0,0,1.24-1.52A1.31,1.31,0,0,0,580.24,351.72Z" transform="translate(-291.17 -310.15)"/></g><path class="cls-17" d="M662.64,375.2A4.25,4.25,0,1,1,658.4,371,4.24,4.24,0,0,1,662.64,375.2Z" transform="translate(-291.17 -310.15)"/><circle class="cls-5" cx="184.85" cy="67.33" r="3.14"/><g id="gear"><path class="cls-2" d="M366.8,686.67a22.41,22.41,0,0,0,0-8.43h-3.67a.73.73,0,0,1-.36-1.36l3.17-1.84a22.39,22.39,0,0,0-4.23-7.3l-3.34,1.93a.73.73,0,0,1-1-1l1.91-3.35a22.12,22.12,0,0,0-7.33-4.18l-1.69,3a.73.73,0,0,1-1.36-.36v-3.42a22.41,22.41,0,0,0-8.43,0V664a.73.73,0,0,1-1.36.37l-1.84-3.18a22.28,22.28,0,0,0-7.3,4.23l1.93,3.34a.73.73,0,0,1-1,1l-3.36-1.91a22.27,22.27,0,0,0-4.17,7.33l3,1.69a.73.73,0,0,1-.36,1.36h-3.42a22.41,22.41,0,0,0,0,8.43h3.67a.73.73,0,0,1,.36,1.36l-3.17,1.84a22.44,22.44,0,0,0,4.22,7.3l3.35-1.93a.72.72,0,0,1,1,1l-1.91,3.36a22.42,22.42,0,0,0,7.34,4.17l1.68-3a.73.73,0,0,1,1.37.36v3.42a22.41,22.41,0,0,0,8.43,0V700.9a.73.73,0,0,1,1.36-.36l1.84,3.17a22.44,22.44,0,0,0,7.3-4.22l-1.93-3.35a.72.72,0,0,1,1-1l3.35,1.91a22.27,22.27,0,0,0,4.18-7.34L363,688a.73.73,0,0,1,.36-1.37Zm-21.46,5.85a10.09,10.09,0,1,1,9.41-9.41A10.09,10.09,0,0,1,345.34,692.52Z" transform="translate(-291.17 -310.15)"/></g></svg>