<svg id="Layer_1" data-name="Layer 1" xmlns="http://www.w3.org/2000/svg" viewBox="0 0 142.91 108"><defs><style>.cls-1{fill:#fff;}</style></defs><title>Xd</title><path class="cls-1" d="M956,651.27c-.15-.42-.32-.85,0-1.27Z" transform="translate(-813.09 -650)"/><path class="cls-1" d="M956,758a1.26,1.26,0,0,1,0-1.27Z" transform="translate(-813.09 -650)"/><path class="cls-1" d="M915.73,681v-21.4c0-1.31,0-1.36,1.32-1.36h13.62a.59.59,0,0,1,.61.6,7,7,0,0,1,0,.79q0,32.21,0,64.42c0,3,.23,5.94.36,8.91.05,1.16-.07,1.34-1.15,1.79a54.6,54.6,0,0,1-13.18,3.51,59.23,59.23,0,0,1-9.68.6,32.1,32.1,0,0,1-15.47-4,23.8,23.8,0,0,1-11.67-15.7,33.93,33.93,0,0,1-.77-12.41c1.27-9.74,6.26-17,14.79-21.88a31,31,0,0,1,11.61-3.65,41.08,41.08,0,0,1,9.14-.18Zm0,13.22c-.79-.12-1.57-.27-2.35-.34a16.87,16.87,0,0,0-11.24,2.62,13.35,13.35,0,0,0-6,8.09,20.43,20.43,0,0,0,.69,12.44,12,12,0,0,0,6.25,6.89,14.58,14.58,0,0,0,5.44,1.39c1.88.08,3.77,0,5.65,0a10,10,0,0,0,1.6-.31Z" transform="translate(-813.09 -650)"/><path class="cls-1" d="M855.8,699.86c.19.33.37.65.57,1l21.37,35.07c.27.44.66.86.4,1.54h-.76c-5.33,0-10.67,0-16,0a7.46,7.46,0,0,1-1-.06,1.82,1.82,0,0,1-1.52-1.12c-4.26-8.58-8.88-17-13.56-25.32-.14-.26-.29-.51-.48-.85a5.88,5.88,0,0,0-.37.56q-6.91,13-13.81,25.92a1.69,1.69,0,0,1-1.63,1H813.37s-.09,0-.17-.06c-.25-.46,0-.84.23-1.23l5.06-8.29,15.87-26,.55-.93q-.2-.37-.42-.75L814,665.63c-.1-.16-.2-.32-.28-.48q-.33-.66.39-.81a3.46,3.46,0,0,1,.56,0h15.69a1.69,1.69,0,0,1,1.67,1.11c.8,1.73,1.58,3.48,2.49,5.16,2,3.67,4,7.3,6,11,1.7,3.12,3.37,6.25,5.06,9.38.14.25.26.51.44.85a4.67,4.67,0,0,0,.3-.39c4.07-8.53,8.82-16.7,13.17-25.08.22-.42.45-.84.64-1.28a1,1,0,0,1,1.06-.68h14.5c.38,0,.83-.11,1.08.31s-.14.74-.33,1.06q-10.15,16.78-20.34,33.56C856,699.47,855.91,699.65,855.8,699.86Z" transform="translate(-813.09 -650)"/></svg>